<svg xmlns="http://www.w3.org/2000/svg" xml:space="preserve" style="fill-rule:evenodd;clip-rule:evenodd;stroke-linejoin:round;stroke-miterlimit:2" viewBox="0 0 3200 2000"><path d="M630 726.4H170L0 400 170 73.6h460l170 326.402L630 726.4Zm-12.74-21H182.74L23.678 400 182.74 94.6h434.52l159.062 305.402L617.26 705.4Z" style="fill:#f79617;stroke:#f79617;stroke-width:.44px" transform="translate(734.593 167.174) scale(2.28248)"/><g transform="translate(734.593 167.174) scale(2.28248)"><clipPath id="a"><path d="M188.966 696H611l152.466-295.998L611 105H188.999L36.5 400l152.466 296Z"/></clipPath><g clip-path="url(#a)"><path d="M207.267 83.496v633.008" style="fill:none;stroke:#f79617;stroke-width:6px;stroke-linecap:round;stroke-miterlimit:1.5" transform="translate(-45.667 25.413)"/><path d="M217.267 83.496v633.008" style="fill:none;stroke:#f79617;stroke-width:6px;stroke-linecap:round;stroke-miterlimit:1.5" transform="translate(-137.067 58.958)"/><path d="M150.302 205.337v110.8m0 0h-67.09" style="fill:#f79617;stroke:#f79617;stroke-width:5.54px;stroke-linecap:round;stroke-miterlimit:1.5" transform="matrix(.86364 0 0 -1.26606 -3.906 873.171)"/><path d="M118.79 253.113h54.069" style="fill:none;stroke:#f79617;stroke-width:6px;stroke-linecap:round;stroke-miterlimit:1.5" transform="translate(-11.13 18.297)"/><path d="M150.302 205.337v110.8m0 0h-67.09" style="fill:#f79617;stroke:#f79617;stroke-width:5.54px;stroke-linecap:round;stroke-miterlimit:1.5" transform="matrix(.86364 0 0 1.26606 -3.906 -74.044)"/><path d="M118.79 253.113h54.069" style="fill:none;stroke:#f79617;stroke-width:6px;stroke-linecap:round;stroke-miterlimit:1.5" transform="matrix(1 0 0 -1 -11.13 780.83)"/><path d="M163.711 348.666h-32.529v115.883h32.529" style="fill:none;stroke:#f79617;stroke-width:6px;stroke-linecap:round;stroke-miterlimit:1.5" transform="translate(-2.082 -6.607)"/><path d="m34.534 400 49 .002" style="fill:none;stroke:#f79617;stroke-width:6px;stroke-linecap:round;stroke-miterlimit:1.5" transform="translate(45.666)"/><path d="M207.267 83.496v633.008" style="fill:none;stroke:#f79617;stroke-width:6px;stroke-linecap:round;stroke-miterlimit:1.5" transform="matrix(-1 0 0 1 845.667 25.413)"/><path d="M217.267 83.496v633.008" style="fill:none;stroke:#f79617;stroke-width:6px;stroke-linecap:round;stroke-miterlimit:1.5" transform="matrix(-1 0 0 1 937.067 58.958)"/><path d="M150.302 205.337v110.8m0 0h-67.09" style="fill:#f79617;stroke:#f79617;stroke-width:5.54px;stroke-linecap:round;stroke-miterlimit:1.5" transform="matrix(-.86364 0 0 -1.26606 803.906 873.171)"/><path d="M118.79 253.113h54.041" style="fill:none;stroke:#f79617;stroke-width:6px;stroke-linecap:round;stroke-miterlimit:1.5" transform="matrix(-1 0 0 1 811.13 18.297)"/><path d="M150.302 205.337v110.8m0 0h-67.09" style="fill:#f79617;stroke:#f79617;stroke-width:5.54px;stroke-linecap:round;stroke-miterlimit:1.5" transform="matrix(-.86364 0 0 1.26606 803.906 -74.044)"/><path d="M118.79 253.113h54.041" style="fill:none;stroke:#f79617;stroke-width:6px;stroke-linecap:round;stroke-miterlimit:1.5" transform="rotate(-180 405.565 390.415)"/><path d="M163.682 348.666h-32.528v115.883h32.528" style="fill:none;stroke:#f79617;stroke-width:6px;stroke-linecap:round;stroke-miterlimit:1.5" transform="matrix(-1 0 0 1 802.082 -6.607)"/><path d="m34.534 400 47.997.002" style="fill:none;stroke:#f79617;stroke-width:6px;stroke-linecap:round;stroke-miterlimit:1.5" transform="matrix(-1 0 0 1 754.334 0)"/></g></g><path d="M188.966 696H611l152.466-295.998L611 105H188.999L36.5 400l152.466 296Zm4.872-7.99L45.491 400.007 193.863 112.99h412.272l148.34 287.018L606.128 688.01h-412.29Z" style="fill:#f79617;stroke:#f79617;stroke-width:.44px" transform="translate(734.593 167.174) scale(2.28248)"/><path d="M2894.5 897.5c6-4.991 9.45 31.092 9 31.5 2.06 4.618 4.23 9.118 6.5 13.5.08-.083.17-.167.25-.25l.5-.5c.08-.083.17-.167.25-.25 7.32 15.592 12.32 31.925 15 49 2.05 4.026 4.05 8.026 6 12 5.04 6.13 9.54 12.63 13.5 19.5l-1 1c5.86 4.87 9.7 11.04 11.5 18.5 1.59.88 3.09 1.88 4.5 3 4.92 7.5 10.08 14.83 15.5 22 1.04 2.21 1.71 4.55 2 7 6.88 2.06 10.71 6.72 11.5 14 1.32-.17 2.49.16 3.5 1 .89 2.78 2.06 5.45 3.5 8-.25.08-.5.17-.75.25l-1.5.5c-.25.08-.5.17-.75.25-10.67-1.33-21.34-2.67-32-4-2.37-3.85-4.87-7.51-7.5-11-5.36-2.53-9.2-6.53-11.5-12-5.24-2.11-9.91-4.94-14-8.5-1-3.67-3.33-6-7-7-3.44-4.44-7.27-8.61-11.5-12.5-.61-2.25-1.94-3.92-4-5-.5-1.97-.66-3.97-.5-6-2.4.11-4.24-.89-5.5-3-1.6-2.88-2.94-5.89-4-9-2.31-1.14-4.14-2.81-5.5-5-1.11 1.22-1.28 2.56-.5 4 3.38 7.48 6.38 15.15 9 23 7.56 8.56 16.06 16.06 25.5 22.5l3 3c-.08.04-.17.08-.25.13l-.5.24c-.08.05-.17.09-.25.13a212.807 212.807 0 0 1-24-18.5 232.18 232.18 0 0 1-36-13c-1.61-2.61-3.94-3.94-7-4-1.91-1.41-3.25-3.25-4-5.5-2.99-.63-5.83-1.63-8.5-3-3.03 1.53-5.2 3.86-6.5 7-3.23 8.37-4.4 17.04-3.5 26 .76 2.7 1.93 5.2 3.5 7.5-4.76 6.56-5.93 13.73-3.5 21.5 1.17 3 2.83 5.67 5 8 1.27 9.27 6.27 15.6 15 19 .25 7.67 3.09 14.17 8.5 19.5a54.79 54.79 0 0 0-7 2c-8.54 10.15-18.87 12.31-31 6.5-.08 6.29-1.42 12.46-4 18.5 1.11 2.74 1.28 5.57.5 8.5-3.91 3.96-4.41 8.29-1.5 13-2.05 8.92-3.72 17.93-5 27-5.97-3.47-11.8-7.14-17.5-11-2.75-3.53-4.75-7.53-6-12-1.14-1.23-2.5-2.25-4-3-.17-2.21-.84-4.21-2-6-2.88 2.18-3.05 4.68-.5 7.5-.26 4.51-1.59 5.17-4 2-4.24.1-7.24-1.74-9-5.5-6.23-2.07-10.73-6.07-13.5-12-.72.56-1.56.89-2.5 1-2.45-2.78-5.45-4.78-9-6-1.54.8-3.27 1.15-5 1-.9-4.08-2.9-7.58-6-10.5-6.6-3.94-12.6-8.6-18-14a32.37 32.37 0 0 0-9-3.5c-1.95-6.49-6.28-10.49-13-12-1.65-5.33-5.32-8-11-8-2.76-7.37-8.09-11.37-16-12-1-6.01-4.33-10.35-10-13-1.43-3.72-4.1-6.05-8-7-2.85-3.02-5.52-6.19-8-9.5-3.25-1.04-6.59-1.7-10-2-3.32-4.81-6.98-9.31-11-13.5-1.2 2.32-1.89 4.88-2 7.5 3.44 21.39-5.56 33.55-27 36.5-.46 3.67-1.46 7.17-3 10.5 12.24 10.19 14.24 22.19 6 36 .25 4.35.92 8.85 2 13.5-.62 3.72-1.45 7.39-2.5 11a77.508 77.508 0 0 1-7.5 15.5c1.21 6.71-.46 12.71-5 18 2.23 2.57 3.56 5.57 4 9-2.46 9.24-5.46 18.24-9 27 .24.87.57 1.71 1 2.5-2.08 9.01-5.08 17.68-9 26 2.81 9.56 5.31 19.23 7.5 29 3.7 4.78 4.86 10.11 3.5 16 4.78 6.73 7.78 14.23 9 22.5-.53 2.14.3 3.97 2.5 5.5.13 5.8 1.8 11.14 5 16 2.46 9.89 5.63 19.55 9.5 29l-1 1a96.022 96.022 0 0 0-20-16.5c-2.11-1.26-3.11-3.1-3-5.5-6.19-1.67-11.19-5.17-15-10.5-4.16-.14-6.16-2.3-6-6.5-2.74-.53-5.4-1.36-8-2.5a71.84 71.84 0 0 1-5-8c-6.87-.2-11.04-3.7-12.5-10.5a86.798 86.798 0 0 0-13.5-8.5c-3.2-3.54-6.7-6.7-10.5-9.5-.21-.42-.42-.83-.62-1.25l-1.26-2.5c-.2-.42-.41-.83-.62-1.25-4.57-.8-8.91-2.3-13-4.5a195.19 195.19 0 0 1-19-14c-2.93-2.26-5.1-5.1-6.5-8.5-6.66-5.65-13-11.66-19-18-3.85-6.87-7.02-14.03-9.5-21.5-3.55.09-11.42 13.47-15.67 13.67-5.15 6.69-9.65 13.86-13.5 21.5-.3-3.41-21.95-23.38-25.83-21.67-6.58-3.51 12.75-34.66 15.17-40.67 10.59-17.85 22.29-32.59 29.66-52 4.06-12.45 25.73-40.78 30.34-53 1.07-.69-13.77-21.19-12.5-21.5-5.54-7.76-35.83-55.66-37.17-57.16-2.23-5.23-36.13-66.251-36.33-69.337-5.16-3.033-37.72-61.661-39-64-4.24-11.15-22.92-41.817-29.34-52-1.86-5.513-18.6-40.563-21.5-48.666-4.33-5.199-24.45-41.607-27.66-52 .12-1.086-59.56-104.05-59.67-104.667 0 0-13.08-8.743-14.5-17-.21-3.33-.21-6.67 0-10-7.41-4.149-11.24-10.482-11.5-19-3.27-2.099-5.6-4.933-7-8.5 1.39-5.72 5.06-9.053 11-10a18.778 18.778 0 0 0 4.5-5.5c.08-4.687.91-9.187 2.5-13.5a3.904 3.904 0 0 1-1-2c1.67-4.167 3.17-8.333 4.5-12.5 3.94-4.367 7.78-8.867 11.5-13.5-1.02-1.049-1.18-2.216-.5-3.5a57.244 57.244 0 0 0 9-16c-.29-4.644-.29-9.311 0-14a50.757 50.757 0 0 0 2-11c1.52-3.036 3.62-12.298 3.5-14 4.13 2.567 45.18-158.501 43.5-160-.18-1.988-.01-3.988.5-6 4.71-11.333 8.88-23.333 12.5-36 4.27-7.78 8.77-15.446 13.5-23 3.24-1.621 5.24-4.288 6-8 2.84-1.012 4.17-3.012 4-6a8.796 8.796 0 0 0 5-1.5 69.738 69.738 0 0 1 8.5-11.5c5.95-4.58 10.45-10.246 13.5-17 4.35-.386 6.02-2.719 5-7a8.43 8.43 0 0 0 4-.5c2-3.333 4.67-6 8-8 4.6-1.38 9.1-2.88 13.5-4.5 2.41.696 4.74 1.029 7 1a48.94 48.94 0 0 0 12-3c4.32 2.215 8.82 2.548 13.5 1 5.35 2.19 10.85 2.857 16.5 2 5.58 3.449 11.58 4.449 18 3 4.36 3.124 9.19 5.29 14.5 6.5a217.165 217.165 0 0 0 18.5 16.5c12.5 16.345 24.5 33.011 36 50 10.82 17.841 18.65 35.841 23.5 54 2.67 5.483 4.34 10.983 5 16.5.56 1.676 1.56 3.009 3 4-.25 2.089-.25 4.089 0 6 .95 2.999 2.3 5.857 4 8.5-.2.576-.55 1.092-1 1.5a55.284 55.284 0 0 0 6 14.5c.04 5.488 1.37 10.821 4 16-.08.167-.17.333-.25.5l-.5 1c-.08.167-.17.333-.25.5 2.78 9.3 4.28 18.633 4.5 28 .84 2.344 2.17 4.344 4 6 .15 3.089.98 5.922 2.5 8.5-.27 3.118-.27 6.118 0 9 1.26 1.705 1.6 3.372 1 5 .17.167.33.333.5.5l1 1c.17.167.33.333.5.5-.73 2.124-1.39 4.291-2 6.5a10.663 10.663 0 0 0 2.5 3c1.73 6.701 2.73 13.367 3 20 3.42 2.394 3.92 5.061 1.5 8 1.05 1.723 1.05 3.39 0 5a14.707 14.707 0 0 0 3 3.5c-2.13 2.855-2.13 5.855 0 9-1 1.766-.67 3.433 1 5-1.43 2.267-1.1 4.267 1 6-1.45 2.394-1.12 4.561 1 6.5-1.09 3.608-1.26 7.275-.5 11 .5 1.167 1.33 2 2.5 2.5-.87 3.443-1.2 6.776-1 10 2.66 2.817 3.33 5.983 2 9.5 1.16 2.911 2.5 5.75 4 8.5-.17.25-.33.5-.5.75l-1 1.5c-.17.25-.33.5-.5.75 2.24 3.284 2.57 6.784 1 10.5.72 8.199 2.38 16.199 5 24-.08.167-.17.333-.25.5l-.5 1c-.08.167-.17.333-.25.5a152.93 152.93 0 0 1 6.5 25c.77 2.599.6 5.099-.5 7.5 1.02.519 1.68 1.353 2 2.5a47.144 47.144 0 0 0 3 11.5c-.08.083-.17.167-.25.25l-.5.5c-.08.083-.17.167-.25.25 2.39 9.133 4.73 18.3 7 27.5-.28 3.16-.28 6.34 0 9.5 2.79 3.104 3.45 6.604 2 10.5 1.03 1.2 1.86 2.534 2.5 4 4.72 21.976 8.72 44.309 12 67 4.36 5.144 4.42 12.288 3.5 18.5.17 2.17 1.17 3.837 3 5-1.54 3.123 38.32 149.087 41.5 146.75 0 0 28.5.417 28.5-.25l-8-23m0 0c-1.11-15.968-9.87-30.989-15.08-45.62-8.34-23.417-19.88-60.129-25.92-83.88-.18-.722 1.24-1.296 1-2-1.52-4.356-7.63-9.626-7-15 .17-1.481 2.27-2.534 2-4-1.96-10.698-4.97-21.212-8.5-31.5-.53-1.561-3.18-1.882-3.5-3.5-.29-1.462 1.86-2.516 2-4 .37-3.819-1-7.695-.5-11.5.09-.681 1.47-.67 2.04-.289.69.459.36 2.858.96 2.289 7.46-7.059 14.95-17.675 15.5-28.5.35-6.917-2.55-6.837-.5-13.5 1.09-3.558 3.43-6.628 4.7-10.127 8.08-22.292 5.4-23.194 16.8-43.873 1.43-2.593 5.76-2.892 7.5-5 3.36-4.08 6.47-11.926 7.5-17 .04-.185-1.45-3.026-1-3.5 8.24-8.768 18.09-15.901 26.5-24.5 1.85-1.891 2.14-5.43 4.5-7 .85-.562 4.26.721 5 .5 10.65-3.161 10.36-3.68 21.18-6.533 1.83-.482 3.46-2.278 5.32-1.967 2.68.448 4.42 3.505 7.09 4.039 2.61.521 5.33-1.704 7.91-1.039 2.29.592 3.33 3.556 5.5 4.5 9.43 4.099 19.7 6.124 29 10.5 1.17.551.5 2.595 1.18 3.697.7 1.128 1.67 2.148 2.82 2.803 3.2 1.824 7.11 2.362 10.09 4.54 4.79 3.503 2.85 4.92 6.63 9.344 2.17 2.532 6.19 3.017 8.28 5.616 1.97 2.459 1.87 6.274 4.05 8.549 2.05 2.135 5.67 2.065 7.95 3.951 1.71 1.415 2.07 3.992 3.6 5.603 1.53 1.612 4.2 2.033 5.4 3.897 2.66 4.11 5.32 16.367 6 21 .11.773-1.17-1.125-1.42-1.866-.61-1.838-.86-3.825-1.78-5.527-1.3-2.392-2.84-4.715-4.8-6.607-.34-.328-1.17.562-1 1 7.52 19.039 9.96 17.925 16 37.5.43 1.395-.43 2.957-.09 4.378.35 1.5 1.86 2.599 2.09 4.122.16 1.042-1.2 1.966-1 3 4.16 21.107 8.89 42.102 14 63 .25 1.037 1.77 1.458 2 2.5 1.47 6.693 1.86 13.583 3.02 20.337 1.17 6.75 3.21 13.356 3.98 20.163.06.57-1.36-.007-1.65.488-.53.915-.57 2.088-.47 3.143 1.62 17.529 9.06 39.862 13.06 54.267 4.01 14.458 8.44 28.799 12.39 43.271 1.36 4.972 2.37 10.031 3.55 15.048.3 1.258 1.81 5.373.12 6.783m-68-281c-.5-.302-.95-.66-1.36-1.069-.62-.615-.56-.657-1.08-1.358-.25-.339-.6-.614-.56-1.073.01-.067.1-.123.15-.131.3-.043.37.026.69.076.65.1 1.17.11 1.65.605.74.763.67 1.987.51 2.95Zm-4-7c.3.106.58.245.84.414.4.253.37.283.73.589.17.147.4.247.43.497 0 .037-.04.081-.07.094-.15.063-.22.042-.39.056-.43.033-.81.107-1.14-.23-.36-.362-.39-.947-.4-1.42Z" style="fill:#c7dbcf" transform="translate(143 -33)"/><path d="M1971.5 394.5c1.16-6.102 1.16-12.435 0-19 3.23-1.436-11.66-4.829-7-1-1.09 4.307-1.09 8.64 0 13-5.75 2.077-11.58 2.41-17.5 1a14.452 14.452 0 0 1-5.5 2.5c-4.67.667-9.33.667-14 0-4.69-2.699-9.35-5.366-14-8-3.48-3.477-6.15-7.477-8-12-13.8-4.096-19.63-13.262-17.5-27.5.73-3.694 1.57-7.361 2.5-11a94.51 94.51 0 0 0-5.5-12c-5.05-13.482-1.38-23.816 11-31 2.26-7.889 7.42-12.722 15.5-14.5 3.33-4 6.67-8 10-12 4.87-3.145 9.87-3.645 15-1.5a55.365 55.365 0 0 1 9-1.5c-8.34-14.554-6.01-27.221 7-38 10.2-3.401 20.2-7.235 30-11.5 2.15-9.481 7.15-16.981 15-22.5a91.19 91.19 0 0 1 9-2.5c5 1.975 10 2.142 15 .5 7.61-1.82 14.28-.154 20 5l15 1c5.8 1.967 9.8 5.801 12 11.5 14.63 4.419 19.63 13.919 15 28.5a14.015 14.015 0 0 1 3 4c5.28 1.659 10.61 1.493 16-.5 5.25 2.918 10.92 4.751 17 5.5.83.833 1.67 1.667 2.5 2.5-.19 4.852 1.14 9.185 4 13 3.36-4.031 7.53-5.031 12.5-3 1.08.865 1.25 1.865.5 3-4.07-2.825-7.9-2.492-11.5 1 5.25 6.833 5.25 13.667 0 20.5.33.333.67.667 1 1-1.67 1-3.33 2-5 3l7 1a300.102 300.102 0 0 1-21 10l3 1c-2.83 2.167-5.67 4.333-8.5 6.5a44.244 44.244 0 0 1-6 12 48.803 48.803 0 0 0 .5 17c1.64 1.205 1.97 2.538 1 4-3.55.516-6.88 1.516-10 3-5.83-1.484-11.49-.984-17 1.5-10.14 4.808-17.64 12.308-22.5 22.5-2.62 9.013-5.12 18.013-7.5 27 1.88 7.88 3.05 15.912 3.5 24 5.03 9.363 11.86 17.197 20.5 23.5a22.507 22.507 0 0 1-8 4l-3 3a80.17 80.17 0 0 1-15.5 3.5 455.652 455.652 0 0 0-26.5-2.5 34.799 34.799 0 0 1-6-6 64.81 64.81 0 0 0-12-3 130.477 130.477 0 0 0-14.5-12.5c-1.26-3.55-3.26-6.55-6-9-.38-6.501-1.55-12.501-3.5-18Z" style="fill:#f9c22b" transform="translate(160)"/><path d="M930.5 201.5c3.213 1.183 6.38 1.516 9.5 1 1.261.259 2.261.926 3 2 2.479-2.417 5.479-3.417 9-3 4.514.377 9.014.877 13.5 1.5a156.548 156.548 0 0 1 25 9 275.022 275.022 0 0 1 19 13c5.22 5.221 10.39 10.387 15.5 15.5.33 1.333.67 2.667 1 4a152.642 152.642 0 0 1 13.5 19c4.53-2.633 9.03-2.633 13.5 0a6.957 6.957 0 0 1 3.5-2.5c4.15-.238 8.15-.404 12-.5 2.78.559 5.12 1.892 7 4 4.76-1.79 8.43-.456 11 4 6.64-.096 11.81 2.571 15.5 8a15.45 15.45 0 0 1 2.5 7c3.1-.346 5.94.321 8.5 2 1.4 5.137 4.07 9.471 8 13 2.18 6.28 4.68 12.28 7.5 18-6.94-.35-13.77.317-20.5 2-6.43-.263-12.59-1.429-18.5-3.5a46.869 46.869 0 0 0-7-9c-4.17-.665-7.67-2.498-10.5-5.5-3.99-.235-7.49-1.569-10.5-4a898.803 898.803 0 0 1-22.5 7c-1.81 3.145-4.31 5.645-7.5 7.5-6.84 1.839-11.34-.661-13.5-7.5-1.48-7.165-3.48-14.499-6-22a284.302 284.302 0 0 0-10.5-20 4.936 4.936 0 0 1-3-.5c-14.331-12.09-30.498-19.923-48.5-23.5-3.605.972-7.438.972-11.5 0-6.728.875-13.562 2.208-20.5 4-4.616-1.087-9.283-1.087-14 0-5.664 2.34-11.33 4.674-17 7l-1-1c-20.668 8.29-36.835 21.29-48.5 39a24.548 24.548 0 0 0-3.5 10c-2 2.173-4.174 4.18-6.5 6 5.567 5.878 5.067 11.211-1.5 16-.595 1.399-.428 2.732.5 4a39.795 39.795 0 0 0-3.5 7 553.49 553.49 0 0 1-20.5-2.5c-3.139-2.664-6.639-3.164-10.5-1.5a56.21 56.21 0 0 0-2.5-7c-1.861-1.028-3.195-2.528-4-4.5-3.215-.274-5.881-1.607-8-4a61.013 61.013 0 0 1-14.5-2.5c-5.633 1.593-11.466 2.426-17.5 2.5-1.801 3.657-4.801 5.49-9 5.5-5.668 2.805-11.001 6.305-16 10.5a47.284 47.284 0 0 0-10.5 12.5 32.325 32.325 0 0 0-5.5 4c-3.071 7.811-6.904 15.145-11.5 22-.071 4.187-.738 8.187-2 12-.506 7.857-.506 15.524 0 23a115.134 115.134 0 0 0 6 14c7.57 4.853 12.403 11.52 14.5 20a133.216 133.216 0 0 1-2.5 16c-1.52 3.852-4.353 5.685-8.5 5.5-7.89 8.448-12.223 18.448-13 30 1.948 3.384 2.448 6.884 1.5 10.5 3 3.968 6.169 7.805 9.5 11.5 1.884.216 3.551.883 5 2l-9.5 7.5a315.785 315.785 0 0 0-13.5 16c-2.89-1.543-4.557-3.876-5-7a8.43 8.43 0 0 1-4-.5c-6.022-5.186-10.188-11.686-12.5-19.5-4.333-2.648-5.833-6.315-4.5-11a20.023 20.023 0 0 0-2.5-5 100.552 100.552 0 0 0 1-20 11.533 11.533 0 0 1 4.5-3.5c-1.847-2.579-2.347-5.412-1.5-8.5a236.417 236.417 0 0 1 10.5-21.5 123.877 123.877 0 0 0-4.5-9.5 42.823 42.823 0 0 0-1.5-9c-4.98-4.121-6.647-9.288-5-15.5-4.247-6.576-4.914-13.243-2-20a4.928 4.928 0 0 1-1-2.5 176.088 176.088 0 0 0 2.5-15 34.95 34.95 0 0 0 5.5-8.5 9.84 9.84 0 0 1-1-4c1.204-2.997 2.037-6.164 2.5-9.5a297.487 297.487 0 0 0 18-29 55.569 55.569 0 0 0 12.5-12.5l17-13a94.895 94.895 0 0 0 16-9c15.116-5.792 30.283-8.625 45.5-8.5a357.911 357.911 0 0 1 28.5 6.5c1.529-3.029 3.862-5.195 7-6.5 1.178-6.02 3.678-11.353 7.5-16l12.5-12.5c2.31-.897 4.644-1.731 7-2.5 1.99-3.49 4.657-6.323 8-8.5 4.554-.507 8.221-2.507 11-6a25.764 25.764 0 0 1 8-2 21.254 21.254 0 0 1 5-4 37.192 37.192 0 0 0 8-2.5 3.643 3.643 0 0 1 1.5 1c1.003-2.656 2.67-3.656 5-3a21.992 21.992 0 0 1 6.5-4.5 152.604 152.604 0 0 1 29-7.5c3.955-.14 7.788.193 11.5 1a19.653 19.653 0 0 0 3.5-2Z" style="fill:#f69616" transform="translate(160)"/><path d="M1971.5 394.5c-.06.543-.39.876-1 1a34.706 34.706 0 0 0-6-5.5c1.1-.77 1.1-1.603 0-2.5-1.09-4.36-1.09-8.693 0-13a76.987 76.987 0 0 1-12.5-13c-5.41-8.141-7.41-17.141-6-27 5.6-14.34 14.1-26.84 25.5-37.5 14.86-4.747 29.86-5.747 45-3 3.14 2.904 6.81 4.738 11 5.5a4.947 4.947 0 0 1 .5-3c12.06-13.467 26.23-16.967 42.5-10.5 10.03 7.237 13.03 16.403 9 27.5-.44-3.962-1.61-7.629-3.5-11-3.78-3.779-7.61-7.613-11.5-11.5a18.028 18.028 0 0 0-6.5-2.5 47.518 47.518 0 0 0-13.5 5.5c-8.88 4.919-13.88 12.419-15 22.5-2.14.69-4.16 1.702-6 3-1.55-3.59-3.21-7.257-5-11-4.8-2.971-9.47-6.138-14-9.5-9.31-.757-18.31.576-27 4-2.14 2.574-4.81 4.407-8 5.5-5.88 5.792-10.22 12.459-13 20-2.61 6.788-3.44 13.788-2.5 21 3.5 5.186 7 10.352 10.5 15.5 5.4.56 10.9 1.06 16.5 1.5 1.51 1.798 1.67 3.632.5 5.5a65.148 65.148 0 0 0-10 3.5c1.16 6.565 1.16 12.898 0 19Z" style="fill:#fff7eb" transform="translate(160)"/><path d="M2296.51 329.483c.81-1.481 2.15-2.142 3.99-1.983 1.84-.159 3.18.502 3.99 1.983l.01.017c3.6 3.098 7.6 5.598 12 7.5 3.9 3.729 7.56 7.562 11 11.5a25.83 25.83 0 0 0 6 6c1.15 4.308 1.15 8.641 0 13 3.78-.223 7.5-1.068 11-2.5a60.708 60.708 0 0 0 15-10c2.31-.497 4.64-.663 7-.5-.23-2.433.77-4.099 3-5l.01-.03c.57-1.273 1.56-2.096 2.99-2.47 3.31-.057 6.31-.89 9-2.5l.06-.05c5.48-4.226 11.63-5.876 18.44-4.95 3.1-2.242 6.27-2.409 9.5-.5l24 1a355.036 355.036 0 0 1 36 18.5 58.88 58.88 0 0 0 7 10.5c-.33.167-.67.333-1 .5a132.697 132.697 0 0 1-8-8.5 51.274 51.274 0 0 0-11-3c-14.27-2.834-27.27-.168-39 8-1.32.816-1.99 1.983-2 3.5-1.3 1.642-2.64 3.309-4 5-1.52.011-2.68.677-3.5 2a55.387 55.387 0 0 1-3 10c-3.05 1.55-5.22 3.883-6.5 7-1.62.538-3.3.874-5 1 .18 3.695-.16 7.398-1 11-1.3 1.642-2.64 3.309-4 5-1.87.359-3.37 1.359-4.5 3a60.588 60.588 0 0 1-5 9c-13.16 12.846-28.66 17.346-46.5 13.5-2.54-.381-4.87-1.214-7-2.5a87.168 87.168 0 0 0-11 6.5 38.174 38.174 0 0 1-15 1c-3.37-2.078-7.04-2.911-11-2.5.19 6.369-.31 12.74-1.5 19-5.37 7.369-12.2 12.869-20.5 16.5-11.91 6.262-24.24 7.095-37 2.5-4.54-2.1-8.87-4.433-13-7l-5-2c-2.03-5.219-50.49-8.655-40-5.5 8.46 3.026 16.96 3.193 25.5.5 2.33.322 3.49 1.656 3.5 4-1.5 10.332-7.5 16.165-18 17.5-10.45.114-20.79-.219-31-1-3.37-.521-6.37-1.854-9-4-14.52 2.505-25.69-2.328-33.5-14.5-2.2-4.876-2.86-9.876-2-15-4-4.151-6.17-9.151-6.5-15-6.82 2.084-12.48.417-17-5-6.28-.385-10.78-3.385-13.5-9-.67 1.333-1.33 1.333-2 0a15.944 15.944 0 0 1-1.5-3.5c.67-.667 1.33-1.333 2-2-2.44-5.051-5.29-9.9-8.5-14.5a53.768 53.768 0 0 0-2.5-14 68.817 68.817 0 0 0 3.5-13 30.53 30.53 0 0 0 6-12c3.56-4.023 8.06-6.189 13.5-6.5 4.77-7.369 11.44-10.036 20-8 3.54 2.366 7.2 4.533 11 6.5 5.9-3.324 6.4-7.324 1.5-12-2-5-2-10 0-15a202.262 202.262 0 0 1 19.5-27.5 60.974 60.974 0 0 1 12.5-5.5c3.34.458 6.84.458 10.5 0 8.86-.869 16.52 1.631 23 7.5a8.43 8.43 0 0 0 4 .5v-6c-3.36-.198-5.19-1.865-5.5-5 2.58 1.847 5.41 2.347 8.5 1.5 9.69-5.847 20.02-10.013 31-12.5 11.04 1.173 21.38 4.339 31 9.5a15.73 15.73 0 0 1 3.5 5.5c4.08 2.244 7.24 5.244 9.5 9-.51 2.012-.68 4.012-.5 6a31.19 31.19 0 0 1 4.5 5 68.631 68.631 0 0 1 3 7l.01.029c.96 2.44 1.3 5.097.99 7.971 3.21-.31 6.21.023 9 1l.62-.124c3.12-.619 6.25-1.244 9.38-1.876 2.99.466 5.99.799 9 1l.01-.017Zm73.82 19.692c-.08.029-.16.058-.23.087-.08.029-.15.059-.23.089l.46-.176Zm1.67-.586-.09.027a.738.738 0 0 1-.08.027l.17-.054Zm.98-.301.12-.032-.07.019-.06.017-.08.025-.11.031-.05.016-.06.016-.04.013c-.06.017-.12.035-.17.052l-.16.048-.06.019a.804.804 0 0 1-.08.024l.13-.039.06-.017.05-.018.06-.017.05-.017.06-.018.07-.019.12-.036.05-.017.06-.016.06-.017.05-.017Zm.27-.076-.07.02.09-.024c.13-.037.26-.072.39-.107-.14.036-.27.073-.41.111Zm1.09-.285.13-.031-.13.031Zm2.02-.431-.3.056-.3.058c.2-.04.4-.078.6-.114Zm.36-.063-.05.008a.327.327 0 0 1-.05.008l.1-.016Zm.44-.072-.09.014.09-.014c.17-.027.35-.054.52-.078l-.52.078Zm1.66-.221-.2.022-.2.024c.13-.016.27-.032.4-.046Zm1.25-.112-.17.012.16-.011.09-.006-.08.005Zm.72-.317-.09.094a7.896 7.896 0 0 1 .09-.094Zm.2-.245-.03.029.03-.029Zm.12-.18.01-.017-.03.036-.01.024c0 .004-.01.008-.01.011l.02-.029.02-.025Zm.05-.087c0-.013.01-.027.02-.041l-.02.041Zm.04-.087-.01.027c.01-.009.01-.018.01-.027Zm.1-.202-.01.025c0-.008.01-.016.01-.025Zm.06-.156c-.01.019-.01.039-.02.058a.134.134 0 0 0-.02.058c.01-.039.03-.077.04-.116Zm.07-.23v-.013l-.01.045-.01.044-.01.026v.011l-.01.028-.02.051v.018l.01-.03v-.026l.01-.027.01-.03.01-.028.01-.041.01-.028Zm.05-.278v.045c-.01.014-.01.029-.01.044 0-.029.01-.059.01-.089Zm.02-.159v.058c-.01.019-.01.038-.01.057 0-.038.01-.076.01-.115Zm.01-.088v.046l-.01.02.01-.022v-.044Zm0-.022v-.066.066Zm0-.238v.036-.036Zm-114.5-13.836-.6.037.6-.037Zm.75-.045-.32.019.32-.019Zm.61-.034-.29.016.2-.011.09-.005Zm1.49-.078-.28.014.19-.009.09-.005Zm1.1-.05.12-.005-.12.005Zm-5.23-.062c-.01.011-.01.022-.02.033l-.02.028.06-.095-.02.034Zm6.38.014-.28.011.09-.003.19-.008Zm1.7-.06.09-.003-.71.024.62-.021Zm1.98-.054-.19.004.1-.002.09-.002Zm.74-.016-.27.005.1-.002.17-.003Zm.35-.007-.13.002.13-.002Zm-10.84-.417c-.01.029-.03.057-.04.086.01-.029.03-.057.04-.086Zm.2-.375c0 .013-.01.027-.02.04.01-.024.03-.049.04-.074l-.02.034Zm30.45-.311a10.079 10.079 0 0 0-.03.015l.03-.015Zm-30.28-.034c0 .012-.01.023-.02.035.01-.012.02-.023.02-.035Zm37.59-.108.03.013.03.014.03.012-.09-.039Zm-6.84-.069c-.04.018-.08.036-.13.055l.03-.013c.04-.015.07-.029.1-.042Zm-30.65-.031-.02.035-.01.035.03-.07Zm37.27.007.03.013-.03-.013Zm-6.4-.063Zm6.15-.036.06.024-.03-.012-.06-.023.03.011Zm-5.72-.122Zm-31.12-.206c-.01.012-.01.024-.01.035l-.02.034a.429.429 0 0 0 .04-.104l-.01.035Zm31.73.024-.04.011.04-.011Zm4.15-.002a.377.377 0 0 1-.04-.01l.04.01Zm-3.97-.041.03-.007-.08.018a.73.73 0 0 1 .05-.011Zm2.95-.158Zm-2.08-.002-.02.003.02-.003.03-.004-.03.004Zm1.87-.022.03.003.13.015c-.05-.007-.1-.013-.16-.018Zm-1.59-.01a2.75 2.75 0 0 0-.09.01l.03-.004.05-.004.01-.002Zm1.41-.008.04.004-.04-.004Zm-1.21-.008h.01-.01Zm1.08-.001-.02-.001.02.001Zm-1.03-.002.03-.002-.03.002Zm.95-.003.02.001a.23.23 0 0 1-.02-.001Zm-.87-.002-.03.002.03-.002Zm.7-.006.03.001-.03-.001Zm-.49-.002-.06.002.06-.002Zm.42 0h-.01.01Zm-.35-.002-.06.002.04-.001.02-.001Zm.11-.001h.01l-.07.001.06-.001Zm-33.64-.107-.02.043.03-.079-.01.036Zm.27-.788-.01.036-.01.033c0-.023.01-.046.02-.069Zm.39-1.697c-.01.093-.03.186-.05.279.02-.093.04-.186.05-.279Zm.1-.721-.06.485.06-.485Zm.05-.696c.01-.024.01-.049.01-.074v.039l-.01.035Zm.02-.66v.04-.04Zm0-.244v.111-.111Zm-.01-.598c0 .135.01.269.01.403 0-.134-.01-.268-.01-.403Zm-.01-.208c-.01-.02-.01-.041-.01-.062v.04l.01.022Zm-.07-.749.03.279-.03-.279Zm-.05-.423v.035-.035Zm-1.96 9.292-.02.033.06-.095a.217.217 0 0 1-.04.062Zm4.77-.177-.19.009.1-.004.09-.005Zm-4.54-.191-.02.034.06-.101c-.01.022-.03.045-.04.067Zm.52-.951c.01-.012.01-.024.02-.035l-.02.035c-.01.011-.01.022-.02.034l.02-.034Zm30.5-.232a1.64 1.64 0 0 1-.03.014l.03-.014Zm-30.25-.299-.02.045c.01-.015.01-.03.02-.045Zm31.32-.12.03-.01.03-.01-.09.03.03-.01Zm.47-.14c-.13.033-.25.07-.38.11l.03-.01c.12-.036.23-.069.35-.1Zm.34-.085.03-.007-.03.007a.325.325 0 0 0-.03.007l.03-.007Zm.09-.021.18-.037a7.84 7.84 0 0 0-.21.044l.03-.007Zm.99-.151.03-.003-.03.003Zm1.28-.015.03.002-.03-.002Zm-.93-.01-.03.002.03-.002Zm.05-.002-.03.001.03-.001Zm-33.05-.975-.01.036a1.31 1.31 0 0 0 .01-.036Zm.17-.608-.01.024-.01.037c.01-.02.01-.041.02-.061Zm.22-1.092-.01.038c.01-.047.01-.094.02-.141-.01.035-.01.069-.01.103Zm.12-1.105-.03.384v-.038l.03-.385v.039Zm.03-.465-.01.039c.01-.028.01-.056.01-.085v.046Zm-.11-2.416v.063-.063Z" style="fill:#f69618" transform="translate(160)"/><path d="M2213.5 357.5c-3.9-1.989-7.9-2.323-12-1-12.42 1.067-23.26 5.734-32.5 14-5.26 6.898-6.76 14.565-4.5 23a16.565 16.565 0 0 1 6 5c-.33.667-.67 1.333-1 2-5.38.656-10.71 1.489-16 2.5a17.775 17.775 0 0 0-5.5 4.5c-1.55 4.882-1.89 9.882-1 15 7.95 28.544 26.12 39.377 54.5 32.5 4.64 3.115 7.97 7.281 10 12.5-.38 1.793-1.55 2.793-3.5 3a53.084 53.084 0 0 1-7.5-4c-.01-2.344-1.17-3.678-3.5-4-8.54 2.693-17.04 2.526-25.5-.5-10.49-3.155-18.66-9.321-24.5-18.5-1.03-5.439-3.03-10.439-6-15-.98-4.812-1.81-9.645-2.5-14.5 1.79-4.996 3.96-9.829 6.5-14.5 1.9-1.516 4.06-2.183 6.5-2v-3c2.33.253 4.33-.414 6-2-1.09-3.608-1.26-7.275-.5-11 1.74-6.3 4.57-12.133 8.5-17.5 18.05-14.075 38.05-17.742 60-11 12.13 7.742 18.46 18.909 19 33.5 8.25 5.081 11.75 12.414 10.5 22a77.114 77.114 0 0 1-7 20c-14.62 15.244-32.12 20.411-52.5 15.5-5.06-4.668-7.73-10.502-8-17.5-.19-13.637 6.48-19.137 20-16.5 2.55 2.398 2.55 4.731 0 7-3.89-1.042-7.39-.208-10.5 2.5-2.6 6.529-1.77 12.529 2.5 18 13.08 2.052 25.08-.615 36-8 1.25-2.549 3.25-3.882 6-4 2.67-6.495 4.67-13.328 6-20.5a55.64 55.64 0 0 1-1.5-6.5 36.864 36.864 0 0 1-9.5-7.5 175.315 175.315 0 0 1-1.5-16.5 23.092 23.092 0 0 0-2-5c-5.18-6.173-11.68-10.173-19.5-12Z" style="fill:#fff4ea" transform="translate(160)"/><path d="M842.5 404.5c8.833.127 17.667.127 26.5 0a25.9 25.9 0 0 1 6.5 5.5c1.813-.046 3.479.12 5 .5 2.651 6.698 2.484 13.365-.5 20a4.928 4.928 0 0 1-2.5 1c-4.093-1.524-7.427-4.024-10-7.5a26.798 26.798 0 0 1-7.5-3.5c-1.865 2.173-4.031 2.507-6.5 1-5.1.752-10.1 1.919-15 3.5-3.181 4.369-7.015 8.203-11.5 11.5-.26 2.118-1.26 3.784-3 5l-1 6a20.509 20.509 0 0 0-4.5 2.5c-1.941.743-3.774.576-5.5-.5-.163 2.176-.996 4.009-2.5 5.5a18.05 18.05 0 0 1 2 3.5c.06 4.847.06 9.681 0 14.5 3.548 5.274 5.881 11.107 7 17.5a582.967 582.967 0 0 1 17 12.5c5.829.05 10.662 2.217 14.5 6.5 3.28-3.629 6.946-3.962 11-1 3.201-3.509 6.701-3.842 10.5-1-4.681 11.507-11.514 21.507-20.5 30a421.77 421.77 0 0 1-19.5-2.5 65.103 65.103 0 0 0-11-5l-4-5c-6.021.311-9.188-2.523-9.5-8.5-1.8-1.817-3.966-2.984-6.5-3.5a77.983 77.983 0 0 0-9.5-11.5c-1.661-2.937-2.161-5.937-1.5-9a25.513 25.513 0 0 1-4.5-4c-1.181-4.633-2.681-9.466-4.5-14.5.066-3.133.066-6.3 0-9.5a41.714 41.714 0 0 0 2.5-13 26.49 26.49 0 0 0 4.5-7.5c-1.017-2.787-1.184-5.62-.5-8.5a53.711 53.711 0 0 1 7-12 65.322 65.322 0 0 0 14.5-12.5c1.941-.743 3.774-.576 5.5.5 2.861-4.355 6.694-5.689 11.5-4 2.182-.197 4.182-.864 6-2 1.529.029 2.696.696 3.5 2 2.045-1.426 4.212-2.426 6.5-3ZM530.5 448.5c3.286-.215 6.619.452 10 2 4.321-.691 8.488-.025 12.5 2 .87-.234 1.709-.57 2.5-1 19.832 6.664 37.999 16.331 54.5 29 2.064-1.091 4.231-1.258 6.5-.5a26.49 26.49 0 0 1 7.5 4.5l5-2a39.552 39.552 0 0 1 6.5 4c3.782-2.404 7.782-3.904 12-4.5a39.79 39.79 0 0 0-10.5 8.5c-1.805 3.741-2.972 7.574-3.5 11.5a20.508 20.508 0 0 1-8 3c-3.932 4.13-8.432 4.63-13.5 1.5-3.528 1.166-7.028.999-10.5-.5-4.187-3.172-8.853-5.172-14-6a14.504 14.504 0 0 1-4-5c-2.776-.066-4.942-1.232-6.5-3.5-2.771-2.695-4.938-5.862-6.5-9.5l-5-1c-20.974-22.241-46.308-29.908-76-23a89.43 89.43 0 0 0-19 11c-2.076 1.884-2.41 4.051-1 6.5 9.398 1.043 19.065 2.877 29 5.5l3 3a43.073 43.073 0 0 1 9 2 216.665 216.665 0 0 1 29 18c1.702 2.235 2.702 4.735 3 7.5a32.462 32.462 0 0 1 8 .5 46.92 46.92 0 0 0 8 4.5c2.333 3 5 5.667 8 8 6.959-.598 13.625.735 20 4 6.737-1.643 13.737-2.143 21-1.5a46.914 46.914 0 0 0 14 5c1.625.853 1.958 1.853 1 3l-18 12a46.441 46.441 0 0 0-6.5 9.5c-3.875 2.72-7.209 2.054-10-2-2.979 2.154-6.313 3.487-10 4a240.381 240.381 0 0 1-13.5-2.5l-5-5c-6.667 0-12-2.667-16-8-9.475-3.76-17.142-9.927-23-18.5-4.225-.281-7.892-1.781-11-4.5-1.361-1.584-2.028-3.418-2-5.5a18.451 18.451 0 0 1-6-.5 82.429 82.429 0 0 1-18.5-14.5c-5.311 1.867-9.811.7-13.5-3.5a174.318 174.318 0 0 0-32.5-5.5c-18.879 2.84-36.712 8.673-53.5 17.5 3.231 1.278 6.565 1.112 10-.5 4.773.258 9.606.258 14.5 0 4.182.634 8.349 1.301 12.5 2l2-1c3.847 1.031 7.014 3.031 9.5 6 2.05-1.291 4.217-1.791 6.5-1.5 3.725 3.41 8.059 5.41 13 6 2.623 2.158 5.623 3.658 9 4.5 3.726 2.214 7.059 5.047 10 8.5 3.903 1.275 7.237 3.275 10 6a28.86 28.86 0 0 1 4 6 20.62 20.62 0 0 1 6 2 79.036 79.036 0 0 0 13 8c2.107 1.264 3.107 3.097 3 5.5 4.263-.401 8.597.099 13 1.5 2.348.346 4.181 1.513 5.5 3.5 1.388-1.054 2.888-1.22 4.5-.5a71.29 71.29 0 0 0 8.5 4.5l1 4a102.653 102.653 0 0 1 6.5 7c-2.204 5.704-6.204 9.537-12 11.5a83.587 83.587 0 0 1-24-1c-2.947-3.014-6.613-4.348-11-4-2.825-3.485-6.491-5.152-11-5-1.877-2.106-4.21-3.439-7-4-2.282-2.397-3.616-5.231-4-8.5a32.462 32.462 0 0 1-8-.5c-7.835-7.192-16.168-13.525-25-19-3.106-4.544-7.439-7.211-13-8l-3-3c-6.623-.004-12.957-1.171-19-3.5a280.9 280.9 0 0 0-31.5 1c-2.693.14-4.86-.86-6.5-3a25.513 25.513 0 0 1-4 4.5 262.974 262.974 0 0 0-29 9 405.983 405.983 0 0 1-20 13.5 375.527 375.527 0 0 0-13.5 21 748.77 748.77 0 0 0-6 21c.893-1.211 1.726-1.211 2.5 0l-5 6a100.268 100.268 0 0 1-2-5.5l1-1c-2.982-4.213-4.982-8.879-6-14-.325-11.695 2.175-22.862 7.5-33.5 1.11-1.537 2.61-2.203 4.5-2 .378-4.58 2.378-8.413 6-11.5l8-6c5.728-1.52 10.394-4.52 14-9a50.297 50.297 0 0 1 18-6c3.397-3.052 7.397-4.719 12-5 13.241-11.199 28.241-19.199 45-24 13.117-7.084 26.784-12.084 41-15 13.042-11.11 27.876-17.944 44.5-20.5 9.897-2.654 19.897-3.654 30-3a39.735 39.735 0 0 1 11.5-3Zm-54 14c-2.341 2.329-5.008 4.329-8 6-1.671 2.01-2.338 4.343-2 7-4.977-1.606-9.811-1.273-14.5 1-1.257-.35-1.591-1.017-1-2 7.983-5.243 16.483-9.243 25.5-12Z" style="fill:#f69616" transform="translate(160)"/><path d="M651.5 740.5c.803-.923-20.808-1.974-17 0 .886.825 1.219 1.825 1 3h4c-7.417 8.472-16.75 12.472-28 12a848.598 848.598 0 0 1-22-4.5c-1.55-2.525-3.717-4.359-6.5-5.5-1.202-2.177-1.702-4.511-1.5-7-6.316 1.184-11.649-.483-16-5-7.959 1.017-15.626-.15-23-3.5-2.98-1.634-5.98-3.3-9-5a97.135 97.135 0 0 0-15.5-17.5 43.79 43.79 0 0 1-5.5-13c.268-4.27.434-8.604.5-13 2.257-4.353 3.59-9.02 4-14 1.685-3.084 4.185-5.084 7.5-6 1.977-8.474 7.31-13.308 16-14.5 3.778-2.123 4.778-5.123 3-9 4.532-12.87 11.198-24.537 20-35a121.318 121.318 0 0 0 13-7 190.75 190.75 0 0 0 13.5-2.5l4 2a95.627 95.627 0 0 1 10.5-.5 7.246 7.246 0 0 0 2-2.5c-1.875-5.759-.209-10.259 5-13.5 6.553-16.884 18.553-27.884 36-33a284.646 284.646 0 0 1 20.5-2.5c7.016 2.012 14.016 4.012 21 6 2.552-2.859 5.719-4.526 9.5-5-.223-5.1 2.111-8.1 7-9 .089-3.439 1.422-6.272 4-8.5 10.612-5.654 21.945-8.82 34-9.5a513.96 513.96 0 0 1 37 5.5c2.287 2.659 4.954 3.825 8 3.5 9.256 5.372 17.422 12.039 24.5 20 4.962 7.393 7.795 15.393 8.5 24-2.263 2.943-2.263 5.776 0 8.5 4.527-.214 9.036-.715 13.5-1.5 6.356.935 12.189 3.102 17.5 6.5a149.311 149.311 0 0 1 10 10.5l9-3.5a240.21 240.21 0 0 0 26.5-5.5c3.584.625 6.584 2.292 9 5 7.803-3.903 13.97-2.236 18.5 5 2.603-1.062 5.27-1.228 8-.5 5.833 2.5 10 6.667 12.5 12.5a95.072 95.072 0 0 0 11 9 90.385 90.385 0 0 0 4 13c.728 2.73.562 5.397-.5 8 2.695 3.026 5.362 6.026 8 9 9.332-5.955 17.165-4.288 23.5 5a108.19 108.19 0 0 1 12 21c.67 3.333.67 6.667 0 10a51.853 51.853 0 0 0-7 16c-3.755 4.795-8.588 7.962-14.5 9.5-6.536 13.177-16.703 17.01-30.5 11.5-1.825.603-3.659 1.27-5.5 2a314.31 314.31 0 0 0-12 17.5 181.368 181.368 0 0 1-29 16c-2.73.728-5.397.562-8-.5-2.739 1.621-5.739 2.621-9 3-5.669-.469-11.336-.969-17-1.5-4.788.075-8.788-1.592-12-5-4.331-.331-8.164-1.831-11.5-4.5-1.77 11.73-6.936 21.564-15.5 29.5a4.939 4.939 0 0 1-3 .5 4.939 4.939 0 0 1-.5 3c-2.576.961-4.743 2.461-6.5 4.5a252.915 252.915 0 0 1-27 7.5c-7.949-.472-15.949-1.638-24-3.5a206.556 206.556 0 0 1-20.5-11.5 29.402 29.402 0 0 1-10.5 2.5c-4.376 6.044-9.71 11.044-16 15-5.246 1.506-10.579 1.839-16 1a90.398 90.398 0 0 0-16-4c-6.613-5.456-14.279-7.789-23-7-8.677-2.679-13.843-8.512-15.5-17.5a62.776 62.776 0 0 1 .5-18 439.554 439.554 0 0 0-3-8Z" style="fill:#f9c22b" transform="translate(160)"/><path d="M2399.5 622.5c1.68 2.04 3.34 4.04 5 6 2.2 1.762 3.37 4.096 3.5 7 2.97 3.511 6.14 3.845 9.5 1 3.51-.399 6.84-1.066 10-2 11.32.69 22.65 1.19 34 1.5a13.28 13.28 0 0 1 3 5c2.4.795 4.57 1.962 6.5 3.5.26 2.118 1.26 3.784 3 5 2.08 8.314.25 15.48-5.5 21.5-8.39 4.844-17.39 6.677-27 5.5a61.51 61.51 0 0 1-10.5 3 15.273 15.273 0 0 1-6-2c-8.83 1.443-17.66 2.776-26.5 4-12.69-.207-25.36-.207-38 0l-3-2c-5.74.731-11.41.731-17 0a25.898 25.898 0 0 0-8.5 3c-6.63-2.832-12.96-2.499-19 1-1.71-.008-3.21-.342-4.5-1-.81-1.493-2.15-2.16-4-2-1.23.02-2.23.353-3 1-3.41 2.631-6.75 2.631-10 0-3.44-.306-7.11-.306-11 0-4.67 1.157-9.33 1.324-14 .5-3.2 2.598-6.87 4.098-11 4.5a43.186 43.186 0 0 0-2 8c-.33 5.495 2 9.328 7 11.5 16.87.78 33.7.28 50.5-1.5l7.5.5c3.44.939 6.77 2.106 10 3.5.43 2.51 1.09 4.843 2 7a25.83 25.83 0 0 0 6 6c2.89 5.135 2.22 9.802-2 14a49.853 49.853 0 0 1-12 3.5c-.9 3.138-2.57 5.805-5 8-4.39.017-8.56.85-12.5 2.5-11.5-.051-23-.051-34.5 0a59.533 59.533 0 0 0-14-1c-2.38.057-4.72-.277-7-1-1.21.247-1.88.914-2 2-3.5-.364-7-.697-10.5-1-3.04-.135-5.88.531-8.5 2-2.25-1.526-4.75-2.526-7.5-3-8.97.764-17.97 1.098-27 1-3.37-.874-6.7-1.874-10-3-1.57 1.348-3.41 2.014-5.5 2a69.692 69.692 0 0 0-15-2.5 376.195 376.195 0 0 1-12.5-11.5c-.71-2.399-.54-4.732.5-7a47.045 47.045 0 0 1-5-6.5c3.03-6.024 7.69-10.358 14-13 2.87-1.276 5.7-1.443 8.5-.5 3.63-2.682 7.3-3.016 11-1 .8-1.304 1.97-1.971 3.5-2 5.36 1.566 10.69 2.233 16 2 6.59-3.441 13.26-3.774 20-1 1.53-.14 2.53-.807 3-2 3.58-2.402 4.75-5.735 3.5-10-.71-.881-1.54-1.547-2.5-2-.45-.958-1.12-1.792-2-2.5a491.432 491.432 0 0 0-13-4.5c-4.32 1.252-8.66 1.252-13 0-2.54.52-5.04 1.187-7.5 2-7.92-3.074-16.08-3.408-24.5-1a36.7 36.7 0 0 0-5.5-1c-5.57 1.987-11.24 2.653-17 2-5.49-1.811-10.99-3.645-16.5-5.5a14.371 14.371 0 0 1-2.5-5.5c-1.5-.75-2.86-1.766-4-3-.67-3-.67-6 0-9 1.32-4.6 2.32-9.266 3-14 7.95-4.315 16.45-6.815 25.5-7.5a446.337 446.337 0 0 1 40-2c1.32 2.709 2.99 3.042 5 1 3.65-.499 7.32-.665 11-.5.11.617.44 1.117 1 1.5a335.77 335.77 0 0 0 58.5-.5c3.36.508 6.7 1.174 10 2 7.47-1.79 14.97-2.124 22.5-1 4.5.876 8.83.876 13 0 1.45-1.44 3.28-2.107 5.5-2 5.16 1.475 10.33 1.809 15.5 1 2.14.904 4.47 1.571 7 2 .92-.043 1.58-.376 2-1a8.43 8.43 0 0 0 4-.5 29.727 29.727 0 0 1 5-8l6-1c1.17-2.5 3-4.333 5.5-5.5 1.53-4.217 1.03-8.217-1.5-12v-4h-23c-6.01.166-12.01-.001-18-.5l-3-3c-11.11 2.05-16.95-2.45-17.5-13.5-2.24-1.809-3.4-4.142-3.5-7-.11-3.115.89-5.781 3-8 2.33-1.596 5-2.762 8-3.5 1.99-3.166 4.65-5.333 8-6.5 2.67-.433 5.33-.933 8-1.5.56-.383.89-.883 1-1.5 8.52-1.084 17.02-.75 25.5 1 12.6-2.234 25.27-2.9 38-2 19.53-.636 39.03-1.303 58.5-2 33.47.194 67.14.36 101 .5 18.71 3.865 25.04 15.031 19 33.5a390.62 390.62 0 0 0-9 6 6.866 6.866 0 0 1-4-2c-5.55 4.825-11.39 5.158-17.5 1-6.51 4.327-12.68 3.993-18.5-1-2.45 2.487-5.45 3.821-9 4-9.82-.235-19.65-.235-29.5 0l-6.5-.5c-1.28-1.786-2.94-2.952-5-3.5-6.4 3.874-13.4 5.04-21 3.5-1.16-.827-2.33-1.66-3.5-2.5-6.88 3.931-14.22 4.931-22 3a66.552 66.552 0 0 0-9.5 2c-3.75 4.49-6.75 9.49-9 15 .46.798 1.12 1.131 2 1Z" style="fill:#f8c22c" transform="translate(160)"/><path d="M651.5 740.5c-3.558 2.468-7.558 3.468-12 3h-4c.219-1.175-.114-2.175-1-3-3.808-1.974-6.808-4.808-9-8.5-5.385.313-7.385-2.187-6-7.5-2.222.322-4.056-.345-5.5-2a42.982 42.982 0 0 1-4.5-13c-2.445-10.106.055-18.773 7.5-26l1-5 11.5-9.5c3.59.087 6.59-1.08 9-3.5 2.303 1.029 4.636 1.029 7 0 .06.543.393.876 1 1 .795-3.978 1.462-7.98 2-12 .617-.111 1.117-.444 1.5-1 .031-4.304 1.031-8.304 3-12 2.933-2.264 5.1-5.098 6.5-8.5 1.525-1.009 3.192-1.509 5-1.5-.107-2.403.893-4.236 3-5.5a94.365 94.365 0 0 0 16-9 98.134 98.134 0 0 0 9-1.5c1.054.18 2.054.513 3 1 5.715-2.273 11.715-3.606 18-4 1.905.565 3.571 1.565 5 3 1.188-1.34 2.688-2.007 4.5-2 13.947 1.142 24.947 7.475 33 19a29.924 29.924 0 0 1 2 9 13.92 13.92 0 0 0 4 3 160.348 160.348 0 0 0 3 21c5.835-.254 9.502 2.413 11 8 6.226 4.128 10.226 9.794 12 17l3 3c4.834 15.068 2.167 28.402-8 40-12.881 8.248-26.714 14.415-41.5 18.5a90.455 90.455 0 0 1-19 0 48.878 48.878 0 0 0-17-6.5v-3c-4.091-1.198-7.924-3.198-11.5-6-4.045-6.259-6.545-13.093-7.5-20.5 5.13-17.748 14.297-20.248 27.5-7.5.743 1.941.576 3.774-.5 5.5-3.899.406-6.899 2.239-9 5.5 1.915 1.571 2.915 3.571 3 6a176.365 176.365 0 0 0 16 7.5c3.528.28 7.035.781 10.5 1.5a236.436 236.436 0 0 0 13.5-4.5c2.068-.687 4.068-.52 6 .5 1.611-.82 2.278-2.154 2-4a8.43 8.43 0 0 0 4-.5 59.591 59.591 0 0 1 9-5c4.702-4.023 7.702-9.023 9-15a63.19 63.19 0 0 1-3-9.5c-1.89.203-3.39-.463-4.5-2-1.396-7.147-5.396-12.147-12-15a80.727 80.727 0 0 0-11.5 10 92.193 92.193 0 0 1-4-16 318.313 318.313 0 0 1 4-17c-.987-4.651-1.987-9.317-3-14a4.939 4.939 0 0 1-3-.5l-5-5.5c-13.662-7.409-27.995-8.909-43-4.5-2.992 2.11-6.325 3.443-10 4-5.604 3.932-10.104 8.766-13.5 14.5a202.55 202.55 0 0 1-4.5 18.5c.766 8.7-.401 17.2-3.5 25.5a40.682 40.682 0 0 0-12.5-6.5 27.74 27.74 0 0 0-6-7.5c-19.828 9.613-22.994 22.946-9.5 40a14.438 14.438 0 0 0 2.5 5.5l8 1c1.361 1.584 2.028 3.418 2 5.5a4.939 4.939 0 0 1 3 .5 12.149 12.149 0 0 0 3.5 4.5c.47 1.077.303 2.077-.5 3Z" style="fill:#fff8ef" transform="translate(160)"/><path d="M2867.5 774.5a41.832 41.832 0 0 1 8.5 9c7.87-3.02 15.37-2.187 22.5 2.5a138.91 138.91 0 0 1 12.5 15.5 633.179 633.179 0 0 0 22.5-9c3.16.54 6.16 1.54 9 3 11.72-2.299 20.05 2.035 25 13 23.03 3.512 31.87 16.512 26.5 39a191.715 191.715 0 0 1-11.5 14c-.81 16.643-9.47 24.809-26 24.5-9.98 9.909-21.31 12.075-34 6.5a37.21 37.21 0 0 0-3-11c.49-.946.82-1.946 1-3-2.49-6.469-15.32-7.834-14.5-4 3.73 3.209 5.89 7.209 6.5 12 .02 4.221-.81 8.554-2.5 13-2.96 4.929-5.79 9.93-8.5 15-3.08.582-5.08 2.415-6 5.5-2.12.26-3.78 1.26-5 3-17.19 4.88-34.86 7.38-53 7.5-2.77-1.385-5.77-2.052-9-2-2.14.056-3.81.723-5 2-3 2.333-5.67 5-8 8a147.538 147.538 0 0 0-9 3.5c-3.36 4.006-7.7 6.339-13 7-6.31-.093-12.64-.426-19-1a183.589 183.589 0 0 0-25-5c-3.82-2.324-6.82-5.491-9-9.5-3.34-.979-6.67-1.979-10-3a25.639 25.639 0 0 0-6-6 62.554 62.554 0 0 1-3.5-17c-.83-1-1.67-2-2.5-3-3.81 5.64-7.81 11.14-12 16.5-3.03 1.177-5.7 2.843-8 5-8 .676-15 3.509-21 8.5-.67 0-1 .333-1 1h-1c-4.67.166-9.35-.001-14-.5-3.12-2.431-6.45-3.265-10-2.5a105.202 105.202 0 0 1-10 6.5 38.174 38.174 0 0 1-15 1c-3.79-.793-6.79-2.793-9-6l-13-1a8.907 8.907 0 0 1-4-3c-9.27-.666-16.61-4.666-22-12a4.934 4.934 0 0 0-3-.5c-.33-3.521-1.83-6.521-4.5-9-.82-4.344-3.32-7.344-7.5-9-8.31.774-16.64 1.274-25 1.5-6.42 8.809-15.09 12.143-26 10a67.138 67.138 0 0 1-16 3.5 95.493 95.493 0 0 0-21-4.5 25.547 25.547 0 0 0-9-4c-.67-1-1.33-2-2-3-7.93-2.092-13.6-6.926-17-14.5-.95-.487-1.95-.82-3-1a74.385 74.385 0 0 0-10 6.5c-3.2.101-6.2.768-9 2-7.95 1.054-15.61.221-23-2.5-4.91 1.394-9.57 1.061-14-1-2.08-4.032-5.41-6.032-10-6-1 .086-1.83-.248-2.5-1-.57-2.819-1.91-5.152-4-7-1.06.13-1.89.63-2.5 1.5-8.72.326-17.38 1.159-26 2.5-4.44-1.776-9.1-2.942-14-3.5-5.23-2.921-9.23-7.088-12-12.5-.43-4.324-.76-8.658-1-13 1.41-.473 2.07-1.473 2-3a69.22 69.22 0 0 0 2-9c3.62-2.752 7.62-4.919 12-6.5l6-1c4.18-3.438 8.84-5.105 14-5 4.37.867 8.54 2.367 12.5 4.5a64.411 64.411 0 0 1 21.5-8c2.68.436 5.35.936 8 1.5a56.957 56.957 0 0 0 18 9c8.72 12.348 13.72 10.848 15-4.5-.05-2.403.28-4.736 1-7a36.041 36.041 0 0 1 7.5-7c2.98-7.318 7.81-13.151 14.5-17.5 5.26.359 9.93-.975 14-4 4.05-1.124 8.05-2.291 12-3.5 3.18.823 6.52 1.49 10 2 6.9 2.456 13.59 5.466 20 9 2.74-.099 5.4.235 8 1a33.626 33.626 0 0 0 5.5 4c1.7 6.758 5.37 12.092 11 16a63.013 63.013 0 0 1 12-10c4.43-8.093 10.59-14.593 18.5-19.5a83.006 83.006 0 0 1 18-5.5c1.39.121 2.73.454 4 1 8.56-2.28 17.23-2.28 26 0 2.89.221 5.56 1.054 8 2.5 6.61-.467 12.61 1.033 18 4.5 5.38-4.485 10.88-8.82 16.5-13 .31.808.81 1.475 1.5 2 1.92-8.015 5.59-15.181 11-21.5 5.37-3.745 11.37-5.412 18-5 3.27-8.647 9.61-12.813 19-12.5 1.12.656 2.45.989 4 1 1.83-.085 3.17-.752 4-2 12.64-7.04 25.64-7.874 39-2.5 8.94.427 16.94 3.427 24 9 13.29.142 24.62 4.975 34 14.5 3.4 3.973 4.9 8.639 4.5 14 .31.808.81 1.475 1.5 2a62.33 62.33 0 0 1 13-3 30.649 30.649 0 0 0 5-6.5c12.46-4.787 24.79-4.62 37 .5Z" style="fill:#f8c22c" transform="translate(160)"/><path d="M2824.5 807.5c3.08 1.555 6.41 2.555 10 3 4.28 1.474 7.28 4.308 9 8.5 3.06 1.061 5.56 2.894 7.5 5.5 3.53 4.054 5.69 8.72 6.5 14 6.45-2.945 13.11-4.612 20-5a64.932 64.932 0 0 1 9 4.5l8 1c1.8 2.472 4.13 4.139 7 5 4.81 4.48 9.31 9.313 13.5 14.5a105.017 105.017 0 0 0 5.5 20 10.256 10.256 0 0 1-1 3 37.21 37.21 0 0 1 3 11c-.57 2.803-1.9 5.136-4 7a117.057 117.057 0 0 0-6-13c-.61-4.791-2.77-8.791-6.5-12a42.67 42.67 0 0 0-4-11 169.878 169.878 0 0 0-10.5-6.5c-6.3-.056-12.3-1.222-18-3.5-3.03.306-6.03.806-9 1.5a43.475 43.475 0 0 0-7 8.5c-4.19 1.93-7.85 4.596-11 8a42.887 42.887 0 0 1-1.5-9c-.67-.667-1.33-1.333-2-2a87.541 87.541 0 0 0-2.5-20c-3.46-4.745-6.79-9.58-10-14.5-13.44-6.035-26.78-5.535-40 1.5-2.02 2.706-4.69 4.039-8 4-4.2 4.386-8.37 9.053-12.5 14-3.83 16.672 2.67 26.672 19.5 30 4.1-1.464 7.6-3.798 10.5-7 2.87-8.177 1.2-15.177-5-21-.75-1.135-.58-2.135.5-3 .67 1.333 1.33 2.667 2 4 .95-.826 1.95-.992 3-.5 2.78 2.402 5.45 4.902 8 7.5a90.258 90.258 0 0 1 5 10.5c-1.8 4.482-3.63 8.982-5.5 13.5-3.64 4.393-8.3 7.06-14 8-24.15 1.5-37.65-9.667-40.5-33.5 1.44-3.967 2.27-8.134 2.5-12.5 1.85-2.534 3.52-5.2 5-8 14.79-16.226 33.12-25.559 55-28 2.88.617 5.72 1.284 8.5 2Z" style="fill:#fff7ee" transform="translate(160)"/><path d="M580.5 1264.5c10.761-.24 21.428.59 32 2.5a121.015 121.015 0 0 0 23 11c1.167 1.17 2.333 2.33 3.5 3.5a1715.71 1715.71 0 0 0 43 66 400.226 400.226 0 0 1 15 36c17.7 34.74 34.869 69.74 51.5 105a4.905 4.905 0 0 1-1 2.5 7.228 7.228 0 0 1 2 2.5 17.612 17.612 0 0 1-3 6c-3.348.79-6.682 1.62-10 2.5a9.339 9.339 0 0 0-1.5 2.5c-.718-.95-1.551-1.12-2.5-.5-4.886 4.3-9.888 8.47-15 12.5-15.28-3.32-30.613-6.65-46-10a154.864 154.864 0 0 0-32 7.5c-8.547 2.29-15.881 6.63-22 13-6.063 2.73-10.897 6.9-14.5 12.5a41.114 41.114 0 0 1-8.5 13c-.667.33-1.333.67-2 1-11.042-2.76-22.042-2.59-33 .5a275.656 275.656 0 0 0-28 14c-2.5 1.83-5 3.67-7.5 5.5a266.345 266.345 0 0 1-18-36c-27.458-26.08-59.291-34.25-95.5-24.5-1.333.67-2.667.67-4 0a712.633 712.633 0 0 1-22-22.5 10.284 10.284 0 0 1 4-1.5c5.709-5.95 10.542-12.45 14.5-19.5 1.264-2.11 3.097-3.11 5.5-3 .023-2.43.523-4.76 1.5-7a51.458 51.458 0 0 1 10-14c.29-2.45.956-4.79 2-7 6.995-11.63 13.995-23.3 21-35l1-12c17.933-37.7 42.766-70.87 74.5-99.5a195.072 195.072 0 0 1 34-23c9.496-1.38 18.83-2.88 28-4.5Z" style="fill:#c6dccf" transform="translate(160)"/><path d="M2514 1483.5c3.8-.45 2.82 15.17.5 14-.98.48-1.81 1.14-2.5 2-1.73 7-4.43 13.73-8 20-3 2.67-6 5.33-9 8-.35 3.08-1.01 6.08-2 9-4.58 5.91-9.75 11.08-15.5 15.5a8.72 8.72 0 0 1-5 1.5c-.24 2.76-1.58 4.93-4 6.5-3.23 1.2-6.56 1.7-10 1.5-.91 5.89-4.41 8.89-10.5 9-.42 1.86-.92 3.69-1.5 5.5 1 4.34 2 8.67 3 13-1.18 3.2-1.18 6.36 0 9.5-2.9 8.88-6.07 17.54-9.5 26-.91 1.94-2.41 2.94-4.5 3 .71 3.36-.62 5.19-4 5.5-.69 1.07-1.19 2.23-1.5 3.5-3.01 1.5-5.59 3.74-7.5 6.5-13 6.61-26.67 11.11-41 13.5-14.62-1.8-29.29-3.14-44-4 .22-6.01 1.72-11.68 4.5-17 .67-5.67-284.09-119.82-285.5-113-4.44-.01-8.44-1.17-12-3.5-3.75-.07-7.25-.9-10.5-2.5-3.83 1.19-7.66 1.19-11.5 0-3.28-2.46-5.28-5.79-6-10-1.7-.86-2.86-2.2-3.5-4-.67-3.33-1.33-6.67-2-10-.6-8.69-1.43-17.36-2.5-26 1.62-16.05 8.29-29.55 20-40.5 5.87-3.43 11.54-7.1 17-11 2.32-1.37 4.66-1.71 7-1 2.36-5.85 6.69-8.01 13-6.5 2 .33 4 .67 6 1 .24-1.29-.1-2.29-1-3 3.04-11.16 5.54-22.5 7.5-34a41.53 41.53 0 0 1 4-8c16.54-16.69 35.71-29.52 57.5-38.5 5.76-1.52 22.93-2.89 26-.5 1.74-.56 3.4-.89 5-1a87.998 87.998 0 0 1 19 6c6.5-1.47 12.5-.3 18 3.5-1.05 3.62.28 6.12 4 7.5 6.24-2.07 10.74-6.07 13.5-12 3.13-2.13 5.96-4.63 8.5-7.5 11.83-5.75 23.5-11.75 35-18 5.25-.21 10.08-1.71 14.5-4.5 2.11.07 9.19-1.01 11-1 3.77.05 7.6.05 11.5 0 3.67.67 7.33 1.33 11 2 10.84-.04 21.51 2.46 32 7.5 2.53 3.53 5.86 5.86 10 7 2.24 1.74 3.91 3.91 5 6.5 5.55 2.7 11.22 5.2 17 7.5 2.1 2.04 3.27 4.54 3.5 7.5 2.04 1.71 3.71 3.71 5 6 3.2 1.27 5.87 3.27 8 6a89.32 89.32 0 0 1 9 19c1.12 2.56 1.29 5.06.5 7.5.67 1 1.33 2 2 3 3.69 0 7.03 1 10 3 7.05.21 14.05.88 21 2 1.83.27 3.33 1.11 4.5 2.5.41-.46.91-.79 1.5-1 2.59 1.09 4.76 2.76 6.5 5 .56-.52 1.23-.86 2-1 7.89 3.7 15.06 8.53 21.5 14.5 5.19 7.21 11.23 13.75 18 19.5 11.64 13.83 17.97 29.33 19 46.5 1.37 5.15 1.87 10.32 1.5 15.5Z" style="fill:#f9c22b" transform="translate(160)"/><path d="M2361.5 1375.5c-.33 2.99.67 5.32 3 7-.22 13.57 3.11 26.24 10 38 7.58-2.08 15.25-2.42 23-1 1.99-.29 3.82-.95 5.5-2 2.16 1.49 4.32 2.99 6.5 4.5 6.27 1.6 12.61 2.93 19 4 8.94 6.09 17.28 13.09 25 21 4.29.06 6.79 2.22 7.5 6.5-.58 5.75 1.76 9.75 7 12 .33 3.33.67 6.67 1 10 1.02.85 1.86 1.85 2.5 3-3.25 4.83-5.08 10.17-5.5 16-2.16 2.63-3.66 5.63-4.5 9a56.965 56.965 0 0 0-13.5 17c-5.38 2.61-10.88 5.11-16.5 7.5-3.67.67-7.33.67-11 0-1.24-.23-2.24-.73-3-1.5-2.86-1.18-5.86-1.18-9 0-3.48-1.76-7.14-2.26-11-1.5a15.693 15.693 0 0 0-3.5 5.5c-.76 5.02-2.26 9.69-4.5 14-2.81 3.71-3.48 7.71-2 12 2.92 3.49 5.92 6.99 9 10.5.95.48 1.95.65 3 .5 1.79.81 3.79 1.31 6 1.5-1.31 2.27-1.31 4.44 0 6.5.3 5.27.3 10.6 0 16-2.05 2.38-4.05 4.71-6 7-2.09 1.08-3.42 2.75-4 5-4.44 1.94-8.77 4.11-13 6.5-5.1-.08-9.27 1.75-12.5 5.5-3.7-1.43-7.22-3.28-10.5-5.5-2.1-.68-4.1-.51-6 .5-2.54-.6-4.87-.6-7 0-6.64.1-8.14 2.77-4.5 8 .67 5.67.67 11.33 0 17-2.78 5.32-4.28 10.99-4.5 17 14.71.86 29.38 2.2 44 4-4.2 3.68-9.2 5.51-15 5.5-3.82 3.57-8.15 6.07-13 7.5-1.54-.2-2.88-.87-4-2a11.236 11.236 0 0 1-6 2c-3.24-1.29-6.24-3.13-9-5.5-5.82 0-11.16-1.5-16-4.5.87-2.75-283.99-125.89-291-126.5-.92-.28-1.58-.78-2-1.5-2.52-4.65-3.52-9.65-3-15 3.84 1.19 7.67 1.19 11.5 0 3.25 1.6 6.75 2.43 10.5 2.5 3.56 2.33 7.56 3.49 12 3.5 1.41-6.82 3.08-13.65 5-20.5-.45-2.28-1.78-3.78-4-4.5.14-5.42-1.86-9.76-6-13-.74-3.26-1.74-6.42-3-9.5.07-.76.4-1.26 1-1.5 1.29-.56 2.12-1.56 2.5-3 .36-3.04.86-6.04 1.5-9 2.41-2.94 4.25-6.27 5.5-10 4.68-2.52 6.85-6.52 6.5-12a83.309 83.309 0 0 0 15-11.5c2.5-.16 4.83-.32 7-.5a8.95 8.95 0 0 1 4 3c1.2-.35 1.2-.85 0-1.5 2.5-.37 4.83-1.21 7-2.5 2.46-3.98 5.96-6.64 10.5-8 2.28-6.12 3.79-12.5 4.5-19 1.81.01 3.48-.49 5-1.5 3.37-4.45 5.37-9.45 6-15 5.41.63 9.41-1.37 12-6 1.29-.49 2.63-.66 4-.5 2.25-.58 3.92-1.91 5-4 2.13-1.63 4.13-3.46 6-5.5 3.18-.44 6.35-.28 9.5.5 2.5-.08 4.83-.75 7-2 9.33 2.3 18.5 4.97 27.5 8 1.44 2.55 2.61 5.22 3.5 8 2.19 2.04 4.69 3.37 7.5 4-.01 1.81.49 3.48 1.5 5 2.83 1.5 5 3.67 6.5 6.5 1.87 1.6 3.87 2.6 6 3 4.58-9.65 10.74-18.15 18.5-25.5 1.61-7.29 3.78-14.29 6.5-21 5.46-.04 10.29-1.71 14.5-5 1.87 1.21 3.37.71 4.5-1.5 3.38.18 6.04-.98 8-3.5 1.19 1.34 2.69 2.01 4.5 2 3.74-.35 6.9-1.85 9.5-4.5 9.02-.57 18.02-.9 27-1 3.1 1.82 6.1 3.82 9 6 6.37-.21 12.37 1.12 18 4 2.29 5.46 6.29 8.96 12 10.5 1.57 3.82 4.07 6.82 7.5 9 .19 2.21.69 4.21 1.5 6Z" style="fill:#fff8f1" transform="translate(160)"/><path d="M2338.5 1501.5c.62-.11 1.12-.44 1.5-1 .5-2.65.66-5.31.5-8-.24-3.38.42-6.55 2-9.5-.92-.37-1.75-.87-2.5-1.5-.19-4.91-1.19-9.58-3-14-2.63-3.97-5.3-7.97-8-12l-13.5-13.5a87.097 87.097 0 0 0-22-8c-10.72-1.73-20.38.61-29 7-2.17 2.52-4.7 4.71-7.5 6.5-.69 6.96-1.85 13.79-3.5 20.5.97 3.13 1.47 6.3 1.5 9.5a52.692 52.692 0 0 1-7-4c-4.86 1.21-10.02 2.21-15.5 3-2.27-.86-3.27-2.53-3-5-2.92.35-5.25-.65-7-3-4.15.64-8.15 1.8-12 3.5-3.5 3.52-6.67 7.35-9.5 11.5-1.24 4.28-1.58 8.61-1 13 2.39 1.7 3.89 4.03 4.5 7 1.25.54 2.41 1.21 3.5 2 .46 3.35.96 6.69 1.5 10-3.23-.09-6.23.58-9 2-3.6-.81-6.76-2.48-9.5-5-.52-2.52-1.85-4.52-4-6-.33-2-.67-4-1-6a7.148 7.148 0 0 0-2.5-2c-1.39-7.06-1.22-14.06.5-21 3.91-4.95 7.74-9.95 11.5-15 1.58-.8 3.24-1.3 5-1.5 2.57-5.24 6.73-8.08 12.5-8.5 8.89 1.31 17.73 2.98 26.5 5-.29-3.37-.45-6.7-.5-10 2.84-3.53 4.84-7.53 6-12 5.1-5.26 10.93-9.59 17.5-13 2.36.16 4.69 0 7-.5.56-.38.89-.88 1-1.5 5.33-.63 10.67-1.96 16-4 15.74.97 30.07 5.8 43 14.5 2.36 2.51 4.03 5.34 5 8.5 3.61-.12 5.77 1.55 6.5 5 3.68 1.37 5.35 4.04 5 8 2 2.67 4 5.33 6 8 1.68 5.89 3.51 11.73 5.5 17.5-.31 5.13-.31 10.29 0 15.5a195.44 195.44 0 0 0-2.5 15 73.198 73.198 0 0 1-5 14c-3.23 3.2-5.56 6.87-7 11a13.248 13.248 0 0 1-5 3c-.22 1.44-.72 2.77-1.5 4-4.16 2.78-8.49 5.28-13 7.5-.67 1-1.33 2-2 3-14.21 5.52-28.88 7.52-44 6-3.8-2.47-6.97-5.63-9.5-9.5-.67-2.67-.67-5.33 0-8 .69-.86 1.52-1.52 2.5-2 7.19 1.84 14.69 3.18 22.5 4 9.85-1.32 19.02-4.32 27.5-9 1.92-3.59 4.58-6.59 8-9 .38-2.89 1.88-4.89 4.5-6 2.12-5.24 3.96-10.58 5.5-16Z" style="fill:#f9c330" transform="translate(160)"/><path d="M297.5 1482.5c25.57-1.11 49.57 5.06 72 18.5.837 1.01 1.17 2.18 1 3.5 3.393-.44 6.393.4 9 2.5a29.016 29.016 0 0 0 10 8c2.799 2.12 4.799 4.79 6 8 3.04 1.22 5.772 3.1 8 5.5 1.667-.67 3.333-1.33 5-2 2.779.66 5.446-.01 8-2 3.534.63 7.034 1.3 10.5 2 3.449-3.65 7.283-3.99 11.5-1 4.148-1.79 8.481-1.95 13-.5 1.786.78 3.286 1.95 4.5 3.5 3.457-1.73 6.291-1.07 8.5 2 2.712.73 5.379 1.56 8 2.5 3.796 2.41 7.463 5.07 11 8a18.256 18.256 0 0 1 5 7.5c3.205 2.05 5.038 5.05 5.5 9 6.593 4.74 10.426 11.07 11.5 19-4.794.3-9.128 1.8-13 4.5-4.333.67-8.667.67-13 0-.934-3.49-1.934-6.99-3-10.5-2.398-1.4-4.065-3.4-5-6-3.701-1.2-6.701-3.37-9-6.5-4.27-1.82-8.603-3.48-13-5-6.511-.44-12.844-1.6-19-3.5-8.509.53-15.509 4.03-21 10.5-2 .67-4 1.33-6 2a25.687 25.687 0 0 1-4 4.5c-3.672-2.83-7.505-5.5-11.5-8-2.951-6.09-6.951-11.42-12-16-1.128-1.85-1.628-3.85-1.5-6-1.699.16-3.366-.01-5-.5-10.322-10.01-22.322-17.01-36-21a156.934 156.934 0 0 0-39-5 314.675 314.675 0 0 0-28.5 7.5c-3.252 2.39-6.42 4.89-9.5 7.5-1.634.49-3.301.66-5 .5.085 1.4-.264 2.8-1 4-19.844 16.04-32.844 36.37-39 61 1.329 6.22.996 12.39-1 18.5.259 1.26.926 2.26 2 3-4.089 4.58-7.089 9.74-9 15.5-6.56 1.69-12.56.53-18-3.5-1.667-.17-3.333-.33-5-.5-5.9 1.09-11.733 1.09-17.5 0-2.516 3.86-5.849 4.86-10 3a116.904 116.904 0 0 1-10.5 6.5c-3.877 3.25-6.044 7.42-6.5 12.5-3.837 2.68-4.671 5.85-2.5 9.5-1.167 1.17-2.333 2.33-3.5 3.5-.17 2.97-.336 5.8-.5 8.5 1.554 3.96 1.887 7.96 1 12 .818.9 1.85 1.59 3 2-2.293 3-1.626 5.5 2 7.5a3.602 3.602 0 0 1-1 1.5 49.525 49.525 0 0 0 5 8c-4.511 3.85-9.011 7.68-13.5 11.5-4.061-1.45-7.728-3.45-11-6-1.261.26-2.261.93-3 2-1.112-2.8-2.946-3.8-5.5-3-4.267-2.56-8.434-2.56-12.5 0-.833-.83-1.667-1.67-2.5-2.5-8.584-.53-16.917-.2-25 1-3.212 3.41-7.212 5.07-12 5a41.222 41.222 0 0 0-9 6c-4.24-.53-6.574 1.3-7 5.5-1.795 2.2-4.129 3.37-7 3.5-1.566 3.57-3.9 6.57-7 9 1.778 3.88.778 6.88-3 9 2.102 2.98 2.769 6.15 2 9.5a46.8 46.8 0 0 1 1.5 8c13.815 9.74 28.815 16.74 45 21 2.971-2.13 6.138-2.47 9.5-1 3-2.67 6-2.67 9 0 2.667-1.33 5.333-1.33 8 0 3.847-2.6 7.513-2.27 11 1a68.824 68.824 0 0 1 12.5-3c2.261-.06 4.261.61 6 2 1.739-1.39 3.739-2.06 6-2 10.133.72 19.799.72 29 0 2.983 2 6.149 2 9.5 0 2.384.51 4.717 1.18 7 2 6.625-3.32 13.125-3.32 19.5 0 3.131-4.16 7.131-5.16 12-3a50.57 50.57 0 0 1 8.5-2c1.728.09 3.394.42 5 1 2.794-1.49 5.794-2.15 9-2 6.642.68 13.142.68 19.5 0 2.19.59 4.358 1.26 6.5 2a190.785 190.785 0 0 1 21 15.5c34.338 16.31 69.338 17.65 105 4 11.979-4.73 21.813-12.23 29.5-22.5 1.707-2.41 2.54-5.08 2.5-8 7.857-.32 15.69-.32 23.5 0 3.279-.21 6.113.79 8.5 3 .522 1.11.855 2.27 1 3.5-.623 3.48-1.123 6.98-1.5 10.5a47.836 47.836 0 0 0-6.5 5 19.208 19.208 0 0 1-3.5 7 136.203 136.203 0 0 1-26.5 21.5c-6.165.48-11.832 2.48-17 6a489.57 489.57 0 0 1-37 9c-23.614 3-46.947 1.67-70-4a33.587 33.587 0 0 1-9-6.5 136.423 136.423 0 0 1-11-3.5c-1.712-3.16-4.379-4.82-8-5-4.44-2.52-8.773-5.19-13-8a356.34 356.34 0 0 1-24-1.5c-5.935 2.49-12.102 3.16-18.5 2-3.303.83-6.636 1.49-10 2-2.279.06-4.279-.61-6-2-1.434.43-2.601 1.26-3.5 2.5-3.667.17-7.333.33-11 .5a3112.45 3112.45 0 0 0-87.5 0c-2.28.06-4.28-.61-6-2-14.549 1.37-28.382-1.13-41.5-7.5-7.967-4.99-15.967-9.99-24-15-13.31-20.76-15.144-42.59-5.5-65.5 10.973-14.35 24.14-25.52 39.5-33.5a114.968 114.968 0 0 0 18-4.5c7.376-.46 14.542-.46 21.5 0 .956-1.39 2.29-2.06 4-2 5.087 1.45 10.254 1.11 15.5-1 .36-2.77 1.026-5.77 2-9-.601-2.22-.934-4.39-1-6.5 1.731-5.7 3.398-11.37 5-17-.333-.33-.667-.67-1-1a37.14 37.14 0 0 0 5-7.5 3.602 3.602 0 0 0-1-1.5c3.237-5 6.57-9.83 10-14.5 5.073-2.04 9.073-5.54 12-10.5 4.376.39 7.709-1.28 10-5 8.817-1.91 17.651-3.74 26.5-5.5 3.105.87 6.272 1.2 9.5 1-.731-4.1.269-7.6 3-10.5a9.194 9.194 0 0 1-2-4.5c2.164-7.32 4.331-14.66 6.5-22 8.266-16.7 19.1-31.53 32.5-44.5 17.44-12.55 36.44-22.22 57-29 5.754.12 11.421-.71 17-2.5Z" style="fill:#f8c22a" transform="translate(160)"/><path d="M705.5 1700.5c-.916-.48-1.916-.81-3-1a112.342 112.342 0 0 1-19 5 50.57 50.57 0 0 1-8.5-2c-7.852.63-15.685.13-23.5-1.5-5.42-2.03-10.087-5.03-14-9-1.987-1.32-3.154-3.15-3.5-5.5-3.91-.74-5.744-3.07-5.5-7-2.222.32-4.056-.34-5.5-2a96.254 96.254 0 0 0-5.5-12 12.431 12.431 0 0 0-4 2.5c-10.023-.06-19.69 1.44-29 4.5a86.982 86.982 0 0 0-20-2.5 22.266 22.266 0 0 1-4-5.5 52.787 52.787 0 0 0-10-1.5c-1.99-1.75-4.323-2.75-7-3a212.854 212.854 0 0 0-14.5-11.5l-5-9a33.754 33.754 0 0 1-1.5-11 19.406 19.406 0 0 1-2-7.5c1.186-2.85 1.186-5.69 0-8.5 1.814-4.61 3.314-9.28 4.5-14a41.103 41.103 0 0 0 6-9c5.628-3.17 10.462-7.34 14.5-12.5 4.153-3.22 8.819-5.55 14-7 10.003-2.17 20.003-3.33 30-3.5a164.944 164.944 0 0 0 17 4c2.203-1.8 3.369-4.13 3.5-7 6.19-7.21 12.03-14.72 17.5-22.5 11.314-8.9 24.148-14.73 38.5-17.5 6.159.03 12.326.03 18.5 0 11.033.69 20.366 4.86 28 12.5l4.5 1.5c3.437-2.47 7.27-3.97 11.5-4.5 7.74-7.4 16.74-12.73 27-16 5.381-.67 10.381-2.34 15-5 6.82-1.25 13.653-2.41 20.5-3.5 2.819.1 5.652.1 8.5 0 4.037.4 7.87 1.4 11.5 3 .893-.58 1.893-.91 3-1 20.343 2.77 37.509 11.61 51.5 26.5a75.937 75.937 0 0 1 9 4c4.835 4.51 8.502 9.84 11 16 2 .67 4 .67 6 0 3.506-3.27 7.506-4.44 12-3.5 3.511-1.77 6.677-2.43 9.5-2 5.8 1.63 11.635 3.13 17.5 4.5a26.964 26.964 0 0 0 7 5c4.198 5.52 8.365 11.02 12.5 16.5 6.978 17.84 5.978 35.5-3 53-1.011.84-2.178 1.17-3.5 1 .197 4.81-2.137 7.47-7 8a7.346 7.346 0 0 1-2 3c-2.978.49-5.311 1.99-7 4.5-6.906 1.38-13.739 1.88-20.5 1.5-3.2.35-5.867-.65-8-3a70.597 70.597 0 0 1-5 17 2413.98 2413.98 0 0 0-11.5 13c-1.189.93-2.522 1.26-4 1 .17 1.32-.163 2.49-1 3.5-4.209.55-7.542 2.55-10 6-13.168 5.16-26.668 7.99-40.5 8.5-2.247 1.48-4.747 2.15-7.5 2-3.383.02-6.55-.65-9.5-2-3.132.82-6.299 1.48-9.5 2a69.325 69.325 0 0 0-15-2.5c-3.606-1.27-6.273-3.61-8-7a342.1 342.1 0 0 1-18-3 95.139 95.139 0 0 0-17-7.5c-4.078 3.68-8.745 6.68-14 9-3.772 5.12-8.772 8.12-15 9-2.374 2.51-5.041 4.51-8 6Z" style="fill:#f9c22b" transform="translate(160)"/><path d="M2198.5 1549.5c.4 3.51 1.07 6.84 2 10-.03 1 .47 1.66 1.5 2 3.88-5.01 8.71-8.68 14.5-11h11c10.1 1.38 18.44 5.88 25 13.5 2.44.93 4.77 2.1 7 3.5.59-.21 1.09-.54 1.5-1 5.75 6.79 12.75 11.46 21 14 5.06-2.7 9.22-1.53 12.5 3.5 7.63 2.42 12.13 7.59 13.5 15.5 2.16 1.08 4.17 2.42 6 4 1.48 3.63 3.48 6.97 6 10 1.51 8.62 3.68 16.95 6.5 25-.72.42-1.22 1.08-1.5 2-1.11-1.21-1.61-.88-1.5 1-.82 3.14-1.32 6.47-1.5 10a41.216 41.216 0 0 0-3.5 8c.11 3.11-.89 5.78-3 8-8.96 17.42-23.46 26.42-43.5 27-4.4-1.29-8.93-2.12-13.5-2.5-1.59 4.29-.75 8.13 2.5 11.5 1.14 7.33.14 14.33-3 21-8.64 11.33-19.98 16-34 14-11.37 11.56-23.7 12.9-37 4a39.03 39.03 0 0 1-9.5 2c20.88-10.06 13.41-18.54 3-8-5.71 4.31-11.71 7.64-18 10-.95 1.48-2.28 2.48-4 3-9.2 2.93-18.2 6.43-27 10.5-9.82 2.96-19.82 3.96-30 3-21.14-2.99-38.97-12.15-53.5-27.5-2.86-6.4-6.69-12.06-11.5-17-1.8.77-3.63 1.43-5.5 2-1.94 2.61-4.44 4.44-7.5 5.5l-13 3-3 3c-7.61.32-15.11.49-22.5.5-6.98-1.18-14.15-2.01-21.5-2.5-11.14-3.8-19.97-10.64-26.5-20.5-5.59-2.96-10.26-6.96-14-12a470.594 470.594 0 0 0-13.5-36c.71-2.31 1.71-4.48 3-6.5-4.28-1.71-8.61-1.88-13-.5-17.67-3.35-35.17-2.68-52.5 2-1.44-.06-2.77-.39-4-1-1.73 6.4-5.9 9.23-12.5 8.5-5.16 3.41-10.83 5.41-17 6l-2 2-9 1.5c-3.02-.6-5.85-1.6-8.5-3-2.4 1.23-4.9 2.23-7.5 3-6.02-1.06-12.02-2.23-18-3.5-2.8-1.79-5.33-3.98-7.5-6.5-4.56 1.94-8.06.77-10.5-3.5-1.67-.33-3.33-.67-5-1-2.67-3-5.33-6-8-9-1.67-.33-3.33-.67-5-1-5.83-6.83-12-13.33-18.5-19.5-2.32-3.66-4.66-7.33-7-11-2.09-1.61-4.26-2.45-6.5-2.5.33-1.67.67-3.33 1-5-1.97-3.43-4.3-6.6-7-9.5.86-1.08 1.86-1.25 3-.5 11.23 10.79 24.23 18.79 39 24l3 3a79.483 79.483 0 0 1 25 8c7.87.13 15.54 1.29 23 3.5 8.01-2.15 16.01-4.65 24-7.5 7.3-5.22 14.97-9.88 23-14 3.11-1.76 6.44-2.59 10-2.5 1.07-6.06 4.73-9.4 11-10 7.65-7.25 15.32-14.58 23-22 3.95-2.05 7.62-4.55 11-7.5 5.75-2.73 11.42-5.06 17-7 7.94-1.59 15.77-3.42 23.5-5.5 1.11.09 2.11.42 3 1 1.4-2.03 3.06-2.36 5-1 6.32-3.11 11.99-2.11 17 3 6.95-9.12 14.79-17.45 23.5-25 11.39-6.22 23.56-9.89 36.5-11 3.85 1.48 7.35 1.82 10.5 1 .42.72 1.08 1.22 2 1.5 7.01.61 14.01 1.27 21 2 3.9 2.75 8.24 4.59 13 5.5.98 1.65 2.31 2.98 4 4 .8-.46 1.13-1.12 1-2 .96-1.16 1.96-2.33 3-3.5-1.93-3.74 9.23-13.95 13-18 21.52-9.53 43.52-10.86 66-4 14.27 4.64 27.61 11.14 40 19.5 3.38 4.37 6.71 8.7 10 13Z" style="fill:#f9c22c" transform="translate(160)"/><path d="M744.5 1630.5a84.116 84.116 0 0 0-1-16 48.062 48.062 0 0 0 2.5-11c2.402-4.82 5.736-8.82 10-12l1-4c2.167-.83 3.667-2.33 4.5-4.5a15.45 15.45 0 0 1 7-2.5c-.17-1.32.163-2.49 1-3.5 6.343-3 12.677-6 19-9a92.704 92.704 0 0 0 21.5-3.5c6.843.42 13.343 1.92 19.5 4.5a93.456 93.456 0 0 1 16 9c4.196 3.6 7.529 7.77 10 12.5 2.939-2.2 6.272-3.2 10-3 8.23-.63 15.23 1.87 21 7.5 1.756.2 3.422.7 5 1.5 5.014 4.7 8.847 10.04 11.5 16 7.592 6.5 8.259 13.5 2 21a37.661 37.661 0 0 1-3.5 8c-2.515-.61-5.015-1.28-7.5-2 .144-5.22.978-10.55 2.5-16-.825-.89-1.825-1.22-3-1-.921-5.78-4.087-10.12-9.5-13a4.934 4.934 0 0 1-.5-3c-5.985-.9-11.818-2.23-17.5-4-1.167.17-2.333.33-3.5.5a25.408 25.408 0 0 1-9 5.5 98.722 98.722 0 0 0-8-1.5 77.154 77.154 0 0 1-5-12.5 132.914 132.914 0 0 0-13-7.5c-1.761-2.94-4.428-4.61-8-5-5.053-.22-10.053-.72-15-1.5a83.072 83.072 0 0 1-16 4.5 190.812 190.812 0 0 0-19.5 13.5 291.092 291.092 0 0 0-9 16c-.807 7.26.193 14.26 3 21 2.335 3.04 4.669 6.04 7 9a8.43 8.43 0 0 1 .5 4c3.988.5 7.322 2.33 10 5.5 11.051 4.03 22.051 4.36 33 1a74.162 74.162 0 0 0 6-5.5c-.832-3.65-1.665-7.32-2.5-11-3.409-1.12-6.909-1.29-10.5-.5a54.407 54.407 0 0 1-2 4.5c-3.308-.9-6.641-1.73-10-2.5-4.641-5.27-3.808-9.44 2.5-12.5 1.749-5.18 5.415-7.51 11-7 2.261.36 4.427 1.03 6.5 2 2.8-2.4 5.8-2.57 9-.5 3.253 3.91 6.42 7.74 9.5 11.5.476 5.78 1.143 11.44 2 17-2.232 4.87-4.398 9.7-6.5 14.5a21.58 21.58 0 0 0-6 5c-14.322 4.02-28.656 4.35-43 1-4.473-2.06-8.815-4.4-13-7-2.808-3.98-6.308-7.14-10.5-9.5a50.807 50.807 0 0 0-6.5-10.5c-1.929-4.4-3.599-8.91-5-13.5Z" style="fill:#fff7ee" transform="translate(160)"/><path d="M2181.5 1621.5c.34 2.64-.33 4.98-2 7 1.53.92 2.86.59 4-1 2.36-.16 4.69 0 7 .5 3.7 2.12 7.7 3.45 12 4 20.8 17.47 28.3 39.63 22.5 66.5-10.79 20.61-26.62 35.94-47.5 46-2.29.57-4.45 1.57-6.5 3-2.72-.94-5.55-1.28-8.5-1 6.29-2.36 12.29-5.69 18-10a272.291 272.291 0 0 0 28.5-34c2.09-7.38 3.59-14.88 4.5-22.5-1.78-7.28-3.78-14.44-6-21.5-4.75-3.94-9.42-8.1-14-12.5-4.58-1.48-9.24-1.81-14-1-1.71 1.38-3.05 3.04-4 5-2.1 1.1-4.1 2.27-6 3.5-2.61-2.14-5.61-3.47-9-4-.72-2.26-1.05-4.6-1-7 2.82-4.97 4.82-10.3 6-16-1.54-4.78-3.37-9.45-5.5-14a20.144 20.144 0 0 1-7.5-7.5 92.396 92.396 0 0 0-27-10c-3.16-.6-6.16-.1-9 1.5-1.49-.4-2.99-.73-4.5-1-5.18 1.87-10.35 3.7-15.5 5.5-4.95 3.29-9.62 6.95-14 11-.84 3.91-1.84 7.75-3 11.5.72 3.33.89 6.66.5 10-1.89 1.53-2.89 3.53-3 6-2.42.85-4.92 1.52-7.5 2-4.04-1.27-8.04-1.11-12 .5-6.26 7.98-8.09 16.81-5.5 26.5 2.89 5.2 6.06 10.2 9.5 15 5.32 3.99 10.32 8.32 15 13 9.79 5.22 19.46 10.72 29 16.5 6.94-.09 13.44-1.93 19.5-5.5a71.687 71.687 0 0 0 5.5-15.5c-.75-3.73-1.75-7.41-3-11 .7-3.13 1.2-6.29 1.5-9.5 2.4-1.1 4.9-1.27 7.5-.5 2.56 2.53 5.4 4.7 8.5 6.5.56 2.37.4 4.7-.5 7 2.36 8.68 2.19 17.34-.5 26-.59 2.36-2.09 3.36-4.5 3 .26 2.29-.08 4.46-1 6.5a71.615 71.615 0 0 0-9 7 36.233 36.233 0 0 1-8 2.5c-4.95-.29-9.95-.46-15-.5-2.05-2.64-4.55-3.14-7.5-1.5-2.67-2.22-5.84-3.39-9.5-3.5a26.864 26.864 0 0 0-7-5c-3.32.22-5.66-1.11-7-4-4.33-1.49-7.99-3.99-11-7.5a35.746 35.746 0 0 1-9-5c-.12-4.62-2.45-7.12-7-7.5a55.262 55.262 0 0 1-5-7.5c-3.33-1.06-4.83-3.39-4.5-7a52.396 52.396 0 0 1-6-11c-1.19-5.14-.36-9.81 2.5-14-.67-2-1.33-4-2-6 1.39-2.44 2.23-5.11 2.5-8 1-.67 2-1.33 3-2 .99-4.23 3.16-7.73 6.5-10.5a85.348 85.348 0 0 0 16.5-9.5c-.5-2.69-.34-5.36.5-8 4.79-6.07 9.45-12.24 14-18.5 2.92-2.31 6.26-3.64 10-4 2.21-2.78 4.88-5.12 8-7 4.09-.61 8.11-1.62 12-3 4.01-.39 8.01-.89 12-1.5 2.3.23 4.46.9 6.5 2 3.74-1.06 7.68-1.23 11.5-.5 7.53 2.1 14.88 4.78 22 8l19.5 19.5c1.58 4.88 2.75 9.88 3.5 15Z" style="fill:#fff7ef" transform="translate(160)"/><path d="M537.076 1797.27h-.072.072Zm-96.517-194.41-.06-.05c.161.12.324.24.491.35-.146-.1-.29-.2-.431-.3Zm-.262-.2.082.06-.082-.06Zm2.389-.19c-.04.03-.08.07-.12.1l.054-.04.066-.06Zm-2.777-.11-.057-.05.145.12c-.029-.03-.059-.05-.088-.07Zm3.179-.21-.06.05.06-.05.041-.03-.041.03Zm-4.273-.77-.052-.05a14.195 14.195 0 0 0 .052.05Zm4.606.52-.199.15.199-.15Zm.094-.07-.036.03.036-.03Zm.887-.62Zm.084-.05.032-.02.069-.05a.613.613 0 0 1-.101.07Zm.378-.24.069-.04c-.069.04-.139.08-.208.13l.139-.09Zm.162-.1.047-.03.069-.04c-.039.02-.078.05-.116.07Zm-6.911-.17.081.09-.033-.04-.048-.05Zm-.095-.11a.256.256 0 0 1 0 0Zm7.613-.07.07-.04c-.065.04-.131.07-.196.11.042-.02.084-.05.126-.07Zm-7.754-.09.041.04-.041-.04-.043-.05.043.05Zm8.107-.1-.057.03.057-.03.063-.03-.063.03Zm.641-.32.072-.04c-.114.06-.226.11-.339.17.089-.05.178-.09.267-.13Zm-9.22-.17.027.04-.027-.04Zm9.778-.09-.127.06.072-.03.055-.03Zm.307-.13-.29.12.073-.03.217-.09Zm-10.642-.56Zm11.007.42c-.065.02-.13.05-.195.07.04-.01.081-.03.121-.04l.074-.03Zm13.598.06-.076.01h-.227c.101 0 .202 0 .303-.01Zm.374-.01h-.074.074Zm.297-.01h-.04.04l.065-.01-.065.01Zm.575-.04h.011-.011Zm.301-.03-.067.01.067-.01.072-.01-.072.01Zm-14.974-.04.048-.02.073-.02c-.04.01-.081.03-.121.04Zm12.364-.05.126.03-.213-.06.087.03Zm3.252.02-.066.01.066-.01.071-.01-.071.01Zm.212-.03-.07.01-.068.01c.046-.01.092-.01.138-.02Zm-15.405-.09-.083.03.083-.03Zm16.237-.04-.058.01.058-.01.068-.02-.068.02Zm-15.578-.17c-.173.05-.346.11-.519.16.173-.05.346-.11.519-.16Zm15.661.15c.04-.01.081-.01.121-.02l-.068.01-.053.01Zm.323-.06h.001-.001Zm.403-.09-.066.02-.067.01.133-.03Zm-6.388-.05a.98.98 0 0 1 .164.04l.085.02-.249-.06Zm-9.849 0 .075-.02c-.075.02-.149.05-.223.07.049-.02.099-.03.148-.05Zm-12.626-.27c.059.09.119.18.179.28-.06-.09-.12-.19-.179-.28Zm21.995.15.379.09-.379-.09Zm-8.885-.01-.109.03.109-.03Zm8.678-.03h.006-.006Zm-8.395-.04-.018.01.018-.01Zm7.553-.13.084.01c.191.04.382.07.574.12-.22-.05-.439-.09-.658-.13Zm-7.449.11.032-.01.076-.02-.108.03Zm.488-.11c-.076.02-.153.03-.228.05l.076-.02c.076-.01.152-.03.228-.04l-.076.01Zm.229-.04-.073.01.073-.01.036-.01-.036.01Zm-14.354-.13-.037-.06c.039.06.08.13.12.2-.028-.05-.056-.09-.083-.14Zm20.253.03c.11.02.221.04.332.05l-.083-.01c-.111-.02-.221-.03-.332-.05l.083.01Zm-5.052-.04.078-.01c-.101.02-.202.03-.302.05.074-.02.149-.03.224-.04Zm4.349-.04.305.03-.305-.03Zm-3.883-.01h-.024.024l.078-.01-.078.01Zm3.026-.06h.081c.218.02.436.03.655.05-.246-.02-.492-.04-.736-.05Zm13.598-.47Zm-16.154.48-.049.01.049-.01h.078-.078Zm2.313-.03.081.01a.86.86 0 0 1 .16.01c-.08-.01-.161-.01-.241-.02Zm-.324-.01h.081-.081Zm-.562-.01c-.187 0-.373 0-.558.01h.079c.159-.01.319-.01.479-.01Zm14.926-.52-.058.03h-.015l.073-.03Zm-33.131-.5Zm-.05-.1.018.04-.018-.04-.025-.05.025.05Zm-.229-.5c.033.08.066.15.1.23-.034-.08-.067-.15-.1-.23Zm101.597 200.6h-.048.048Zm-.783-.05.047.01h.024l.022.01c.043 0 .086.01.129.01h.023c.049.01.098.01.148.01l.018.01h.181-.181l-.018-.01c-.05 0-.099 0-.148-.01h-.023c-.043 0-.086-.01-.129-.01l-.022-.01h-.047l-.024-.01Zm.882.04h-.075.075l.287-.03h.01l.289-.06c.014 0 .028 0 .043-.01l-.025.01h-.018l-.289.06h-.01l-.287.03Zm.654-.1c.024-.01.049-.01.073-.02l-.025.01c-.016 0-.032 0-.048.01Zm.147-.04-.025.01h-.022c.015 0 .031-.01.047-.01Zm-1.761.09c-.033-.01-.066-.01-.099-.02-.031-.01-.062-.01-.093-.02l-.025-.01-.138-.03-.032-.01c-.008 0-.016-.01-.023-.01l-.023-.01-.114-.03a.134.134 0 0 0-.059-.02l-.035-.01c.012 0 .023 0 .035.01.02 0 .039.01.059.02l.114.03.023.01c.007 0 .015.01.023.01l.032.01.138.03.025.01c.031.01.062.01.093.02.033.01.066.01.099.02.011 0 .021 0 .032.01l-.032-.01Zm-.732-.21c.015.01.03.01.045.02l-.022-.01-.023-.01Zm-.067-.03.021.01.023.01c-.015 0-.03-.01-.044-.02-.011 0-.022-.01-.033-.01l-.261-.12-.026-.01c-.083-.05-.166-.09-.249-.14l-.043-.03.022.02.021.01.272.15h.003l.261.12c.011 0 .022.01.033.01Zm-.637-.32-.042-.03-.023-.01c.022.01.044.03.065.04Zm-.132-.08c.014.01.027.01.041.02l-.018-.01-.023-.01Zm11.338-.03h-.083.083Zm-.184 0h-.059l-.02-.01c.026.01.052.01.079.01Zm-7.752.56-.024.01c.025-.01.049-.02.074-.02l.035-.01.069-.03h.019l.036-.01.035-.02.251-.09c.079-.03.159-.07.239-.1.071-.04.142-.07.214-.11.029-.01.058-.03.087-.04.029-.02.059-.03.088-.05.03-.01.059-.03.089-.05l.067-.03.026-.02c.009 0 .017-.01.025-.01l-.025.01-.026.02-.067.03a.379.379 0 0 1-.089.05c-.029.02-.059.03-.088.05-.029.01-.058.03-.087.04-.072.04-.143.07-.214.11-.08.03-.16.07-.239.1l-.251.09-.046.02c-.008 0-.016 0-.025.01h-.019l-.069.03-.035.01c-.017 0-.033.01-.05.01Zm7.615-.57h-.019c-.012-.01-.025-.01-.037-.01h-.019c-.021-.01-.042-.01-.063-.02h-.029.029c.021.01.042.01.063.02h.019c.018 0 .037.01.056.01Zm-11.083-.01-.056-.03-.027-.02c-.019-.02-.038-.03-.058-.05l-.014-.01c-.008 0-.015-.01-.022-.01l-.023-.02-.022-.01a2.8 2.8 0 0 1-.2-.16 3.503 3.503 0 0 1-.226-.19c-.061-.06-.121-.11-.181-.17-.026-.02-.052-.05-.079-.07-.024-.03-.049-.05-.074-.08-.022-.02-.044-.04-.066-.07l-.021-.02c-.018-.01-.035-.03-.053-.05l-.033-.04c.011.02.022.03.033.04.018.02.035.04.053.05l.021.02c.022.03.044.05.066.07.025.03.049.05.074.08.026.02.053.05.079.07.06.06.12.11.181.17.075.07.15.13.226.19.067.06.134.11.2.16.01 0 .02.01.03.02l.015.01c.007 0 .014.01.022.01l.014.01c.02.02.039.03.058.05l.027.02a.34.34 0 0 1 .078.05l-.022-.02Zm10.881-.03c-.018 0-.036-.01-.053-.01l-.017-.01-.023-.01c-.022 0-.043-.01-.064-.02a.506.506 0 0 1-.112-.05h-.016c.041.02.084.03.128.05.021.01.042.02.064.02l.023.01.017.01c.023 0 .047.01.071.01h-.018Zm-.302-.11c-.01-.01-.02-.01-.03-.02h-.015c.015 0 .03.01.045.02Zm-.109-.06c-.018-.01-.037-.03-.054-.04l-.015-.01c.023.02.046.03.069.05Zm-.102-.07c-.041-.03-.081-.07-.119-.1l-.009-.01c-.005-.01-.009-.01-.013-.01l-.009-.01c-.016-.02-.032-.03-.047-.05l-.013-.02c-.014-.01-.027-.03-.04-.04l-.012-.02.052.06.013.02c.015.02.031.03.047.05l.009.01c.004 0 .008 0 .013.01l.009.01c.038.03.078.07.119.1Zm-.295-.3c-.01-.01-.02-.03-.029-.04l-.039-.06-.028-.04-.019-.04h-.005l-.018-.03c-.029-.06-.056-.11-.082-.17l-.014-.03-.007-.02-.008-.02a.403.403 0 0 0 .029.07c.026.06.053.11.082.17l.018.03.014.02c.004.01.007.01.01.02l.028.04.039.06c.013.02.026.04.04.05l-.011-.01Zm-5.249.55h2c.667 0 1-.33 1-1h2l.019-.02c.818-.91 1.479-.58 1.981 1.02h-.023l-.023.01h-.022c-.04.01-.079.01-.117.02h-.053c-.025 0-.051.01-.076.01h.022c.018 0 .036-.01.054-.01h.053c.038-.01.077-.01.117-.02.015 0 .03 0 .045-.01h.023c.333 1.33.667 1.33 1 0 7.334-.87 14.667-.54 22 1a33.85 33.85 0 0 1 6.5-3c7.845-.2 15.678-.2 23.5 0 .342.84 1.008 1.17 2 1 8.511-.69 17.011-.69 25.5 0 2.279.06 4.279-.61 6-2 1.555 1.65 3.221 1.98 5 1 1.559.53 3.059 1.2 4.5 2 2.422-2.15 5.089-2.48 8-1 3.128-2.3 6.128-2.3 9 0 2.969-1.24 6.136-1.91 9.5-2 4.412.52 8.745.52 13 0l4 2c1.511-1 3.214-1.68 5-2 7.143.46 14.143.46 21 0 3.616.74 7.282 1.4 11 2a26.79 26.79 0 0 1 9-2c8.351.71 16.684 1.04 25 1 2.491-.21 4.825-.87 7-2 6.6 1.33 13.4 1.33 20 0l4 2a14.745 14.745 0 0 1 7-2c22.503.93 45.003 1.1 67.5.5 6.819-2.07 13.5-4.58 20-7.5 1.617-4.41.95-8.41-2-12a47.323 47.323 0 0 1-7-4.5 284.715 284.715 0 0 0-24.5-3.5c-12.32.13-24.653.46-37 1a451 451 0 0 0-26.5-1.5c-3.708-2.13-7.708-2.97-12-2.5-.693-5.92-3.193-10.92-7.5-15a40.265 40.265 0 0 1-1.5-7.5c1.392-4.78 2.725-9.61 4-14.5 1.333-.33 1.333-.67 0-1v-1c4.236.84 8.403 1.17 12.5 1 1.971.03 3.471-.8 4.5-2.5 3.674-1.31 7.341-1.48 11-.5a31.686 31.686 0 0 1 6-2c2.286 1.94 4.953 2.94 8 3 2.309-.58 4.476-.58 6.5 0 .899-1.87 2.399-2.87 4.5-3 20.073.12 40.073.12 60 0 1.248.54 2.415 1.21 3.5 2 2.587-2.53 5.253-2.53 8 0 4.067-2.6 8.067-2.6 12 0 .813 1.62 1.625 3.25 2.438 4.87l1.624 3.26c.813 1.62 1.625 3.25 2.438 4.87-5.972.83-11.972 1.33-18 1.5l-3 1.5c-2.456-1.45-5.122-2.11-8-2-5.861.19-11.861.36-18 .5-1.601.27-3.101.77-4.5 1.5-1.126-1.44-2.626-2.11-4.5-2-5.533-.62-11.033.05-16.5 2-1.525-1.22-3.359-1.89-5.5-2-10.411.62-20.744.62-31 0-7.061.49-12.061 3.32-15 8.5.399 1.73 1.066 3.23 2 4.5.291 1.15 1.124 1.82 2.5 2 1.07-.03 1.903-.36 2.5-1 1-1.33 2-1.33 3 0 .321 1.55 1.321 2.21 3 2 2.065-.02 4.065-.35 6-1 3.511-.2 7.178.14 11 1h8c2.693.07 5.36.4 8 1 2.548.24 4.214-.76 5-3 1.473-.57 3.14-.57 5 0 1.602 1.57 3.602 2.24 6 2 4.555-.12 9.222-.46 14-1 5.314.68 10.648 1.18 16 1.5 3.092 2.42 6.592 3.92 10.5 4.5.375-.12.75-.25 1.125-.37l.75-.26c.375-.12.75-.25 1.125-.37 3.688 6.32 7.355 12.65 11 19 .667 2.67.667 5.33 0 8-.414.46-.914.79-1.5 1a40.65 40.65 0 0 1-4 13 146.84 146.84 0 0 1-24 14.5l-42 1.5c-5.085-.03-9.918-.7-14.5-2a731.011 731.011 0 0 1-71 0c-10.05 3.96-20.05 3.96-30 0a34.538 34.538 0 0 1-12 2 900.516 900.516 0 0 0-53 0 28.704 28.704 0 0 1-9-2c-2.95 1.35-6.117 2.02-9.5 2-9.305.33-18.472 0-27.5-1-20.336 2.9-40.836 3.73-61.5 2.5-1.243-.3-2.426-.81-3.5-1.5-1.907 1.43-4.074 2.1-6.5 2-7.43-.25-14.763-1.75-22-4.5-4.677-4.86-7.011-10.69-7-17.5-.014-2.09.652-3.93 2-5.5-1.021-7.27.979-13.6 6-19 5.723-3.37 11.56-6.53 17.5-9.5 1.18 1.18 2.68 1.85 4.5 2 9.06-.74 18.227-1.07 27.5-1 7.189 1.83 14.522 1.83 22 0 1.711-.06 3.044.61 4 2 4.354-2.37 8.854-2.37 13.5 0l4-2c4.169-.06 8.336-.06 12.5 0l1.5-1.5c3.036-.26 6.045-.76 9-1.5.946.49 1.946.82 3 1a38.011 38.011 0 0 0 5.5-5c.808-2.08.641-4.08-.5-6a155.343 155.343 0 0 0-11-5.5 24.208 24.208 0 0 0-11 .5c-8.296-2.37-16.629-2.37-25 0a6.89 6.89 0 0 1-4-2 11.227 11.227 0 0 1-6 2c-9.768-.08-19.602-.08-29.5 0-2.59.12-4.923-.54-7-2-3.859 2.86-7.359 2.52-10.5-1-4.271 2.47-8.938 3.47-14 3-34.694-.06-69.194-.39-103.5-1-2.816.73-5.65 1.4-8.5 2-21.432-.26-42.766-.26-64 0-1.375-.06-2.75-.13-4.125-.19l-2.75-.12c-1.375-.06-2.75-.13-4.125-.19-1.156-1.61-2.489-1.61-4 0-1 .06-2 .13-3 .19l-2 .12c-1 .06-2 .13-3 .19-30.645-.16-61.312-.16-92 0-4.855-.8-9.522-.8-14 0-3.245.21-5.245-1.29-6-4.5a103.623 103.623 0 0 1-16-7c-6.577-8.37-7.743-17.54-3.5-27.5 3.629-6.38 8.129-12.22 13.5-17.5 3.96-.78 7.793-1.95 11.5-3.5.75.13 1.445.48 2 1 2.841-.92 5.674-1.92 8.5-3 5.204.04 10.371.04 15.5 0 3.615-3.39 7.948-4.72 13-4 3.587-.21 6.921.45 10 2 1.225-.36 2.391-.86 3.5-1.5 2.375-.06 4.75-.13 7.125-.19l4.75-.12c2.375-.06 4.75-.13 7.125-.19 15.292.49 30.625.49 46 0 1.559.95 3.226 1.61 5 2 8.096-.48 15.929-.48 23.5 0 2.19-.59 4.358-1.26 6.5-2 8.906.04 17.739.04 26.5 0 2.4.54 4.733 1.21 7 2 1.822-1.55 3.989-2.21 6.5-2 9.118.22 18.118.22 27 0 3.159-6.7 1.326-11.36-5.5-14-4.434-1.72-8.434-1.06-12 2a151.133 151.133 0 0 1-15.5-3c-3.135.58-6.302.91-9.5 1-9.991-1.9-20.158-2.4-30.5-1.5-.93.99-2.096 1.49-3.5 1.5-14.345-1.68-27.345-6.68-39-15a36.04 36.04 0 0 1-3.5-9c.965-4.29.965-8.62 0-13a37.088 37.088 0 0 1 5-15 73.033 73.033 0 0 0 10-5.5c3.557-.6 7.057-1.43 10.5-2.5.75.13 1.445.48 2 1 2.571-2.85 5.571-3.51 9-2 3.197-1.29 6.363-1.62 9.5-1 2.976-1.46 5.976-1.79 9-1a38.614 38.614 0 0 1 12-3c3.036 3.85 6.036 3.85 9 0 3.856.36 7.856.52 12 .5l1.5 1.5c1.648-1.53 3.648-2.2 6-2 4.333 1.33 8.667 1.33 13 0 2.352-.2 4.352.47 6 2 1.789-1.73 3.956-2.4 6.5-2h.044c1.869-.19 3.355.47 4.456 2 1.194-.93 2.527-1.6 4-2 4.193-.54 8.309.1 12.349 1.93l.067.01.082.01c.033 0 .065.01.098.01 4.084-1.59 8.385-1.91 12.904-.96l-.11.06.11-.06c4.611.36 9.444.36 14.5 0 3.317.08 6.317 1.08 9 3 2.774-.34 5.774-1 9-2 2.462.66 4.962.99 7.5 1-.284 6.04-1.617 11.71-4 17-12.723-1.96-25.39-2.29-38-1a1036.16 1036.16 0 0 0-39-2c-4.311-.1-8.478-.77-12.5-2-3.59 2.33-7.424 2.67-11.5 1a343.61 343.61 0 0 0-48 5 28.334 28.334 0 0 1-3.5-1c-6.517 1.87-13.017 3.7-19.5 5.5-5.19 10.47-2.19 16.81 9 19 3.207 1.76 6.374 3.6 9.5 5.5 6.224-.61 12.224-1.94 18-4 2.047 1.04 4.047 1.04 6 0 2.722.94 5.222 2.28 7.5 4a11.243 11.243 0 0 1 3.5-2c10.189.35 20.355.69 30.5 1 1.834.99 3.501.99 5 0h7c2.721.46 5.388 1.13 8 2a89.32 89.32 0 0 1 9.5 7c.607 3.88 2.274 7.21 5 10 .414 5.03.081 10.03-1 15-3.209 4.52-5.376 9.52-6.5 15-8.154-.68-16.32-1.35-24.5-2-23.804.09-47.638.76-71.5 2-29.66-.52-59.16-1.19-88.5-2a654.653 654.653 0 0 1-30.5 5c-2.111.01-3.945-.65-5.5-2-2.696 3.21-6.196 4.71-10.5 4.5a123.964 123.964 0 0 1-8 7.5c-3.469 7.09-1.802 12.59 5 16.5 9.558 1.68 19.058 1.52 28.5-.5 13.735.48 27.569 1.15 41.5 2a53.577 53.577 0 0 1 5.5-2c48.294-.06 96.627.27 145 1 44.168-1.23 88.335-2.89 132.5-5 2.488.65 4.822 1.65 7 3 15.4.24 30.9-.09 46.5-1 2.261.36 4.427 1.03 6.5 2 2.268-1.04 4.601-1.21 7-.5 2.972 2.14 5.972 4.14 9 6 11.77 1.41 16.937 7.91 15.5 19.5-1.922 4.1-3.255 8.44-4 13-4.31 2.46-8.143 5.63-11.5 9.5a363.244 363.244 0 0 0-24.5 4.5c-8.182-.15-16.349-.49-24.5-1-2.855 1.84-6.022 2.84-9.5 3-17.775-.2-35.608-.2-53.5 0-.952 3.9-2.952 7.23-6 10 2.031 1.75 2.365 3.75 1 6a38.272 38.272 0 0 0 10.912 2h.088c1.033.01 2.049.1 3.049.26.984.17 1.953.41 2.906.73l.045.01Zm-96.613-194.19c.044-.04.089-.07.134-.11-.067.06-.134.11-.201.16l.067-.05Zm22.743-3.34-.066.01c.656-.15 1.29-.34 1.902-.56-.591.21-1.203.4-1.836.55Z" style="fill:#f79619" transform="translate(160)"/><path d="M2550.38 1482.75c.37.25.74.5 1.12.75a6.872 6.872 0 0 1 4-2c14.23.11 28.73.11 43.5 0 2.14.77 4.3 1.43 6.5 2 6.51-1.56 13.18-1.73 20-.5 6.53 2.76 12.86 5.76 19 9l3.5 3.5c1.58 4.58 3.08 9.24 4.5 14-1.24 2-.9 3.83 1 5.5-4.67 7.33-10.67 13.33-18 18 .67.33 1.33.67 2 1-4.52 2.14-9.19 2.64-14 1.5-4.35 1.59-8.89 2.6-13.5 3-12.4-2.32-24.74-2.32-37 0-12.89-.84-25.72-1.17-38.5-1-1.53.03-2.7.7-3.5 2-1.39-1.05-2.89-1.22-4.5-.5-1.11 2.74-1.28 5.57-.5 8.5 4.48 5.69 10.15 7.35 17 5 3.39.59 6.72 1.25 10 2 2.27-1.93 4.27-1.93 6 0 1.33-.67 2.67-1.33 4-2 4.8.69 9.63 1.36 14.5 2 6.36-.93 12.52-1.59 18.5-2 3.1 1.71 6.27 2.38 9.5 2 1.19-1.34 2.69-2.01 4.5-2 2.41 1.04 4.74 1.04 7 0 .38.25.75.5 1.12.75l.76.5c.37.25.74.5 1.12.75 2.41-.77 4.91-1.27 7.5-1.5.63-.75 1.13-1.58 1.5-2.5 2.9 4.42 6.56 5.09 11 2 3.4 2.77 6.4 2.44 9-1 1.96 1.4 4.13 2.4 6.5 3 3.91-.57 7.91-.57 12 0 1.25-.54 2.41-1.21 3.5-2 .67.17 1.33.33 2 .5l4 1c.67.17 1.33.33 2 .5 3.13-1.3 6.3-1.3 9.5 0 3.45-2.1 6.78-2.1 10 0 13.36-.03 26.7-.03 40 0l4-2c8.56 3.31 17.23 6.31 26 9 5.87 4.7 10.87 10.2 15 16.5l-1 1c1.96 2.12 2.46 4.62 1.5 7.5-1.78 4.81-3.62 9.65-5.5 14.5-1.33.83-2.67 1.67-4 2.5l-8 5c-1.33.83-2.67 1.67-4 2.5-3.06.26-6.06.76-9 1.5-.42-.17-.83-.33-1.25-.5l-2.5-1c-.42-.17-.83-.33-1.25-.5-6.43 1.03-12.93 1.03-19.5 0-2.41 1.93-5.08 1.93-8 0-1.95 1.04-3.95 1.04-6 0-1.71-.06-3.04.61-4 2-6.11-2.44-12.28-2.44-18.5 0-2.54-2.6-5.04-2.6-7.5 0a25.014 25.014 0 0 0-7.5-2c-13.04-.33-26.2.01-39.5 1-5.46-1.81-10.79-1.81-16 0-4.67-.67-9.33-1.33-14-2-2.45 1.93-5.11 1.93-8 0-2.33.67-4.67 1.33-7 2-.38-.25-.75-.5-1.12-.75l-.76-.5c-.37-.25-.74-.5-1.12-.75-35.3.75-71.13.91-107.5.5-.97 2.29-2.31 4.29-4 6 .66 3.14 1.99 5.97 4 8.5 2.19.72 4.35 1.39 6.5 2 2.33-1.33 4.67-1.33 7 0 .38-.25.75-.5 1.12-.75l.76-.5c.37-.25.74-.5 1.12-.75 4.33 1.33 8.67 1.33 13 0 5.72 1.19 11.05 3.86 16 8 5 8.67 7.67 18 8 28-.25 2.68-1.25 5.01-3 7-7.61 9.11-17.45 14.28-29.5 15.5l-2 2c-12.59.69-24.92.52-37-.5-2.35.56-4.69 1.23-7 2a82.236 82.236 0 0 1 6 16c-2.1 3-2.43 6.16-1 9.5-1.93 8.58-6.76 14.74-14.5 18.5-.22 4.42-1.72 8.25-4.5 11.5-7.58.94-13.25 4.61-17 11-4.92.9-9.75 2.07-14.5 3.5a74.93 74.93 0 0 0-11.5-.5c-2.17-.83-3.67-2.33-4.5-4.5-2.24.64-4.58.97-7 1-3.24.19-6.24-.47-9-2 .07 4.76.91 9.43 2.5 14-2.35 9.25-6.68 17.42-13 24.5-4.29.06-6.79 2.22-7.5 6.5-3.9 4.6-8.74 7.44-14.5 8.5-2.48 2.74-5.48 4.74-9 6-12.8 2.59-25.8 3.92-39 4-3.78-1.4-7.46-3.07-11-5-3.67-.33-7.33-.67-11-1-2.77-4.32-6.77-6.49-12-6.5-3.97 1.94-7.97 3.77-12 5.5-3.16.55-6.32 1.05-9.5 1.5-8.98-2.35-17.81-4.85-26.5-7.5a10.986 10.986 0 0 1-3-4.5c-4.21-1.38-7.38-4.04-9.5-8-.9-2.79-2.06-5.46-3.5-8-16.36-1.54-30.19-8.21-41.5-20-.2-3.19-1.03-6.19-2.5-9 .36-.68.7-1.35 1-2 1.72-.52 3.05-1.52 4-3 2.95-.28 5.78.06 8.5 1 2.05-1.43 4.21-2.43 6.5-3 3.24-.27 6.41-.93 9.5-2 13.3 8.9 25.63 7.56 37-4 14.02 2 25.36-2.67 34-14 3.14-6.67 4.14-13.67 3-21-3.25-3.37-4.09-7.21-2.5-11.5 4.59.38 9.09 1.21 13.5 2.5 20.04-.58 34.54-9.58 43.5-27 9.19 2.43 18.53 3.1 28 2 2.18-.09 4.18-.75 6-2 1.12 1.13 2.46 1.8 4 2 5.43-.24 10.77-.24 16 0a37.28 37.28 0 0 0 5.5-2c1.91.95 3.91 1.62 6 2 5.73.65 11.4-.01 17-2 3.6 2.29 7.27 2.29 11 0l1.5 1.5c2.83.17 5.67.33 8.5.5 8.72-.8 17.39-.8 26 0 1.9-.11 3.56-.78 5-2 1.35 1.2 3.02 1.87 5 2 15.73-.73 31.56-1.07 47.5-1v-3c2.44-.26 4.77-.92 7-2 .59.21 1.09.54 1.5 1 1.86-2.77 4.19-5.11 7-7 3.25-6.54 1.42-10.37-5.5-11.5.96-1.15.62-2.15-1-3-9.48-1.5-18.81-1.83-28-1-3.1-1.61-6.43-2.61-10-3-2.41-2.18-4.74-4.35-7-6.5-.04-.92-.06-1.85-.06-2.77-.01 1.26.01 2.51.06 3.77a89.306 89.306 0 0 1-4-10.5c1.26-2.84 1.26-5.68 0-8.5 1.71-1.14 2.38-2.8 2-5 2.81-3.64 6.14-6.8 10-9.5 1.56-.32 2.73-1.15 3.5-2.5.32.47.73.78 1.22.93.09-.31.19-.62.28-.93 2.91-.66 3.24-1.49 1-2.5 1.64-1.52 3.31-1.69 5-.5-.42.72-1.08 1.22-2 1.5 11.14-.39 22.31-1.22 33.5-2.5 3.35.14 6.35.48 9 1 .38-.25.75-.5 1.12-.75l.76-.5c.37-.25.74-.5 1.12-.75 3.13.71 6.3 1.37 9.5 2 3.07-2.39 6.07-2.39 9 0 12.26-.05 24.76-.05 37.5 0 5.47-1.75 10.8-1.75 16 0 14.74.02 29.74-.31 45-1 .38.25.75.5 1.12.75l.76.5c.37.25.74.5 1.12.75 9.78-1.23 19.11-1.23 28 0 1.47-.4 2.81-1.07 4-2 .74 1.07 1.74 1.74 3 2 3.41-.26 6.74-.26 10 0 3.76-2.17 7.42-2.17 11 0 4.16-2.6 8.32-2.6 12.5 0 1.86-1.19 3.69-1.19 5.5 0 2.7-2.28 5.53-2.28 8.5 0 7.62-.19 14.95-.19 22 0 8.67-.5 13.67-5 15-13.5-.58-1.81-1.08-3.64-1.5-5.5-4.06-3.44-8.56-5.94-13.5-7.5-14.24-.18-28.41-.68-42.5-1.5-13.91.39-27.74.73-41.5 1-4.04-.5-8.04-1.17-12-2a175.43 175.43 0 0 1-32 .5c-1-2-2-2-3 0-3.17.17-6.33.33-9.5.5-23.25-.36-46.42-.36-69.5 0-4.38-.39-8.55-1.39-12.5-3-1.47.83-2.97 1-4.5.5-2.25-2.21-4.92-3.88-8-5-3.85-5.46-6.85-11.46-9-18 .71-3.19 2.21-6.36 4.5-9.5 3.19-3.36 7.03-5.69 11.5-7 21.83.78 43.83.78 66 0 5.95-.79 11.95-1.29 18-1.5 1.8-1.51 3.63-1.67 5.5-.5 1.79-2.07 3.96-2.4 6.5-1 1.98.06 3.65-.6 5-2 3.03.99 5.36-.01 7-3 3.05-3.74 3.55-7.74 1.5-12-5.89-5.08-12.72-8.25-20.5-9.5-31.25.55-62.25 1.05-93 1.5 2.57-3.71 3.24-7.71 2-12 .25-1.21.91-1.88 2-2 4.27-.98 8.77-.98 13.5 0 3.21-.51 6.38-1.17 9.5-2 .38.25.75.5 1.12.75l.76.5Z" style="fill:#f79617" transform="translate(160)"/><path d="M505.5 1616.5c5.097 3.26 9.431 7.43 13 12.5 1.428.58 2.762.41 4-.5-.108 3.75.392 7.41 1.5 11l5 9c4.964 3.59 9.798 7.43 14.5 11.5 2.677.25 5.01 1.25 7 3 3.382.18 6.715.68 10 1.5 1.067 2.06 2.4 3.89 4 5.5 6.804.06 13.471.9 20 2.5 9.31-3.06 18.977-4.56 29-4.5a12.431 12.431 0 0 1 4-2.5 96.254 96.254 0 0 1 5.5 12c1.444 1.66 3.278 2.32 5.5 2-.244 3.93 1.59 6.26 5.5 7 .346 2.35 1.513 4.18 3.5 5.5 3.913 3.97 8.58 6.97 14 9 7.815 1.63 15.648 2.13 23.5 1.5 2.755.91 5.588 1.57 8.5 2 6.433-1.1 12.766-2.77 19-5 1.084.19 2.084.52 3 1 7.364 5.2 14.866 10.2 22.5 15 .939-3.44 3.105-5.77 6.5-7 1.386-6.75 5.553-10.08 12.5-10a33.901 33.901 0 0 1 12 6c3.044 6.5 6.211 12.83 9.5 19v2a528.51 528.51 0 0 1-4 14.5c.262 2.55.762 5.05 1.5 7.5 4.307 4.08 6.807 9.08 7.5 15 4.292-.47 8.292.37 12 2.5 8.857.24 17.69.74 26.5 1.5 12.347-.54 24.68-.87 37-1 8.214.81 16.389 1.98 24.5 3.5a47.323 47.323 0 0 0 7 4.5c2.95 3.59 3.617 7.59 2 12-6.5 2.92-13.181 5.43-20 7.5-22.497.6-44.997.43-67.5-.5-2.501.08-4.834.75-7 2-1.333-.67-2.667-1.33-4-2-6.6 1.33-13.4 1.33-20 0-2.175 1.13-4.509 1.79-7 2-8.316.04-16.649-.29-25-1-3.154.15-6.154.82-9 2-3.718-.6-7.384-1.26-11-2-6.857.46-13.857.46-21 0-1.813.33-3.48.99-5 2-1.333-.67-2.667-1.33-4-2-4.255.52-8.588.52-13 0-3.364.09-6.531.76-9.5 2-2.872-2.3-5.872-2.3-9 0-2.911-1.48-5.578-1.15-8 1a27.413 27.413 0 0 0-4.5-2c-1.779.98-3.445.65-5-1-1.721 1.39-3.721 2.06-6 2-8.489-.69-16.989-.69-25.5 0-.342-.84-1.008-1.17-2-1-7.822-.2-15.655-.2-23.5 0a33.85 33.85 0 0 0-6.5 3c-7.333-1.54-14.666-1.87-22-1h-1c-.506-1.61-1.173-1.94-2-1h-2c-.667 0-1 .33-1 1h-2c-1.935-.65-3.96-.99-6-1-3.745-.12-7.451-.8-11-2 1.365-2.25 1.031-4.25-1-6 3.048-2.77 5.048-6.1 6-10 17.892-.2 35.725-.2 53.5 0 3.478-.16 6.645-1.16 9.5-3 8.151.51 16.318.85 24.5 1a363.244 363.244 0 0 1 24.5-4.5c3.357-3.87 7.19-7.04 11.5-9.5.745-4.56 2.078-8.9 4-13 1.437-11.59-3.73-18.09-15.5-19.5a147.756 147.756 0 0 1-9-6c-2.399-.71-4.732-.54-7 .5a24.272 24.272 0 0 0-6.5-2c-15.6.91-31.1 1.24-46.5 1a25.202 25.202 0 0 0-7-3 6655.052 6655.052 0 0 1-132.5 5c-48.33-.73-96.665-1.06-145-1a53.577 53.577 0 0 0-5.5 2c-13.931-.85-27.765-1.52-41.5-2-9.442 2.02-18.942 2.18-28.5.5-6.802-3.91-8.469-9.41-5-16.5 2.749-2.36 5.416-4.86 8-7.5 4.304.21 7.804-1.29 10.5-4.5 1.555 1.35 3.389 2.01 5.5 2a654.653 654.653 0 0 0 30.5-5c29.34.81 58.84 1.48 88.5 2 23.814-1.24 47.654-1.91 71.5-2 8.18.65 16.346 1.32 24.5 2 1.124-5.48 3.291-10.48 6.5-15a50.625 50.625 0 0 0 1-15c-2.726-2.79-4.393-6.12-5-10a89.32 89.32 0 0 0-9.5-7c-2.3-2.55-4.967-3.22-8-2h-7c-1.834-.99-3.501-.99-5 0-10.145-.31-20.311-.65-30.5-1a11.243 11.243 0 0 0-3.5 2 27.057 27.057 0 0 0-7.5-4c-1.953 1.04-3.953 1.04-6 0-5.776 2.06-11.776 3.39-18 4-3.126-1.9-6.293-3.74-9.5-5.5-11.19-2.19-14.19-8.53-9-19 6.483-1.8 12.983-3.63 19.5-5.5 1.144.41 2.311.74 3.5 1a343.61 343.61 0 0 1 48-5c4.076 1.67 7.91 1.33 11.5-1a46.084 46.084 0 0 0 12.5 2c13.044.42 26.044 1.09 39 2 12.61-1.29 25.277-.96 38 1Zm41 180c-.992.17-1.658-.16-2-1 .827-.94 1.494-.61 2 1Z" style="fill:#fff8f1" transform="translate(160)"/></svg>