<svg xmlns="http://www.w3.org/2000/svg" xml:space="preserve" style="fill-rule:evenodd;clip-rule:evenodd;stroke-linejoin:round;stroke-miterlimit:2" viewBox="0 0 3200 2000"><path d="M630 726.4H170L0 400 170 73.6h460l170 326.402L630 726.4Zm-12.74-21H182.74L23.678 400 182.74 94.6h434.52l159.062 305.402L617.26 705.4Z" style="fill:#e94f36;stroke:#e94f36;stroke-width:.44px" transform="translate(734.593 167.174) scale(2.28248)"/><g transform="translate(734.593 167.174) scale(2.28248)"><clipPath id="a"><path d="M188.966 696H611l152.466-295.998L611 105H188.999L36.5 400l152.466 296Z"/></clipPath><g clip-path="url(#a)"><path d="M207.267 83.496v633.008" style="fill:none;stroke:#e94f36;stroke-width:6px;stroke-linecap:round;stroke-miterlimit:1.5" transform="translate(-45.667 25.413)"/><path d="M217.267 83.496v633.008" style="fill:none;stroke:#e94f36;stroke-width:6px;stroke-linecap:round;stroke-miterlimit:1.5" transform="translate(-137.067 58.958)"/><path d="M150.302 205.337v110.8m0 0h-67.09" style="fill:#e94f36;stroke:#e94f36;stroke-width:5.54px;stroke-linecap:round;stroke-miterlimit:1.5" transform="matrix(.86364 0 0 -1.26606 -3.906 873.171)"/><path d="M118.79 253.113h54.069" style="fill:none;stroke:#e94f36;stroke-width:6px;stroke-linecap:round;stroke-miterlimit:1.5" transform="translate(-11.13 18.297)"/><path d="M150.302 205.337v110.8m0 0h-67.09" style="fill:#e94f36;stroke:#e94f36;stroke-width:5.54px;stroke-linecap:round;stroke-miterlimit:1.5" transform="matrix(.86364 0 0 1.26606 -3.906 -74.044)"/><path d="M118.79 253.113h54.069" style="fill:none;stroke:#e94f36;stroke-width:6px;stroke-linecap:round;stroke-miterlimit:1.5" transform="matrix(1 0 0 -1 -11.13 780.83)"/><path d="M163.711 348.666h-32.529v115.883h32.529" style="fill:none;stroke:#e94f36;stroke-width:6px;stroke-linecap:round;stroke-miterlimit:1.5" transform="translate(-2.082 -6.607)"/><path d="m34.534 400 49 .002" style="fill:none;stroke:#e94f36;stroke-width:6px;stroke-linecap:round;stroke-miterlimit:1.5" transform="translate(45.666)"/><path d="M207.267 83.496v633.008" style="fill:none;stroke:#e94f36;stroke-width:6px;stroke-linecap:round;stroke-miterlimit:1.5" transform="matrix(-1 0 0 1 845.667 25.413)"/><path d="M217.267 83.496v633.008" style="fill:none;stroke:#e94f36;stroke-width:6px;stroke-linecap:round;stroke-miterlimit:1.5" transform="matrix(-1 0 0 1 937.067 58.958)"/><path d="M150.302 205.337v110.8m0 0h-67.09" style="fill:#e94f36;stroke:#e94f36;stroke-width:5.54px;stroke-linecap:round;stroke-miterlimit:1.5" transform="matrix(-.86364 0 0 -1.26606 803.906 873.171)"/><path d="M118.79 253.113h54.041" style="fill:none;stroke:#e94f36;stroke-width:6px;stroke-linecap:round;stroke-miterlimit:1.5" transform="matrix(-1 0 0 1 811.13 18.297)"/><path d="M150.302 205.337v110.8m0 0h-67.09" style="fill:#e94f36;stroke:#e94f36;stroke-width:5.54px;stroke-linecap:round;stroke-miterlimit:1.5" transform="matrix(-.86364 0 0 1.26606 803.906 -74.044)"/><path d="M118.79 253.113h54.041" style="fill:none;stroke:#e94f36;stroke-width:6px;stroke-linecap:round;stroke-miterlimit:1.5" transform="rotate(-180 405.565 390.415)"/><path d="M163.682 348.666h-32.528v115.883h32.528" style="fill:none;stroke:#e94f36;stroke-width:6px;stroke-linecap:round;stroke-miterlimit:1.5" transform="matrix(-1 0 0 1 802.082 -6.607)"/><path d="m34.534 400 47.997.002" style="fill:none;stroke:#e94f36;stroke-width:6px;stroke-linecap:round;stroke-miterlimit:1.5" transform="matrix(-1 0 0 1 754.334 0)"/></g></g><path d="M188.966 696H611l152.466-295.998L611 105H188.999L36.5 400l152.466 296Zm4.872-7.99L45.491 400.007 193.863 112.99h412.272l148.34 287.018L606.128 688.01h-412.29Z" style="fill:#e94f36;stroke:#e94f36;stroke-width:.44px" transform="translate(734.593 167.174) scale(2.28248)"/><path d="M1607.37 226.75c.55-.75 1.09-1.5 1.63-2.25.49 1.293.66 2.627.5 4 5.96-.989 12.13-1.322 18.5-1 5.65 1.994 11.15 1.994 16.5 0 3.17.961 6.17.294 9-2 .59.209 1.09.543 1.5 1a90.212 90.212 0 0 1 16.5-3c2.29 1.618 52.16-12.313 52-15 3.25.685 6.42 1.685 9.5 3 1.56-3.228 4.06-5.395 7.5-6.5 4.39.178 8.73 1.012 13 2.5a15.617 15.617 0 0 1 4-2.5c6.96-.394 13.3 1.939 19 7 7.06 1.192 12.39 4.859 16 11a42.636 42.636 0 0 0 11 5.5c.31 5.591 45.08 12.13 52.33 16.051 22.07-.043 52.74-.228 54.67-.551 1.52-1.508 3.35-2.342 5.5-2.5a42.65 42.65 0 0 1 10 5c2.74-3.541 6.41-5.541 11-6a97.771 97.771 0 0 1 11.5 4c5.5-1.107 10.5-3.274 15-6.5 2.36-5.014 6.36-7.181 12-6.5 6.35.823 12.02 3.323 17 7.5 6.4.712 9.4 4.046 9 10 3.72-.995 7.39-.661 11 1a96.148 96.148 0 0 1 8 11.5c2.27.814 4.6 1.314 7 1.5l10.5 8.5a20.84 20.84 0 0 1 2 6c6.09-2.207 10.59-.374 13.5 5.5 6.94 3.958 13.28 8.625 19 14a90.937 90.937 0 0 1 8 10c2.92.988 5.92 1.654 9 2 2.5 1.666 4.83 3.5 7 5.5.21 1.517 73.42 49.502 73 46h5c-.53 3.978.97 6.978 4.5 9 6.55 12.288 11.55 25.288 15 39a39.784 39.784 0 0 1 9 6 84.944 84.944 0 0 1 8.5 17.5c-1.59 2.622-1.76 5.122-.5 7.5 4.18.171 7.35 2.004 9.5 5.5 3.96.312 6.96 2.145 9 5.5 3.55-1.98 7.22-2.646 11-2 6.96.967 13.96 2.633 21 5 4.82-2.616 9.65-2.616 14.5 0 4.26-1.976 8.42-4.142 12.5-6.5h6c3-4.002 7-6.168 12-6.5 2.34-3.844 5.67-6.344 10-7.5 3.55-1.028 7.05-2.195 10.5-3.5 2.76.714 5.43 1.714 8 3 1.77-.77 3.27-1.937 4.5-3.5 1.53-.923 3.2-1.423 5-1.5a92.815 92.815 0 0 1 12 4.5l11 1a210.381 210.381 0 0 1 23 12c.67 1 1.33 2 2 3 3.87.937 7.58 2.454 11 4.5 8.77-3.213 15.77-.88 21 7 4.96-2.711 9.63-2.211 14 1.5 4.86.189 9.52 1.189 14 3a25.7 25.7 0 0 1 5.5 6.5c8.07.77 16.24.77 24.5 0 2.87.431 5.53 1.431 8 3a39.316 39.316 0 0 1 6-4.5c4.97-.886 9.97-1.552 15-2 4.22-2.784 8.89-4.451 14-5a322.039 322.039 0 0 1-11.5-12.5c-1.29-2.851-1.79-5.851-1.5-9-2.77.28-5.27-.387-7.5-2a79.822 79.822 0 0 0 2-15c-1.74-1.216-2.74-2.882-3-5a15.779 15.779 0 0 0-5.5-3.5c-3.12-4.684-6.96-8.851-11.5-12.5-1.67-6.175-4.5-11.675-8.5-16.5-2.03-.498-4.03-.331-6 .5-5.59-3.13-11.26-3.464-17-1 1.03-3.717 2.86-7.05 5.5-10 .79-3.134-50.51-13.324-53.5-11-4.37-1.812-9.04-2.979-14-3.5a151.666 151.666 0 0 0-17-12l-9-1c-2.97-2.004-6.31-3.004-10-3-4.93-2.838-10.26-4.838-16-6-3.22-1.43-5.55-3.763-7-7-5.16.473-9.49-1.027-13-4.5 1.28-2.114 3.28-3.114 6-3 .16-2.027-23.29-13.135-25-12-2.62-.98-4.95-2.48-7-4.5-7.78.003-14.78-2.163-21-6.5-2.63.94-5.3 1.107-8 .5a32.09 32.09 0 0 1-11-4.5 22.252 22.252 0 0 1-6 3c-1.36 5.023-4.7 7.023-10 6l-6-.5a76.07 76.07 0 0 0-11-4 14.015 14.015 0 0 1-3-4c-3.94-.003-7.6-.836-11-2.5-.95.487-1.95.82-3 1a39.287 39.287 0 0 0-8-2.5c-3.7-5.729-3.7-11.396 0-17-7.2-8.876-15.87-15.876-26-21a735.513 735.513 0 0 0-23-27.5 352.679 352.679 0 0 1-26-9.5 20.238 20.238 0 0 0-7.5-7.5c.04-1.779.71-3.445 2-5a4.905 4.905 0 0 1 2.5-1c3.34.624 6.51 1.624 9.5 3 1.23-.145 2.39-.478 3.5-1 .44 1.198.77 2.365 1 3.5 2.72-1.07 4.89-.237 6.5 2.5l1-1c2.11.811 4.11 1.811 6 3 2.75-.764 5.42-1.097 8-1 6.11 4.945 10.94 10.945 14.5 18 9.88 8.253 20.88 14.753 33 19.5 2.33 1 4 2.667 5 5 4.14-.757 7.14.909 9 5 7.76.79 15.43 1.956 23 3.5 4.41-2.066 8.91-2.399 13.5-1 2.17-2.167 4.33-4.333 6.5-6.5 4.22-2.438 8.38-1.938 12.5 1.5 3.07-1.117 6.24-1.284 9.5-.5a161.99 161.99 0 0 1 22.5 10.5c1.89-.597 3.72-.931 5.5-1 3.44 3.783 7.61 5.116 12.5 4 1.26.259 2.26.926 3 2 1.09-4.687 3.17-4 4.5 0 2.39 1.887 4.89 2.554 7.5 2l1.5-1.5c-1.17-1.167-2.33-2.333-3.5-3.5-.06-6.741-1.89-12.908-5.5-18.5 1.24-2.884 1.08-5.718-.5-8.5-3.97-4.967-8.3-9.634-13-14a88.38 88.38 0 0 1-10.5-20.5c-4.52-4.026-9.52-4.526-15-1.5a118.697 118.697 0 0 0-12-8.5l-10-1a212.9 212.9 0 0 1-25-11.5c-1.83 1.429-3.83 1.929-6 1.5a380.316 380.316 0 0 0-27-20 360.803 360.803 0 0 1-21.5-23.5 10.06 10.06 0 0 1-1.5-6 106.327 106.327 0 0 0-18-3.5c-1.83-.273-3.33-1.107-4.5-2.5-.89.581-1.89.915-3 1a516.611 516.611 0 0 1-16.5-4.5c-.17-.25-.33-.5-.5-.75l-1-1.5c-.17-.25-.33-.5-.5-.75a29.927 29.927 0 0 1-9-2 281.76 281.76 0 0 0-18-12c-4.79-4.255-9-9.132-12.5-14.5-1.64-2.31-3.8-3.81-6.5-4.5a20.069 20.069 0 0 1 4-3.5c.44 1.198.77 2.365 1 3.5 16.53 4.608 32.19 10.274 47 17 9.5 2.5 19.21 4.173 29 5l1.5 1.5c1.36-.88 2.86-1.214 4.5-1-1.07 4.678 38.04 30.948 41 29a995.02 995.02 0 0 0 18 13.5 69.508 69.508 0 0 0 18 3 158.77 158.77 0 0 0 27 11c8.76.623 17.42 1.623 26 3 8.51 9.338 17.17 18.505 26 27.5-1.25 1.636 29.47 52.927 31 53a8.392 8.392 0 0 0 .5 4l9 9a25.736 25.736 0 0 1 2 8c1.51.757 2.85 1.757 4 3 2.77 4.555 5.77 8.888 9 13a33.238 33.238 0 0 1 3.5 9.5c4.32 3.564 9.32 5.564 15 6 2.95 3.789 6.28 7.123 10 10 2.95.005 5.95-.161 9-.5 6.77-.566 11.11 2.434 13 9 5.14 4.486 10.97 7.486 17.5 9 .41-.457.91-.791 1.5-1 7.07 1.739 14.08 3.74 21 6 .47 6.827 51.24 35.814 55 37a77.005 77.005 0 0 1 3.5 12c3.71 3.826 4.55 8.326 2.5 13.5a30.911 30.911 0 0 1 3 8.5c2.52.255 4.85 1.089 7 2.5a93.307 93.307 0 0 0 17 17.5c1.99 2.65 2.99 5.65 3 9 4.5.414 7.83 2.581 10 6.5 5.08 1.75 8.91 4.917 11.5 9.5 5.42 2.421 9.09 6.421 11 12 2.74 1.24 4.58 3.24 5.5 6-2.92.501 49.86 56.839 55.5 60 3.62-.399 6.79-1.732 9.5-4a4.947 4.947 0 0 0 .5 3 14.446 14.446 0 0 1 4 5c.42 3.678.92 7.345 1.5 11 .65 5.731-.01 11.397-2 17 3.24 2.921 6.41 5.922 9.5 9a29.924 29.924 0 0 1 2 9c9.44 2.928 14.6 9.261 15.5 19 5.54 1.371 9.37 4.704 11.5 10a36.204 36.204 0 0 1 4-7c.19-3.539 1.35-6.705 3.5-9.5-4.74-3.452-7.74-8.119-9-14 .05-4.853.05-9.687 0-14.5 1.97-3.573 2.31-7.239 1-11-.06-2.589.61-4.923 2-7a54.837 54.837 0 0 0-2-7 34.422 34.422 0 0 0 2.5-11 15.73 15.73 0 0 1 3.5-5.5c-4.3-6.238-3.8-12.072 1.5-17.5.59-5.017.42-10.017-.5-15 .29-4.306 1.3-8.532 3-12.5-.94-7.465-2.44-14.965-4.5-22.5-8.7-6.595-12.2-15.261-10.5-26-2.7-2.442-5.53-4.776-8.5-7a42.67 42.67 0 0 1-4-11c-10.15-11.626-17.15-24.959-21-40-3.82-3.435-5.49-7.769-5-13-2.55-3.226-4.05-6.893-4.5-11-7.8-8.083-15.63-16.083-23.5-24-.33-1.667-.67-3.333-1-5a14.446 14.446 0 0 1-4-5c-1.83-1.574-3.99-2.407-6.5-2.5a10.98 10.98 0 0 1-3-4.5c-4.33-.992-6.99-3.659-8-8-3.87-1.366-7.03-3.7-9.5-7-1.05-2.999-3.21-4.499-6.5-4.5-3.89-3.501-7.73-7.001-11.5-10.5-6.85-3.528-13.68-7.028-20.5-10.5-3.36-.771-6.69-1.605-10-2.5-2.01 1.671-4.34 2.338-7 2-.28-1.882-.37-3.706-.26-5.474-1.35 2.13-2.08 3.615-1.74 3.974-.56.383-3.91-6.441-19.5-17.5-.24-3.49-25.24-11.156-25-15a9.339 9.339 0 0 1 2.5-1.5c-14.84-6.555-29.84-11.721-45-15.5-1.38.117-2.73.455-4 1a25.35 25.35 0 0 0-4-4.5 88.75 88.75 0 0 0-15-8 154.404 154.404 0 0 0-33-5 20.634 20.634 0 0 1-6.5-6.5c-2.4-5.189-4.4-10.523-6-16a143.577 143.577 0 0 1-17-23c-4.33-2.326-8.66-4.66-13-7-2.33 1.382-4 .716-5-2-.69-.832-.52-1.498.5-2 1.75 2.031 3.75 2.365 6 1 4.73 1.477 9.4 3.145 14 5a552.994 552.994 0 0 1 31 37.5c6.63.27 13.29.937 20 2 11.21 1.647 21.55 4.98 31 10 .17.25.33.5.5.75l1 1.5c.17.25.33.5.5.75 3.15 1.496 6.32 2.996 9.5 4.5.41-.457.91-.791 1.5-1a35.178 35.178 0 0 0 9 5 15.771 15.771 0 0 0 4-2c-2.3-4.125-4.8-8.13-7.5-12a113.012 113.012 0 0 0-9-23 18.778 18.778 0 0 0-4.5-5.5c-7.14-1.807-11.64-6.307-13.5-13.5a25.7 25.7 0 0 1-5.5-6.5c1.74-.651 3.4-.485 5 .5 1.02-.502 1.19-1.168.5-2a95.311 95.311 0 0 0-7-11c-1.44-1.655-3.28-2.322-5.5-2 .14-1.624-.53-2.79-2-3.5-4.03-.872-8.03-1.872-12-3-16.34-6.329-32.67-12.662-49-19-8.43-8.869-18.43-14.535-30-17-2.76-2.402-2.42-4.402 1-6-1.82-2.244-4.15-3.41-7-3.5.48-2.778-.52-4.778-3-6-2.47-7.286-6.13-13.786-11-19.5.17-1.117.5-2.284 1-3.5 1.22-1.114 2.56-1.28 4-.5a202.262 202.262 0 0 1 19.5 27.5l19.5 11.5c7.15 3.13 14.31 6.297 21.5 9.5a3.963 3.963 0 0 1 2-1c10.14 2.375 19.64 5.541 28.5 9.5 7.27 2.146 14.6 3.979 22 5.5 3.44-1.249 6.78-.916 10 1a109.613 109.613 0 0 0 13.5 15 19.134 19.134 0 0 0 3 5c.74 1.941.58 3.774-.5 5.5 2.36.589 3.36 2.089 3 4.5a4.934 4.934 0 0 1 3 .5c5.85 4.513 10.18 10.18 13 17-.24.873-.57 1.707-1 2.5a153.771 153.771 0 0 1 7 23c9.57 9.732 18.9 19.566 28 29.5 1.01 1.372 31.53 12.704 41.74 16.976a47.729 47.729 0 0 0 6.76-2.476c3.51.878 6.84 2.211 10 4 .72-.951 1.55-1.117 2.5-.5a215.51 215.51 0 0 1 29 26.5c4.02.521 6.69 2.688 8 6.5 3.78 1.138 7.22 3.2 10 6 3.83 4.5 8 8.667 12.5 12.5-.78-2.793-.61-5.626.5-8.5-.4-2.9-1.07-5.733-2-8.5a289.254 289.254 0 0 0-10.5-14c-1.67-10.317-3-20.65-4-31-3.07-6.562-7.07-12.562-12-18a20.008 20.008 0 0 1-2.5-9c-4.09.795-7.26-.538-9.5-4a136.78 136.78 0 0 0-15-24 40.381 40.381 0 0 1-2-11c-4.4-3.582-5.24-7.749-2.5-12.5a14.606 14.606 0 0 1-4.5-4.5 1317.661 1317.661 0 0 1-6-33c-3.48-6.903-8.64-12.237-15.5-16-3.2-2.846-5.54-6.18-7-10-1.32.17-2.49-.163-3.5-1a132.96 132.96 0 0 0-11-16c-2.64-5.972-5.14-11.639-7.5-17 .58-4.325 1.25-4.658 2-1h3c-.11 2.403.89 4.236 3 5.5 3.28 1.617 5.95 3.95 8 7a44.988 44.988 0 0 1 9.5 5.5c.49 1.293.66 2.627.5 4 3.05-.046 5.72.954 8 3a46.748 46.748 0 0 0 12 8.5c.69 1.074 1.2 2.257 1.5 3.5 1.51-1.035 3.01-.868 4.5.5 2.11 3.427 4.78 6.26 8 8.5.31 4.713 5.09 27.329 10 30a615.727 615.727 0 0 1 19.5 49c3.37 5.267 8.2 7.767 14.5 7.5a84.525 84.525 0 0 0 12 14.5c-.35 3.585.32 6.918 2 10-.59 3.131.41 5.464 3 7 1.15 2.959 33.03 28.938 35.5 27a31.224 31.224 0 0 1 5.5 9c-.11.617-.44 1.117-1 1.5 2.42 4.275 3.09 8.775 2 13.5.41 5.13 1.74 9.963 4 14.5-.58 2.499-1.92 4.499-4 6 4.18 3.667 6.18 8.334 6 14a19.992 19.992 0 0 1-4 8.5c5.58 2.823 7.58 7.157 6 13 2.23 2.917 2.57 6.083 1 9.5 1.76 3.08 2.1 6.247 1 9.5 1.95 2.48 3.29 5.313 4 8.5-.13.75-.48 1.445-1 2a24.99 24.99 0 0 1 3 11.5c2.4-.107 4.24.893 5.5 3a39.862 39.862 0 0 0 6 9 307.68 307.68 0 0 0 9.5 23h3c-.77 3.682.56 6.182 4 7.5-.46.414-.79.914-1 1.5 1.93 1.56 3.26 3.56 4 6-.2.576-.55 1.092-1 1.5 2.78 1.338 5.28 3.171 7.5 5.5.54 2.369 1.7 4.369 3.5 6 4.28 1.065 8.62 1.898 13 2.5 1.79 3.582 3.63 7.082 5.5 10.5a252.253 252.253 0 0 0 11.5 44c-1.04 2.29-1.04 4.624 0 7-.73 5.126-3.23 9.126-7.5 12a20.567 20.567 0 0 0-3 8c-.21.208-.42.417-.62.625l-1.26 1.25c-.2.208-.41.417-.62.625.79 2.75.79 5.583 0 8.5-1.32-.17-2.49.163-3.5 1a30.67 30.67 0 0 0-4.5 12 7.28 7.28 0 0 0 2 2.5c-2.11 2.309-2.78 4.809-2 7.5-.92 6.438-.25 12.771 2 19a360.25 360.25 0 0 0 0 27.5 31.939 31.939 0 0 0-2 7.5 328.853 328.853 0 0 1 6.5 37c.44 4.017 2.61 6.517 6.5 7.5a7.035 7.035 0 0 1 2.5 3.5c.25 4.94 1.09 9.773 2.5 14.5-.08.25-.17.5-.25.75l-.5 1.5c-.08.25-.17.5-.25.75 5.45 4.559 8.78 10.392 10 17.5-1.04 2.268-1.21 4.601-.5 7 2.39 1.767 4.06 4.1 5 7a67.908 67.908 0 0 0 2.5 14c2.25.753 4.09 2.086 5.5 4 1.03 3.929 1.86 7.929 2.5 12a15.883 15.883 0 0 1 5.5 6 87.758 87.758 0 0 0 3.5 12c-.07 1.272-.4 2.438-1 3.5a71.84 71.84 0 0 1 5 8c5.7 4.61 11.54 9.11 17.5 13.5 1.74 2.809 2.91 5.809 3.5 9 9.54-.653 16.21 3.514 20 12.5 7.38.043 11.71 3.71 13 11 4.07 2.281 6.57 5.781 7.5 10.5a60.259 60.259 0 0 0 4.5 15.5 15.968 15.968 0 0 1-2 6c.91.367 1.75.873 2.5 1.5a247.895 247.895 0 0 0 8.5 16c-.6.235-.93.735-1 1.5 6.89 13.379 22.3 54.227 29 52.5 3.71 6.349 8.21 12.349 13.5 18 2.57 4.142 4.91 8.476 7 13a28.781 28.781 0 0 1 6 4 65.622 65.622 0 0 1 6.5 16c-1.88 6.045-5.71 10.379-11.5 13-1.6 6.605-5.77 9.772-12.5 9.5l-1.5 1.5c.07 5.26-.93 10.26-3 15-2.4 3.116-5.57 4.449-9.5 4-2.75.147-5.25-.52-7.5-2-1.74.627-3.57.96-5.5 1a710.182 710.182 0 0 0-18-1.5c-3.41-2.298-5.74-5.465-7-9.5a25.687 25.687 0 0 1-4.5-4 197.094 197.094 0 0 1-5-17c-3.53-2.052-5.86-5.052-7-9-1.61-3.293-1.77-6.627-.5-10-6.53-4.329-9.7-10.329-9.5-18a38.852 38.852 0 0 1-6-13 77.666 77.666 0 0 0-11-10c-1.01-1.525-1.51-3.192-1.5-5a4.934 4.934 0 0 1-3-.5 56.627 56.627 0 0 0-9.5-8.5 90.22 90.22 0 0 1-15.5-20c-1.44.563-2.94.897-4.5 1a72.416 72.416 0 0 0-13.5-3.5c-6.17-4.819-13.17-7.819-21-9-3.49-4.743-8.15-7.41-14-8a20.927 20.927 0 0 0-9.5-5.5c-9.12 1.517-17.12-.817-24-7l-1.5 1.5c-5 .667-10 .667-15 0a15.617 15.617 0 0 1-4-2.5c-4.5 2.312-78.07 23.822-77 28 1.44 1.32 2.11 2.986 2 5-5.36-1.748-9.86-.414-13.5 4-7.29-2.801-13.46-1.134-18.5 5-3.61.824-7.3 1.326-11 1.5a8.907 8.907 0 0 0-4 3l-6 1a93.238 93.238 0 0 0-12 11c-3.6.154-6.93 1.154-10 3a96.598 96.598 0 0 0-10 8.5c-4.22 1.1-7.22 3.6-9 7.5-4.92 1.979-8.92 5.146-12 9.5a332.12 332.12 0 0 1-22 10.5c-3.06.741-6.06.575-9-.5-2.96 1.501-6.13 2.167-9.5 2a151.136 151.136 0 0 1-21.5-3.5 134.759 134.759 0 0 0-18-7 70.798 70.798 0 0 0-10-6 58.39 58.39 0 0 1-13.5-2.5c-12.19 1.159-24.19 1.159-36 0-4.52-.162-8.68-1.329-12.5-3.5l-12-1c-2.49-3.243-5.82-4.909-10-5a6.59 6.59 0 0 0-3-3 313.83 313.83 0 0 0-26-7c-.45-.408-.8-.924-1-1.5 4.7-1.51 9.23-3.522 13.5-6l1 1c5.98-1.773 11.98-3.44 18-5l6 2c2.33-1.333 4.67-1.333 7 0 2.18-.616 4.01-1.783 5.5-3.5 3.54-.282 7.04-.782 10.5-1.5 6.48-.272 12.98-.272 19.5 0 5.13-2.203 10.13-1.87 15 1 4.76-3.551 9.76-3.885 15-1 1.11-.522 2.27-.855 3.5-1 3.48.623 6.98 1.123 10.5 1.5.21.208.42.417.62.625l1.26 1.25c.2.208.41.417.62.625 5.87-.67 11.04 1.164 15.5 5.5 7.77.93 15.27 2.764 22.5 5.5 6.17-7.678 14-10.678 23.5-9l3-1.5a29.95 29.95 0 0 1-7-6c-8.98.758-16.98-1.575-24-7-2.06-1.532-3.4-3.532-4-6-6.47.595-11.47-1.738-15-7a31.859 31.859 0 0 1-6-1.5v-1c-1.27-6.593-51.97-42.26-53-45.5l-8-1a332.862 332.862 0 0 1-27-22.5c-5.16-1.49-8.16-4.824-9-10-2.15.128-4.15-.372-6-1.5-1.67-2.559-4-4.225-7-5a10.98 10.98 0 0 1-3-4.5c-5.72-1.052-9.05-4.385-10-10-4.41.877-7.74-.623-10-4.5-2.73-.21-5.23-1.044-7.5-2.5-6.42 1.143-12.92 1.31-19.5.5a214.127 214.127 0 0 1-18-4c-3.53-1.5-7.03-3-10.5-4.5l-1.5 1.5c-8.99 1.559-17.99 3.059-27 4.5-.24 2.763-1.58 4.929-4 6.5-6.9 4.851-13.9 9.517-21 14-2.73.728-5.4.562-8-.5-4.03 4.681-9.03 7.848-15 9.5-3.69.559-7.35 1.226-11 2a52.23 52.23 0 0 1-18 7c-2.73.728-5.4.562-8-.5-1.97.805-3.47 2.139-4.5 4-5.85-.054-10.68-2.221-14.5-6.5-4.88-3.035-9.88-3.202-15-.5-1.02-.502-1.19-1.168-.5-2 1.76-.793 3.3-1.993 4.5-3.5a12.109 12.109 0 0 0-4.5-3.5c-.3-1.243-.81-2.426-1.5-3.5-4.7.484-8.36-1.183-11-5-.95-.617-1.78-.451-2.5.5-4.72-5.191-10.39-8.857-17-11-.14-3.894 1.02-7.394 3.5-10.5 4.14-1.243 8.31-2.41 12.5-3.5 3.01 2.019 5.68 4.352 8 7 .8-1.304 1.97-1.971 3.5-2 7.75 2.31 15.59 4.312 23.5 6 .96-1.394 2.29-2.061 4-2 4.5 1.96 9 2.127 13.5.5 11.59-7.628 23.92-13.961 37-19 7.95-3.92 15.95-7.92 24-12 1.69-2.304 8.03-9.739 8-14.5 3.05-.577 5.05.59 6 3.5 1.24.791 2.58 1.291 4 1.5-1.47 4.067 68.13 3.466 67 1a6.943 6.943 0 0 1-1-4c1.97.239 3.8-.094 5.5-1 3.67 2.667 7.33 2.667 11 0 3.95 3.426 8.12 3.759 12.5 1 3.33 1.333 6.67 1.333 10 0a186.02 186.02 0 0 0 27 16c.91 3.631 26.74 27.177 29.5 28 .5-2.044 1.66-3.378 3.5-4 1.84 1.008 3.17 2.508 4 4.5 1.75.471 3.41 1.138 5 2 4.38 4.048 9.05 7.715 14 11 1.92 1.42 3.26 3.253 4 5.5 5.56 2.059 9.23 5.892 11 11.5 6.73 2.063 12.39 5.73 17 11 2.79.241 5.46.908 8 2a51.133 51.133 0 0 0 8 9c6.12.551 10.12 3.718 12 9.5 5.09.193 9.43 2.026 13 5.5 4.48 1.743 8.82 3.743 13 6 3.55 4.185 8.05 6.685 13.5 7.5 4.71-.248 9.38-.248 14 0 4.37-2.134 8.87-2.468 13.5-1a27.058 27.058 0 0 1 6-3.5c5.36-.264 10.7-.764 16-1.5 5.96-4.656 12.63-6.322 20-5a39.316 39.316 0 0 1 6-4.5c2.87-.118 5.54-.784 8-2 4.2-.922 8.2-.422 12 1.5 9.26-9.627 20.59-14.96 34-16 4.22-4.775 9.55-7.442 16-8 3.79-4.892 8.62-6.225 14.5-4 3.4-3.703 7.56-4.869 12.5-3.5a59.73 59.73 0 0 1 6.5 3.5 33.272 33.272 0 0 1 11.5-4 153.554 153.554 0 0 1 16 6c6.79-1.094 13.46-.427 20 2 3.21-.32 6.55-.32 10 0-1.35-12.062-7.18-21.062-17.5-27a37.982 37.982 0 0 0-6-10 56.192 56.192 0 0 1-14.5-3.5 139.093 139.093 0 0 0-12.5-15.5c-11.18-4.574-17.68-12.741-19.5-24.5.55-3.528 1.55-6.861 3-10-.09-1.107-.42-2.107-1-3 2.22-8.645 1.39-17.145-2.5-25.5-.78-2.929-.61-5.763.5-8.5-2.95-3.968-4.29-8.468-4-13.5-9.35.156-14.52-4.511-15.5-14a60.176 60.176 0 0 1-11.5-11 57.03 57.03 0 0 1-3-12c-6.24-3.465-9.74-8.799-10.5-16a91.306 91.306 0 0 1-12.5-9.5 7.166 7.166 0 0 0 2-2.5c-.26-1.843-.42-3.843-.5-6-2.61-2.36-5.11-4.86-7.5-7.5-1.28-.684-2.45-.517-3.5.5-.8-4.133-3.3-5.966-7.5-5.5-5.85-3.17-11.19-7.17-16-12-5.4-.597-10.4-2.264-15-5-3.26-2.087-5.59-4.921-7-8.5-5.01.899-9.35-.601-13-4.5-3.85-.036-6.35-1.869-7.5-5.5-1.72.462-3.55.628-5.5.5 1.27 1.246-4.91-1.745-6.5-5.5a120.765 120.765 0 0 1-17.5 5.5 100.2 100.2 0 0 1-20 0l-1.5-1.5c-1.72 1.944-3.89 2.944-6.5 3-6.41-1.132-11.74-4.132-16-9-3.11 1.684-6.45 2.35-10 2-1.48-1.674-1.4-4.438-3-6-1.56-1.521-3.86-2.065-5.94-2.723-6.74-2.138-19.61-4.852-26.57-5.492-2.82-.259-5.96-1.063-8.49.215a2.424 2.424 0 0 1-2-.5c1.64-1.129-46.96-19.776-46-11.5-2.61.223-4.28-.944-5-3.5a12.94 12.94 0 0 0-5-.5c0-.667-.33-1-1-1-1.92-1.368-4.08-2.368-6.5-3-5.03 1.851-9.53 1.017-13.5-2.5a72.464 72.464 0 0 0-17 0 14.616 14.616 0 0 1-6 4c-5.69 2.289-11.69 3.622-18 4-3.56 3.637-7.73 4.803-12.5 3.5-.21.208-.42.417-.62.625l-1.26 1.25c-.2.208-.41.417-.62.625-3.59.789-7.09.622-10.5-.5-2.45 2.973-5.61 4.473-9.5 4.5-6.33.667-12.67.667-19 0l-1.5-1.5c-7.16 3.396-12.99 1.73-17.5-5a42.444 42.444 0 0 1-14-5.5 38.923 38.923 0 0 1-5-5.5c-12.99-2.654-24.99-7.821-36-15.5a740.008 740.008 0 0 0-19-3 82.21 82.21 0 0 1-10.5-11.5 32.622 32.622 0 0 0-4-9c-1.15-4.329-.32-8.162 2.5-11.5-1.47-4.425-2.8-8.925-4-13.5.36-1.93 1.04-3.789 2-5.5-4.58-2.748-7.91-6.581-10-11.5-4.36-3.051-7.53-7.051-9.5-12a76.74 76.74 0 0 0-2.5-12c-1.54-1.247-3.04-1.247-4.5 0-1.76-6.968-6.26-10.135-13.5-9.5-2.32-1.924-4.99-3.257-8-4-2.4-2.703-3.74-5.87-4-9.5a338.436 338.436 0 0 0-24-9.5 78.5 78.5 0 0 0-12-9c-8.53-10.449-18.86-18.782-31-25a89.08 89.08 0 0 1-13-14.5c-.82-.886-1.82-1.219-3-1a66.715 66.715 0 0 0-5-10 64.93 64.93 0 0 0-16-1c-.06-.543-.39-.876-1-1-3.84 2.89-8.01 3.557-12.5 2a104.783 104.783 0 0 1-17.5 2.5c-4.61 3.033-9.61 4.033-15 3-1.17-1.167-2.33-2.333-3.5-3.5a27.048 27.048 0 0 0-6.5 5.5c-7.49 1.163-14.99 2.329-22.5 3.5a387.654 387.654 0 0 1-15.5 10c-7.79 10.406-17.12 19.24-28 26.5-2.65.497-5.31.664-8 .5-.74 5.237-3.74 8.404-9 9.5-1.92 2.928-4.58 4.594-8 5-.17.25-.33.5-.5.75l-1 1.5c-.17.25-.33.5-.5.75-4.23.787-8.23 2.12-12 4a11.451 11.451 0 0 0-1.5 3.5c-.96.875-1.92 1.75-2.87 2.625l-5.76 5.25c-.95.875-1.91 1.75-2.87 2.625l-5 1c-2.58 4.918-6.58 7.918-12 9-1.65 4.665-4.98 7.165-10 7.5-1.45 9.102-6.45 15.102-15 18a98.703 98.703 0 0 0-3.5 11c-1.57 2.423-3.74 3.756-6.5 4a31.033 31.033 0 0 1-4.5 12 20.53 20.53 0 0 1-7 5 25.736 25.736 0 0 1-2 8 25.285 25.285 0 0 1-10.5 4c-1.03 1.861-2.53 3.195-4.5 4-1.59 6.551-5.76 9.218-12.5 8-1.07-.377-23.82 15.106-23 16-10.06.031-84.06 1.865-94 3.5-8.03-2.91-16.03-5.91-24-9l-10-1c-6.77-2.519-13.1-5.686-19-9.5-3.69 2.002-7.69 3.168-12 3.5a14.446 14.446 0 0 1-4 5 116.517 116.517 0 0 0-17 7c-4.6-.101-8.6 1.232-12 4l-11 1c-3.44 2.254-7.1 2.754-11 1.5a59.459 59.459 0 0 0-12 5.5c-4.33.667-8.67.667-13 0-1.18-1.317-2.68-1.484-4.5-.5-4.87-2.291-10.03-3.791-15.5-4.5-2.22-.652-3.39-2.152-3.5-4.5-1.67 2.71-2.5 2.543-2.5-.5a7.264 7.264 0 0 1 2-3.5c-1.72-4.148-.39-6.981 4-8.5a19.97 19.97 0 0 0 8-2.5c2.23.364 4.07 1.364 5.5 3 2.7-1.001 5.2-.501 7.5 1.5 3.74.929 7.24.429 10.5-1.5.72.559 1.56.892 2.5 1a28.552 28.552 0 0 1 9-4.5c4.05-4.522 9.05-7.689 15-9.5a18.701 18.701 0 0 1 2-3.5c6.93-2.221 12.93-5.887 18-11a45.77 45.77 0 0 1 9-2.5c4.75-.319 42.59-10.589 45-12a504.992 504.992 0 0 1 21 6.5c2.5 1.167 4.33 3 5.5 5.5 4.67-4.417 9.83-5.083 15.5-2 3.7-2.034 7.53-2.368 11.5-1 2.12-1.416 20.92-3.331 36.32-4.836a2.978 2.978 0 0 0-.82-.664c-1.32-.816 23.01-4.983 23-6.5 4.17.191 8.34.524 12.5 1 3.34.077 6.51-.59 9.5-2 1.77.387 3.44 1.053 5 2 .4-8.571 4.56-14.571 12.5-18-.12-4.521 1.21-8.521 4-12 3.62-2.944 6.45-6.444 8.5-10.5 2.16-.912 4.33-1.745 6.5-2.5a77.995 77.995 0 0 0 9-16c4.93-5.291 10.27-9.957 16-14a32.373 32.373 0 0 1 3-7c3.42-3.757 7.59-6.257 12.5-7.5 1.94-4.273 5.28-6.606 10-7 1.95-4.283 5.29-6.617 10-7 2.53-4.77 6.53-7.27 12-7.5.75-2.253 2.09-4.087 4-5.5a46.103 46.103 0 0 0 12-4.5c5.8-5.628 11.8-11.128 18-16.5l6-3c3.69-3.787 7.36-7.453 11-11-.47-1.302-27.91-3.031-28-2.5-3.85.655-22.69-2.679-24.5-6-2.07.634-4.24.968-6.5 1a95.895 95.895 0 0 1-13-2.5 90.448 90.448 0 0 1-15-8.5c-3-1.667-5.33-4-7-7-3.82-1.075-7.16-2.909-10-5.5-2.24-1.739-3.91-3.906-5-6.5-5.69-2.318-11.52-2.652-17.5-1-2.47.16-4.64-.507-6.5-2-5.53 4.268-11.87 6.434-19 6.5l-3 3c-6.69.588-13.02 2.254-19 5-8.14.081-16.14.081-24 0-3.43-.116-6.43-1.283-9-3.5-1.85 1.674-4.02 2.674-6.5 3a57.479 57.479 0 0 1-21.5-7c-2.93-3.17-6.6-5.337-11-6.5-4.74-3.362-10.07-5.695-16-7-.78-2.987-2.44-3.82-5-2.5-.08-.083-.17-.167-.25-.25l-.5-.5c-.08-.083-.17-.167-.25-.25.54-.75 1.08-1.5 1.63-2.25l3.24-4.5ZM2362.5 86.5c.86.476 1.65 1.074 2.34 1.771.23.232.68.402.66.729-.01.237-.46.107-.7.132-.37.038-.77.022-1.12-.118-.99-.392-1.18-1.584-1.18-2.514Z" style="fill:#2e222f" transform="translate(160)"/><path d="M2612.5 127.5a241.584 241.584 0 0 0-15-7.5c-1.47-1.552-2.47-3.386-3-5.5a23.392 23.392 0 0 0 2.5-6c3.98-2.62 5.81-6.287 5.5-11 3-6.167 8-8.667 15-7.5 3.39 2.233 5.39 5.4 6 9.5 5.91 2.76 7.41 7.094 4.5 13a65.678 65.678 0 0 0-11.5 14.5 8.43 8.43 0 0 1-4 .5Z" style="fill:#e94e35" transform="translate(160)"/><path d="M2225.5 145.5a950.12 950.12 0 0 0-9 6c-.79-.431-1.63-.765-2.5-1-12.76 4.393-17.93.06-15.5-13 .93-1.068 1.27-2.401 1-4h-5l-10-3c-1.07-4.656-1.07-9.322 0-14 2.71-1.753 3.38-4.086 2-7 .32-4.484 2.65-7.317 7-8.5 2.25-1.15 4.59-1.484 7-1a18.17 18.17 0 0 0 5.5 4.5c.83-2.167 2.33-3.667 4.5-4.5 4.44-.585 8.77-1.252 13-2a20.187 20.187 0 0 1 7.5 7.5c-.59 3.808-.43 7.475.5 11a72.501 72.501 0 0 0 10 5.5c1.51 1.473 2.17 3.307 2 5.5a89.455 89.455 0 0 1-5 14.5c.33.333.67.667 1 1-2.81-.744-5.64-.577-8.5.5a22.713 22.713 0 0 1-5-2 8.392 8.392 0 0 0-.5 4Z" style="fill:#e95037" transform="translate(160)"/><path d="M2214.5 110.5c1.62.287 2.62 1.287 3 3-1.52 2.047-2.35 4.381-2.5 7-1.36-.88-2.86-1.214-4.5-1 .57-3.459 1.9-6.459 4-9Z" style="fill:#fee7df" transform="translate(160)"/><path d="M2200.5 113.5c1.76-.961 3.76-1.295 6-1-.02 2.1.64 3.933 2 5.5-.13.75-.48 1.445-1 2a7.346 7.346 0 0 1 3 2 80.058 80.058 0 0 0-10.5 2.5c-5.93-2.482-5.6-4.482 1-6 1.54 1.249 2.71 1.082 3.5-.5-.97-1.975-2.3-3.475-4-4.5Z" style="fill:#feeae3" transform="translate(160)"/><path d="M2218.5 122.5c3.46-.059 6.46.941 9 3-2.79 2.638-6.13 3.472-10 2.5-1.26-2.076-.92-3.91 1-5.5Z" style="fill:#fee8e0" transform="translate(160)"/><path d="M2210.5 126.5h3c.67 5.05-1.33 8.05-6 9-.19-3.435.81-6.435 3-9Z" style="fill:#feefe8" transform="translate(160)"/><path d="M2704.5 251.5a31.224 31.224 0 0 0-5.5-9c-2.47 1.938-5.3 3.104-8.5 3.5-3.81 5.098-8.81 6.764-15 5-1.1-4.76-3.93-7.927-8.5-9.5-1.33-2-2.67-4-4-6-1.96-5.835-.12-9.835 5.5-12a25.123 25.123 0 0 1-5-8 63.604 63.604 0 0 1-3-7c-1.68-3.082-2.35-6.415-2-10 3.68-3.52 7.03-7.37 10-11.5 4.09-.48 8.09.02 12 1.5 3.88-2.21 4.54-5.043 2-8.5 2.41-5.74 6.24-10.24 11.5-13.5 3.97.889 8.14 2.222 12.5 4 1.45 1.35 2.12 3.016 2 5 5.47.474 8.14 3.474 8 9 3.69.281 7.35.781 11 1.5 1.79.785 3.29 1.951 4.5 3.5a54.084 54.084 0 0 1 7 15c.67 2 .67 4 0 6-2.44 5.981-5.44 10.981-9 15 .3 7.706-.36 15.373-2 23-.83.833-1.67 1.667-2.5 2.5-3.12.206-6.12.873-9 2-4.23.919-8.23.419-12-1.5Z" style="fill:#e94f36" transform="translate(160)"/><path d="M1723.5 208.5c.16 2.687 0 5.354-.5 8-2.03 3.843-4.53 7.176-7.5 10-1.7 2.066-3.03 4.4-4 7a38.476 38.476 0 0 0-10 6 81.625 81.625 0 0 1-17-8.5 38.969 38.969 0 0 1-7-1.5c-1.71-2.382-3.71-4.382-6-6-1.27-2.17-1.27-4.337 0-6.5-3.28-4.182-3.78-8.682-1.5-13.5a252.019 252.019 0 0 0 13-17c8.55-5.768 16.39-4.935 23.5 2.5 5.12.476 9.29 2.643 12.5 6.5.82 4.641 2.32 8.974 4.5 13Z" style="fill:#e94e35" transform="translate(160)"/><path d="M1901.5 244.5a30.228 30.228 0 0 1 3 10c1.04 3.042 1.04 6.042 0 9-4.38 4.2-9.72 6.2-16 6-.8 2.633-2.47 4.467-5 5.5-5.33.667-10.67.667-16 0-.88-.708-1.55-1.542-2-2.5.31-2.424-.03-4.757-1-7-.59.209-1.09.543-1.5 1 1.28 4.441.45 8.441-2.5 12-.61.891-.94 1.891-1 3-.01 1.517-.68 2.684-2 3.5-3.37 1.065-6.7 2.232-10 3.5a66.95 66.95 0 0 0-15-3.5c-2.5-1.331-4.5-3.164-6-5.5.83-5.151-3.34-6.484-3.17-12 3.14-2.9 3.15-8.907 6.67-11.333.43-1.99 5.29-5.864 6.5-7.5-2.81-.629-5.64.87-8.5.5-4.1.904-4.34.407-8.5-.167-1.94-3.607-4.94-5.607-9-6-4.34-3.856-6.68-8.69-7-14.5 1.46-3.114 2.62-6.448 3.5-10a37.47 37.47 0 0 1 7.5-6.5c.26-1.795 9.04 1.847 15-1.5 1.96-6.247 5.62-11.247 11-15 1.47-4.633 4.47-7.8 9-9.5 5.37.342 10.71.175 16-.5 6.18 2.184 9.85 6.518 11 13 2.03 1.193 3.53 2.86 4.5 5 4.49-4.759 9.99-6.259 16.5-4.5 3.56 1.727 7.06 3.561 10.5 5.5 1.64 3.626 1.81 7.293.5 11 6.46 8.202 4.79 14.035-5 17.5a47.613 47.613 0 0 1-3.5 5.5c-.75 2.34-.25 4.34 1.5 6Zm-25-20h-2c.29-2.433.95-2.433 2 0Zm-2 1c-.01 2.04-.35 4.065-1 6a4.934 4.934 0 0 1-3-.5c1.97-1.5 3.3-3.333 4-5.5Zm-15 16h-4a27.224 27.224 0 0 0-2-10c.33-.667.67-1.333 1-2 3.56 2.454 7.56 3.621 12 3.5a46.55 46.55 0 0 0-7 8.5Z" style="fill:#e94f36" transform="translate(160)"/><path d="M2698.5 193.5c1.32-.17 2.49.163 3.5 1 1.24 4 1.74 8 1.5 12-7 .827-9.5-2.173-7.5-9a12.684 12.684 0 0 0 2.5-4Z" style="fill:#fee9e2" transform="translate(160)"/><path d="M2371.5 256.5c-1.53-.073-2.53.594-3 2-4.65 1.262-9.32 1.262-14 0a85.662 85.662 0 0 1-9-6.5c-4.49-.31-7.82-2.477-10-6.5a56.9 56.9 0 0 0-4-17c-1.33-5.333-1.33-10.667 0-16a59.384 59.384 0 0 1 4-5.5c2.08-.697 3.75-1.864 5-3.5 6.89-4.329 13.39-3.662 19.5 2 10.55-2.812 16.38 1.188 17.5 12a39.07 39.07 0 0 1-2 9.5c2.97 2.253 4.97 5.253 6 9-1.92 7.629-5.25 14.462-10 20.5Z" style="fill:#e84e35" transform="translate(160)"/><path d="M2678.5 203.5c4.4-.272 8.74.061 13 1a16.91 16.91 0 0 1 1 8 51.337 51.337 0 0 0-15-2.5c-2.38-2.45-2.05-4.617 1-6.5Z" style="fill:#feebe3" transform="translate(160)"/><path d="M1858.5 212.5h4c.07 2.693.4 5.36 1 8-.01 2.669-1.34 4.002-4 4-2.09-.039-3.42-1.039-4-3 .38-3.291 1.38-6.291 3-9Z" style="fill:#fee9e1" transform="translate(160)"/><path d="M2713.5 202.5c1.75-.082 2.75.751 3 2.5-1.12 3.607-3.12 5.773-6 6.5 4.25 4.438 5.42 9.438 3.5 15-2.22-1.866-4.72-3.366-7.5-4.5-2.34-3.714-1.67-7.047 2-10-2.58-3.397-1.92-6.231 2-8.5 1.42 1.277 2.42.943 3-1Z" style="fill:#feeee7" transform="translate(160)"/><path d="M2695.5 214.5c1.97-.239 3.8.094 5.5 1a59.115 59.115 0 0 1-1.5 11c-3.12 1.551-6.45 2.551-10 3-.22-5.971 1.78-10.971 6-15Z" style="fill:#feece5" transform="translate(160)"/><path d="M2569.5 239.5c-.82 4.147-1.32 8.481-1.5 13-4.02 5.273-5.52 11.273-4.5 18-1.09 4.297-2.09 8.63-3 13a86.458 86.458 0 0 0-10-7.5 30.1 30.1 0 0 1-6-7c-6.46-2.623-11.12-7.123-14-13.5.11-.617.44-1.117 1-1.5-1.57-1.684-2.57-3.684-3-6 2.29-4.88 3.79-10.047 4.5-15.5 1.8-1.817 3.97-2.984 6.5-3.5.84-1.011 1.17-2.178 1-3.5 3.19-6.41 7.86-7.577 14-3.5a40.9 40.9 0 0 0 9 .5c2.99 5.585 4.99 11.252 6 17Z" style="fill:#e94e35" transform="translate(160)"/><path d="M1874.5 224.5h2c2.64.774 5.31 1.107 8 1-1.64 2.945-2.98 5.945-4 9-2.99.334-5.32-.666-7-3 .65-1.935.98-3.935 1-6v-1Z" style="fill:#fef1ea" transform="translate(160)"/><path d="M1836.5 228.5c4.96-.525 8.63 1.308 11 5.5-3.58 5.909-7.25 5.909-11 0l-5-1a30.746 30.746 0 0 1 5-4.5Z" style="fill:#feeee6" transform="translate(160)"/><path d="M1853.5 242.5c2.31 1.263 3.64 3.263 4 6-1.26 7.147-5.59 10.147-13 9 1.1-3.397 1.6-6.731 1.5-10 1.91-2.604 4.41-4.271 7.5-5Z" style="fill:#fdf0e9" transform="translate(160)"/><path d="M1868.5 242.5c6.54.71 10.2 4.377 11 11-8.86 1.139-12.53-2.528-11-11Z" style="fill:#feeae2" transform="translate(160)"/><path d="M2174.5 360.5c-1.76-.961-3.76-1.295-6-1 .11 3.115-.89 5.781-3 8-1.53-.073-2.53.594-3 2-1.65.16-2.99.826-4 2-5.71.428-11.38 1.094-17 2a24.977 24.977 0 0 0-5-7.5c-5.38-.307-10.72-.974-16-2-4.86-3.199-7.69-7.699-8.5-13.5a30.1 30.1 0 0 1-6-7c-1.99-4.536-1.16-8.536 2.5-12a35.607 35.607 0 0 1-5-8c-1.33-2-3-3.667-5-5a6.96 6.96 0 0 1-2-4c.56-6.074 3.9-9.908 10-11.5 3.09-3.757 6.75-6.757 11-9 6.93-1.118 12.1 1.382 15.5 7.5.4-4.946 1.74-9.613 4-14 2.27-2.966 5.27-4.299 9-4a113.56 113.56 0 0 1 16.5 5.5c3.53 2.026 6.19 4.859 8 8.5-.7 2.821-1.7 5.488-3 8 .55 1.635.88 3.301 1 5 2.01-.163 4.04.006 6 .5a30.657 30.657 0 0 0 12 6c4.12 3.728 7.12 8.228 9 13.5a96.212 96.212 0 0 1-2.5 11c-1.44 1.655-3.28 2.322-5.5 2 2.01 5.918 1.01 11.252-3 16-3.27.987-6.6 1.32-10 1Z" style="fill:#e95037" transform="translate(160)"/><path d="M1993.5 295.5c5.37-.328 10.71.005 16 1a66.715 66.715 0 0 1 5 10c1.16 5.18 2.83 10.513 5 16-1.46 5.129-4.79 8.129-10 9 .11 2.403-.89 4.236-3 5.5a90.591 90.591 0 0 1-23 3c.33-.333.67-.667 1-1a36.839 36.839 0 0 1-3.5-4.5c-2.74-7.144-4.41-14.477-5-22a141.111 141.111 0 0 0 17.5-17Z" style="fill:#e84e35" transform="translate(160)"/><path d="M2321.5 327.5c-4.64 3.992-9.3 7.992-14 12-.05-2.723-.71-5.556-2-8.5.94-2.031.44-3.864-1.5-5.5-.6-3.552-1.43-7.06-2.5-10.5.24-.902.58-1.735 1-2.5 1.71-1.135 2.38-2.802 2-5 5.7-1.744 11.04-.911 16 2.5 1.37 3.38 3.54 6.213 6.5 8.5.5 1.973.66 3.973.5 6-2.72-.114-4.72.886-6 3Z" style="fill:#e64e35" transform="translate(160)"/><path d="M2123.5 310.5c2.33-.253 4.33.414 6 2 4.26-.953 6.93.88 8 5.5a64.402 64.402 0 0 0-1.5 8.5c-3.32 2.406-2.82 3.906 1.5 4.5.92 3.195.59 6.361-1 9.5-.82.886-1.82 1.219-3 1v3c-3.98-.795-7.98-1.462-12-2-.3-2.104.03-4.104 1-6 2.56-2.634 5.23-5.134 8-7.5-2.59-3.265-5.76-5.765-9.5-7.5-.6-2.897-1.43-5.74-2.5-8.5 1.04-1.617 2.2-1.784 3.5-.5.72-.544 1.22-1.211 1.5-2Z" style="fill:#fef1ea" transform="translate(160)"/><path d="M2541.5 378.5a134.668 134.668 0 0 1-11-4c-.67-.767-1.51-1.434-2.5-2-.5 1.973-.66 3.973-.5 6-.09 2.568-1.43 4.068-4 4.5-4.33.667-8.67.667-13 0-.56-.383-.89-.883-1-1.5-.3-2.873-.97-5.539-2-8a64.103 64.103 0 0 0-7-2 27.503 27.503 0 0 1-2-3.5c-4.96.318-8.79-1.516-11.5-5.5.14-7.173-.03-14.173-.5-21 .73-2.235 2.06-4.068 4-5.5 7.64.083 10.81-3.75 9.5-11.5 6.15-4.992 12.98-8.826 20.5-11.5 3.13-.79 6.13-.457 9 1 1.91 5.462 5.08 9.962 9.5 13.5l6 2c3.1-2.242 6.27-2.409 9.5-.5a81.97 81.97 0 0 0 5.5 16.5c.53 5.95-1.47 10.95-6 15a65.135 65.135 0 0 1-8 20c-1.05-1.607-2.55-2.273-4.5-2Z" style="fill:#e94e35" transform="translate(160)"/><path d="M2149.5 307.5c1.6.787 2.27 2.12 2 4 1.32-.17 2.49.163 3.5 1 1.22 4.736.38 8.903-2.5 12.5 5.41 1.393 11.08 1.893 17 1.5.49 2.306.83 4.639 1 7-5.07.258-10.07.925-15 2-1.33-1-2.67-2-4-3 .1-6.236-2.9-8.902-9-8a6.787 6.787 0 0 1 1-4c-.99-1.165-1.99-2.332-3-3.5a55.64 55.64 0 0 0 1.5-6.5 40.982 40.982 0 0 0 7.5-3Z" style="fill:#fef2eb" transform="translate(160)"/><path d="M2147.5 339.5c1.07 1.192 1.9.859 2.5-1 .71.881 1.54 1.547 2.5 2 .62.111 1.12.444 1.5 1 .67 2.667.67 5.333 0 8-.71.881-1.54 1.547-2.5 2-1.6-.268-2.93.066-4 1a4.934 4.934 0 0 1-3-.5 59.384 59.384 0 0 1-4-5.5c.59-2.627.92-5.294 1-8 2.4-1.562 4.4-1.229 6 1Z" style="fill:#fef3ed" transform="translate(160)"/><path d="M543.75 1609.75c.917-.58 1.833-1.17 2.75-1.75 3.156-.6 6.156-.1 9 1.5 5.05-2.88 9.717-2.38 14 1.5 4.94 1.49 9.94 2.82 15 4a17.79 17.79 0 0 1 5.5 4.5c2.589-1.2 5.263-2.2 8-3 2.337.4 159.849-11.64 161.5-15 6.418-2.57 12.751-5.4 19-8.5a61.438 61.438 0 0 0 10-2.5c-.285-1.79.048-3.45 1-5l5-4.5c.949-.62 1.782-.45 2.5.5a766.419 766.419 0 0 0 27.5 58c-.292.08-.583.17-.875.25l-1.75.5c-.292.08-.583.17-.875.25-5.702-1.62-11.202-2.45-16.5-2.5a606.567 606.567 0 0 1-19 9c-2.117 1.73-3.617 3.9-4.5 6.5-.725-.56-1.59-.9-2.5-1a82.305 82.305 0 0 0-10 3.5c-6.14 7.33-139.266 9.29-140 10.5a89.004 89.004 0 0 0-23-.5c-1.466-.64-2.8-1.47-4-2.5-5.811 2.63-11.811 3.3-18 2-5.259 3.58-10.759 3.91-16.5 1-5.847 3.06-12.014 3.72-18.5 2a18.65 18.65 0 0 0-7 5.5c-4.567.44-8.4 2.27-11.5 5.5-2.925-1.52-5.258-.85-7 2-4.061-1.68-7.561-.85-10.5 2.5a129.307 129.307 0 0 1-19 2.5c-.553 4.26-2.887 7.09-7 8.5a29.95 29.95 0 0 0-6 7c-2.177 1.2-4.511 1.7-7 1.5-.244 2.76-1.577 4.93-4 6.5l2 3c-2.043 4.03-2.71 8.2-2 12.5-.477 6.46-1.477 12.96-3 19.5-.061 1.71.606 3.04 2 4-2.337 4.16-3.504 8.66-3.5 13.5a113.199 113.199 0 0 1-9 18c-6.036 2.71-8.703 7.38-8 14-2.744 2.48-4.744 5.48-6 9a32.147 32.147 0 0 1-7.5 3 12 12 0 0 1 1 6c-3.608.37-6.441 2.04-8.5 5a31.472 31.472 0 0 1-2.5 9c-.667 0-1 .33-1 1-4.033-3.08-8.199-3.42-12.5-1a7.166 7.166 0 0 0-2.5-2 613.299 613.299 0 0 1-63 17.5l-3 3c-5.473.15-10.806.98-16 2.5-1.272-.07-2.438-.4-3.5-1-2.93 1.76-6.097 2.92-9.5 3.5a689.526 689.526 0 0 0-7 7c-1.634.49-3.301.66-5 .5.059 4.54-1.941 7.88-6 10a27.489 27.489 0 0 1-4 8.5c-2.359 1.63-4.692 3.3-7 5-1.941.74-3.774.58-5.5-.5-8.968 5.76-14.634 3.43-17-7-7.313-4.82-7.813-9.98-1.5-15.5a4.947 4.947 0 0 1 3-.5c-.079-2.77.421-5.44 1.5-8a20.777 20.777 0 0 0 8-7 79.288 79.288 0 0 0 8-13c3.987-3.74 8.487-6.57 13.5-8.5 6.843-7.85 15.343-11.01 25.5-9.5a18.817 18.817 0 0 1 4.5-5.5c10.343-.19 19.676-3.19 28-9a101.17 101.17 0 0 0 19-6c1-.08 2-.17 3-.25l6-.5c1-.08 2-.17 3-.25 5.923-5.91 12.756-7.75 20.5-5.5l2-6c2.403-1.81 4.07-4.14 5-7 1.645-2.16 3.812-3.5 6.5-4 1.442-6.87 4.942-12.54 10.5-17 .681-2.03 1.014-4.03 1-6a17.79 17.79 0 0 1-5.5 4.5c-3.691.42-7.358.92-11 1.5-.142 3.12-1.476 5.62-4 7.5-5.15 1.38-9.484 4.05-13 8-.5.08-1 .17-1.5.25l-3 .5c-.5.08-1 .17-1.5.25a29.046 29.046 0 0 1-4 6c-7.281 3.25-14.948 5.75-23 7.5-4.034 4.5-8.701 5.17-14 2a207.405 207.405 0 0 1-27 3c-3.738-.57-6.905-2.24-9.5-5-1.686 2.42-4.019 3.42-7 3-3.005.02-5.838-.65-8.5-2-5.942 2.54-44.942 3.54-51 1-.421-.72-34.378-11.14-35.5-12-2.156 1.49-4.323 2.99-6.5 4.5-5.207.76-10.374.59-15.5-.5a32.452 32.452 0 0 0-4.5 5c-7.02 4.29-14.52 5.95-22.5 5-4.14 1.29-8.307 2.45-12.5 3.5-4.702.17-9.368.67-14 1.5-4.004 4.31-8.504 4.97-13.5 2a11.454 11.454 0 0 1-4.5 3.5c-8.648 1.67-17.314 1.67-26 0a97.725 97.725 0 0 1-21-6c-5.354-3.3-10.687-6.63-16-10a21.833 21.833 0 0 1-6-7.5 102.8 102.8 0 0 1-8-2.5c-.61-2.47-.276-4.97 1-7.5 5.19-2.17 10.69-4.5 16.5-7 .69.86 1.522 1.52 2.5 2 2.628-2.13 5.461-2.47 8.5-1a18.701 18.701 0 0 1 3.5-2 54.44 54.44 0 0 1 8.5 3c6.764-3.79 11.764-2.12 15 5 .97-.7 2.137-.7 3.5 0 6.427-1.93 12.76-4.1 19-6.5 1.475-2.74 3.475-3.57 6-2.5 5.002-2.5 10.169-3.5 15.5-3a346.09 346.09 0 0 0 42.5-14.5c2.518-1.5 5.018-3 7.5-4.5 2.72.85 5.391 1.85 8 3 3.933-1.98 8.1-2.48 12.5-1.5a37.541 37.541 0 0 0 8.5 5.5c2.977-3.32 6.644-5.32 11-6 6.017 1.23 12.017 1.23 18 0a23.998 23.998 0 0 0 8.5 2c.57 1.74 2.561.59 2 0 2.027-.16 17.333 4.17 23 6 1.272-.07 2.438-.4 3.5-1 6.844.61 13.51 1.95 20 4 4.39-1.6 8.39-.93 12 2 15.363-5.55 31.529-9.72 48.5-12.5 7.63-2.45 15.298-4.78 23-7a138.177 138.177 0 0 0 16.5-11.5c.611-5 1.111-10 1.5-15a20.649 20.649 0 0 0 3.5-4c.555 3.99 21.15-33.77 22.5-37 3.651-.66 7.085-2.2 10-4.5 7.19-2.13 14.551-3.64 22-4.5 1.193-2.03 2.86-3.53 5-4.5 4.424-1.81 9.09-2.81 14-3a41.076 41.076 0 0 1 7-5c3.361-.05 6.361-1.05 9-3a59.78 59.78 0 0 0 7.5-1.5c.873.24 1.707.57 2.5 1a21.61 21.61 0 0 1 4-6.5 57.458 57.458 0 0 0 12-8c3.623-1.11 7.29-2.11 11-3 .917-.58 1.833-1.17 2.75-1.75l5.5-3.5Z" style="fill:#2e222f" transform="translate(160)"/><path d="M2455.5 385.5c-.8 2.336-.47 4.67 1 7a59.16 59.16 0 0 1-8 11.5c-3.14 2.462-6.3 4.962-9.5 7.5a61.438 61.438 0 0 0-2.5-10c-3.75.418-5.92-1.249-6.5-5l-1.5 1.5c-14.91 4.129-20.75-1.038-17.5-15.5a36.364 36.364 0 0 1 4.5-3.5c-1.6-3.048-3.76-5.548-6.5-7.5-1.29-2.344-1.79-4.677-1.5-7a45.375 45.375 0 0 0 8-8c2.49-.469 5.16-.469 8 0h5c.22-4.062 2.22-6.895 6-8.5 1.33-.667 2.67-.667 4 0 5.92 2.546 8.25 6.879 7 13 5.41.43 10.24 2.263 14.5 5.5 1.46 2.866 1.79 5.866 1 9-2.64 2.95-4.47 6.283-5.5 10Z" style="fill:#e74f37" transform="translate(160)"/><path d="M2147.5 352.5c1.07-.934 2.4-1.268 4-1 .22 1.175-.11 2.175-1 3-.77-1.112-1.77-1.779-3-2Z" style="fill:#f39786" transform="translate(160)"/><path d="M2433.5 361.5c3.65-.338 5.32 1.328 5 5 5.09-.234 8.09 2.099 9 7 .12 7.814-3.55 12.48-11 14-2.21-1.612-4.38-3.28-6.5-5-1 1.333-2 1.333-3 0-1.33-3.333-2.67-6.667-4-10-.74-1.941-.58-3.774.5-5.5 2.21-.97 4.59-1.481 7-1.5v-3c1.29.237 2.29-.096 3-1Z" style="fill:#fef1ea" transform="translate(160)"/><path d="M2435.5 372.5c4.78 1.254 4.62 2.921-.5 5-.64-1.765-.47-3.432.5-5Z" style="fill:#ec6048" transform="translate(160)"/><path d="M1576.5 435.5c-2.41 1.411-4.08 3.411-5 6-1.71 1.135-2.38 2.802-2 5a45.284 45.284 0 0 0-11.5 8 78.866 78.866 0 0 0-14.5-2.5c-3.25-3.319-7.25-4.819-12-4.5a31.19 31.19 0 0 0-4.5-5c-.81-7.829 1.36-14.663 6.5-20.5a50.573 50.573 0 0 1 12-4c3.71-3.524 8.04-6.024 13-7.5 2.66 1.348 5.33 1.681 8 1 1.57 4.405 4.41 7.738 8.5 10 1.38 4.536 1.88 9.203 1.5 14Z" style="fill:#e94e35" transform="translate(160)"/><path d="M1688.5 432.5c.01 1.517.68 2.684 2 3.5a194.43 194.43 0 0 0 20 9c4.15 2.722 7.82 5.888 11 9.5.35 4.029-.32 7.862-2 11.5.07.765.4 1.265 1 1.5 1.63 1.815-.6 2.759-3 3 .11 2.549-.55 4.882-2 7 .12.607.46.94 1 1-1.05 2.034-2.71 3.367-5 4a42.887 42.887 0 0 0-1.5 9c-1.76.921-1.92 2.088-.5 3.5a38.84 38.84 0 0 1-4.5 9.5 87.194 87.194 0 0 0-9.5 6.5c-5.67.667-11.33.667-17 0-2.05-.93-3.55-2.43-4.5-4.5-3.92 7.643-10.08 10.476-18.5 8.5-3.05-1.935-6.39-3.268-10-4-3.97-2.094-5.31-5.26-4-9.5-3.37-3.761-3.7-7.761-1-12-.12-.607-.46-.94-1-1a124.273 124.273 0 0 1-9-11c.06-5.773-.6-11.439-2-17a31.415 31.415 0 0 0 8-11.5c1.63.195 3.29.195 5 0 1.26-.417 1.92-1.25 2-2.5-.22-2.567-.89-4.901-2-7 3.27-4.302 6.27-8.802 9-13.5 2.27-.758 4.44-.591 6.5.5.69-2.557 2.19-4.391 4.5-5.5 5.71.188 11.38.188 17 0 1.79.785 3.29 1.951 4.5 3.5 1.13 3.294 2.96 5.96 5.5 8ZM2655.5 465.5c2.61-2.98 5.94-4.98 10-6 4.65.941 9.31 1.774 14 2.5a20.571 20.571 0 0 1 5.5 5.5c.11 5.484.11 10.817 0 16-1.14 2.795-2.64 5.295-4.5 7.5 5.27 2.467 7.43 6.633 6.5 12.5 2.66 2.613 3.5 5.613 2.5 9 2.81 4.77 2.64 9.437-.5 14a100.32 100.32 0 0 0-8.5 5c-2.71 2.268-5.88 3.601-9.5 4a69.293 69.293 0 0 0-18-7c-5.05 4.16-9.89 8.66-14.5 13.5-2.33.667-4.67.667-7 0-3.41-3.348-7.08-6.181-11-8.5a39.897 39.897 0 0 1-1-11c.6-4.24.6-8.574 0-13a66.73 66.73 0 0 1-10 3.5c-3.67.667-7.33.667-11 0-2.27-2.344-3.44-5.178-3.5-8.5-2.2-.912-4.04-2.245-5.5-4-.8-2.93-1.13-5.93-1-9a17.951 17.951 0 0 1 5-5c.99-2.576 1.99-5.243 3-8 3.48-.51 6.82-1.177 10-2 3.08-.166 6.08-.499 9-1 1.18.219 2.18-.114 3-1-.65-4.766-1.98-9.266-4-13.5.07-4.735 2.4-7.735 7-9 6.1-.459 11.76-2.126 17-5 3.33-.667 6.67-.667 10 0 4.59 5.281 6.93 11.448 7 18.5Zm0 0v6c.01 2.642-1.32 3.975-4 4 1.38-3.411 2.71-6.744 4-10Z" style="fill:#e95037" transform="translate(160)"/><path d="M1671.5 448.5c.74-.131 1.41.036 2 .5a18.959 18.959 0 0 0 2 3.5 93.548 93.548 0 0 1 2 13c-1.18-.219-2.18.114-3 1a52.073 52.073 0 0 1 5.5 8c.74-1.074 1.74-1.741 3-2a33.206 33.206 0 0 0 8.5 3.5c3.3 4.981 2.3 8.814-3 11.5-2.8-.232-5.3-1.566-7.5-4a20.84 20.84 0 0 1-2-6c-3.06 3.436-6.39 3.769-10 1-.58-3.69-.41-7.356.5-11-2.18-3.499-3.85-7.333-5-11.5-.23-5.089 2.1-7.589 7-7.5Z" style="fill:#feefe8" transform="translate(160)"/><path d="M1690.5 453.5c2.54-.396 4.71.271 6.5 2-.37 3.967-.87 7.967-1.5 12-4.98.729-9.48-.271-13.5-3-.67-1-.67-2 0-3a74.514 74.514 0 0 0 8.5-8Z" style="fill:#fef3ec" transform="translate(160)"/><path d="M1652.5 459.5c5.17.165 9 2.499 11.5 7 .12 3.601-1.71 5.935-5.5 7a39.657 39.657 0 0 0-7-3.5c-1.6-2.026-2.6-4.359-3-7 .85-1.771 2.18-2.937 4-3.5Z" style="fill:#feefe8" transform="translate(160)"/><path d="M1789.5 460.5a40.9 40.9 0 0 1 9 .5c4.86 3.51 10.2 6.177 16 8 2.87 2.913 4.21 6.413 4 10.5 3.54.372 5.71 2.372 6.5 6 .59 3.791.09 7.458-1.5 11 1.87 6.962-.79 10.796-8 11.5-7.95-1.374-15.29.293-22 5-2.67.667-5.33.667-8 0-2.37-5.704-6.2-10.204-11.5-13.5-2.77-3.707-4.6-7.873-5.5-12.5.14-2.151 1.14-3.818 3-5a48.42 48.42 0 0 0 11-3.5 22.144 22.144 0 0 1-2.5-9c-1-1.667-2.33-3-4-4-.67-.667-.67-1.333 0-2 2.74 1.11 5.57 1.277 8.5.5 1.39-1.683 3.05-2.85 5-3.5Z" style="fill:#e94f35" transform="translate(160)"/><path d="M2651.5 475.5c2.68-.025 4.01-1.358 4-4 3.33 3.164 6.83 6.164 10.5 9 .21 3.356.21 6.689 0 10a72.199 72.199 0 0 1 5.5 8.5c-1.28 2.36-1.95 4.86-2 7.5-6.84 1.69-13.18.69-19-3-1.71 10.045-7.38 13.378-17 10-.18-2.822-.84-5.489-2-8 .07-1.272.4-2.438 1-3.5-4.89.004-9.39-1.163-13.5-3.5a51.42 51.42 0 0 1-1-12c.83-.833 1.67-1.667 2.5-2.5l8-1a35.385 35.385 0 0 1 5.5-10.5c2.83-3.165 6.33-4.331 10.5-3.5 2.25 2.422 4.58 4.589 7 6.5Z" style="fill:#fef4ee" transform="translate(160)"/><path d="M1661.5 477.5c6.54.049 9.38 3.382 8.5 10-2.74 5.084-6.91 6.75-12.5 5 .17-5.392 1.5-10.392 4-15Z" style="fill:#fef0e9" transform="translate(160)"/><path d="M2431.5 510.5c-2.65 2.311-5.31 4.644-8 7 .33 1 1 1.667 2 2 1.71-1.387 3.38-2.721 5-4a182.32 182.32 0 0 0 15-8.5c4.75-6.513 10.08-7.013 16-1.5a25.62 25.62 0 0 0 6 6 48.254 48.254 0 0 1 2.5 11c.38.556.88.889 1.5 1 .48 2.284 1.48 4.284 3 6-.49 6.325-3.49 10.992-9 14a90.395 90.395 0 0 1-5.5 10c-3.8 2.989-7.97 4.156-12.5 3.5 7.69 6.2 10.19 14.034 7.5 23.5a3121.68 3121.68 0 0 0-4.5 13 98.601 98.601 0 0 0-15 11.5c-2.67.667-5.33.667-8 0a346.887 346.887 0 0 1-27.5-12.5c-.89-2.5-2.05-4.833-3.5-7-2.26.845-2.93 2.178-2 4a81.277 81.277 0 0 1-8 10.5c-3.8 1.05-7.64 1.884-11.5 2.5-6.08-3.07-11.91-6.57-17.5-10.5-6.33-7.505-6.66-15.339-1-23.5a3.653 3.653 0 0 0-1-1.5c3.71-5.25 7.04-10.75 10-16.5-5.76-1.14-11.43-1.807-17-2-1.9-4.128-4.06-8.128-6.5-12-.92-5.41-2.42-10.577-4.5-15.5-.61-8.583 3.23-13.75 11.5-15.5 1.92-2.58 4.42-4.413 7.5-5.5a68.79 68.79 0 0 1 15-1.5c.67 0 1 .333 1 1 1.7-.16 3.37.006 5 .5.72 2.556 2.39 3.723 5 3.5-.96-8.276 1.37-15.442 7-21.5 13.37-6.326 25.03-4.16 35 6.5 5.44 6.433 7.77 13.767 7 22Zm-44 6c.79.283 1.46.783 2 1.5-1.32.528-1.98.028-2-1.5Z" style="fill:#e94f36" transform="translate(160)"/><path d="M2640.5 484.5c7.75.662 9.41 4.162 5 10.5-1.63.494-3.3.66-5 .5.19-2.975-.81-5.475-3-7.5a14.668 14.668 0 0 0 3-3.5Z" style="fill:#eb573e" transform="translate(160)"/><path d="M2400.5 501.5a8.43 8.43 0 0 1 4 .5 25.368 25.368 0 0 0 3 6c.21 3.228.21 6.395 0 9.5-2.11 5.84-6.11 7.507-12 5-.41-7.505 1.25-14.505 5-21Z" style="fill:#fef1ea" transform="translate(160)"/><path d="M2367.5 523.5c5.51-.295 10.84.538 16 2.5 4.81 7.58 2.64 12.08-6.5 13.5-3.04-2.378-6.04-4.711-9-7-1.36-3.027-1.52-6.027-.5-9Z" style="fill:#fef0e9" transform="translate(160)"/><path d="M2429.5 524.5c6.09-1.253 9.76 1.08 11 7a31.686 31.686 0 0 1-2 6c-4.39 2.156-9.05 3.49-14 4-2.45-1.557-4.95-1.89-7.5-1-1.66-.984-3.32-1.984-5-3-1.21-3.338-.04-5.171 3.5-5.5.67-1 1.33-2 2-3 3.79-2.355 7.79-3.855 12-4.5Z" style="fill:#fef2eb" transform="translate(160)"/><path d="M2399.5 526.5c6.2.129 9.04 3.129 8.5 9-4.47 2.707-8.47 2.041-12-2-.42-3.092.75-5.426 3.5-7Z" style="fill:#feeee7" transform="translate(160)"/><path d="M2852.5 536.5a50.083 50.083 0 0 1 14.5 12c4.99 6.741 4.49 13.075-1.5 19 1.04 4.165.04 7.831-3 11-4.14 1.618-8.48 2.451-13 2.5-2.46 2.536-5.46 4.036-9 4.5a72.713 72.713 0 0 0-10-5.5 51.784 51.784 0 0 1-9-14c.59-3.032 1.93-5.698 4-8-3.29-7.202-1.62-12.869 5-17l14-1c.67-.667 1.33-1.333 2-2 2.21-.191 4.21-.691 6-1.5Z" style="fill:#e94f35" transform="translate(160)"/><path d="M2773.5 563.5c-2.25-6.229-2.92-12.562-2-19 1.42-.25 2.42-1.083 3-2.5 4.24-.932 8.24-1.766 12-2.5 3.99 3.463 5.49 7.797 4.5 13a49.686 49.686 0 0 1-10.5 10c-2.2.968-4.62 1.314-7 1Z" style="fill:#e94e35" transform="translate(160)"/><path d="M2394.5 544.5c.73 2.568.73 5.234 0 8-2.68 2.371-4.02 5.371-4 9h-3c-2.05 5.635-5.21 6.302-9.5 2-.7-3.428-.37-6.762 1-10 1.92-1.509 3.09-3.509 3.5-6 3.06-3.284 6.73-4.784 11-4.5.56.383.89.883 1 1.5Z" style="fill:#fef0e9" transform="translate(160)"/><path d="M2403.5 545.5c4.39-.04 7.89 1.627 10.5 5 4.06 5.071 5.56 10.737 4.5 17-4.33.61-8.17-.723-11.5-4-2.56-3.928-4.06-8.261-4.5-13 .55-1.635.88-3.301 1-5Z" style="fill:#fef0e8" transform="translate(160)"/><path d="M2549.5 554.5c2.21.398 4.54.564 7 .5a28.237 28.237 0 0 1 7.5 8.5 6.28 6.28 0 0 1 3-1c2.78.972 5.61 1.805 8.5 2.5 2 .667 3.33 2 4 4-.49 3.427-1.65 6.594-3.5 9.5a336.164 336.164 0 0 1-2 19c-8.88 6.515-18.71 8.848-29.5 7a146.285 146.285 0 0 0-16-17c3.13-7.177 5.97-14.51 8.5-22a54.943 54.943 0 0 0 4.5-5.5 49.219 49.219 0 0 0 8-5.5Z" style="fill:#ea5037" transform="translate(160)"/><path d="M2549.5 571.5c3.01.327 5.51 1.661 7.5 4 2.54-2.58 5.04-2.58 7.5 0a37.332 37.332 0 0 0-7 10.5c-4.52 1.468-9.02 1.634-13.5.5-1.1-3.57.23-5.57 4-6 .36-3.044.86-6.044 1.5-9Z" style="fill:#fef0e9" transform="translate(160)"/><path d="M2928.5 635.5c4.66.462 9.33.962 14 1.5 1.8.972 3.47 2.139 5 3.5 3.28-1.197 6.78-.864 10.5 1 7.07-2.127 13.07-.461 18 5 .56 4.525 2.23 8.525 5 12 1.16 2.947 1.66 5.947 1.5 9-1.42 3.848-3.59 7.182-6.5 10-.21 2.734-1.04 5.234-2.5 7.5 1.75 4.506.42 7.84-4 10a131.03 131.03 0 0 0-15 5c-2.88.684-5.71.517-8.5-.5-3.25 4.591-7.59 7.591-13 9-7.16-2.29-10.33-7.29-9.5-15-4.8.206-9.46.206-14 0-3.38-3.977-3.71-8.144-1-12.5-1.96-2.136-3.29-4.636-4-7.5.62-9.622 5.62-15.622 15-18-1.62-2.132-2.12-4.465-1.5-7 1.69-3.195 4.19-5.528 7.5-7 1.06-2.034 2.06-4.034 3-6Zm10 31c.67 0 1 .333 1 1-.71.904-1.71 1.237-3 1v-1c.67-.333 1.33-.667 2-1Z" style="fill:#ea5037" transform="translate(160)"/><path d="M2302.5 709.5a6.943 6.943 0 0 0 1 4c.34 3.615-.32 6.948-2 10-1.42.209-2.76.709-4 1.5a14.446 14.446 0 0 1-4 5c-7.39.801-14.72.467-22-1a18.778 18.778 0 0 1-4.5-5.5 38.143 38.143 0 0 0-7.5 9.5c-4.66.537-9.33 1.037-14 1.5-2.51.212-4.68-.455-6.5-2a43.98 43.98 0 0 0-3.5-8c.01-4.964 1.35-9.464 4-13.5-1.5-.585-2.5-.085-3 1.5-1.42-.21-2.79-.721-4-1.5-.95-2.91-2.95-4.077-6-3.5-5.37-3.819-6.54-8.819-3.5-15a32.648 32.648 0 0 0 4-9 30.71 30.71 0 0 1 8-5c2.32 1.371 4.82 2.038 7.5 2 .85-5.414 2.01-10.748 3.5-16 5.93-3.357 12.09-6.19 18.5-8.5 6.03-1.225 9.2 1.275 9.5 7.5 3.46 1.918 5.13 4.918 5 9 2.07-1.46 2.91-3.126 2.5-5 4.18.143 8.51.31 13 .5a88.518 88.518 0 0 0 7 3.5c1.97 3.808 4.81 6.808 8.5 9a12.44 12.44 0 0 1 0 7 31.935 31.935 0 0 0-4 12c-3.58 2.662-4.74 5.996-3.5 10Z" style="fill:#e95037" transform="translate(160)"/><path d="M2949.5 655.5c2.96.637 5.96 1.137 9 1.5 3.58 2.017 3.92 4.517 1 7.5-3.58.987-7.3 1.325-11 1-.04-3.36.29-6.715 1-10Z" style="fill:#feeee7" transform="translate(160)"/><path d="M2944.5 665.5c-.54.06-.88.393-1 1a20.83 20.83 0 0 0 6 2c2.52-1.312 5.19-1.812 8-1.5 6.95 6.358 5.95 11.524-3 15.5-2.12-1.446-4.45-2.113-7-2 .17 1.322-.16 2.489-1 3.5a40.9 40.9 0 0 1-9 .5 38.698 38.698 0 0 1-3-8 37.788 37.788 0 0 1-8-2.5c-1.58-2.825-.92-4.992 2-6.5 2.7-1.229 5.37-1.229 8 0v1c.58 2.152 1.74 2.485 3.5 1 .69-.937.53-1.603-.5-2 0-.667-.33-1-1-1-.71-.904-1.71-1.237-3-1-.68-4.054-.68-8.054 0-12 3.57-2.451 7.07-2.451 10.5 0 .64 3.991 1.14 7.991 1.5 12h-3Zm-6 1c.67 0 1 .333 1 1-.71.904-1.71 1.237-3 1v-1c.67-.333 1.33-.667 2-1Z" style="fill:#fef1ea" transform="translate(160)"/><path d="M2272.5 693.5c.5 1.585 1.5 2.085 3 1.5a53.583 53.583 0 0 1 4.5-8.5c3.54.506 6.71 1.84 9.5 4 2.35 6.496.02 9.996-7 10.5 3.06 4.36 3.39 8.86 1 13.5-1.9-.067-3.73.267-5.5 1a19.886 19.886 0 0 1-4.5-3c-.59.209-1.09.543-1.5 1-1.42-4.461-4.25-5.794-8.5-4 1.84 2.027 2.34 4.36 1.5 7-2.33 2-4.67 4-7 6a30.867 30.867 0 0 1-8-3c-.38-2.541-1.21-4.874-2.5-7 3.23-5.477 1.56-8.477-5-9-1.65-6.975.68-11.975 7-15 2.97 2.973 5.97 5.973 9 9 .33-.5.67-1 1-1.5a37.498 37.498 0 0 1-5-11c.71-3.046 2.54-5.213 5.5-6.5 2.75.764 5.42 1.097 8 1 1 2.673 2.5 5.007 4.5 7-1.27 2.472-1.27 4.806 0 7Z" style="fill:#fef2eb" transform="translate(160)"/><path d="M2266.5 691.5c1.94 2.866 3.28 6.2 4 10l-4.5 3c-1.15-.924-2.15-.924-3 0-1.24-.899-2.07-2.066-2.5-3.5 1.1-2.767 2.93-4.933 5.5-6.5.48-.948.65-1.948.5-3Z" style="fill:#eb573e" transform="translate(160)"/><path d="M2401.5 749.5c-1.84.622-3 1.956-3.5 4a74.917 74.917 0 0 0-8.5-2 36.707 36.707 0 0 1-14 4c-4.95-.163-8.61-2.163-11-6 .01-3.045.34-6.045 1-9 .78-1.576 1.95-2.909 3.5-4 .58-3.703.41-7.369-.5-11a50.009 50.009 0 0 1 11.5-9c4.14.664 8.31 1.164 12.5 1.5 2.4 2.061 5.1 3.746 8 5 1.59 4.229 3.26 8.396 5 12.5-1.2 4.703-2.54 9.371-4 14Z" style="fill:#e84e35" transform="translate(160)"/><path d="M2455.5 839.5c-1.14 3.476-1.31 7.142-.5 11 .94 2.969 1.78 5.971 2.5 9v1c-5.3 6.639-12.3 9.472-21 8.5-8.68 5.629-18.01 6.962-28 4a11.454 11.454 0 0 1-3.5-4.5 155.578 155.578 0 0 0-4.5-16c-10.46-3.782-11.62-9.448-3.5-17 .31-4.989 2.48-8.823 6.5-11.5 1.61-.72 3.11-.554 4.5.5.72-.544 1.22-1.211 1.5-2 3.91-2.895 7.75-5.896 11.5-9 3.39 2.709 7.22 4.542 11.5 5.5.88 1.356 1.21 2.856 1 4.5 4.32-.427 8.66-.761 13-1-.26 1.478.07 2.811 1 4 3.14.446 5.81 1.779 8 4 2.41 3.09 2.41 6.09 0 9Z" style="fill:#e94e35" transform="translate(160)"/><path d="M2688.5 826.5c1.16 3.958 2.16 7.961 3 12 0 .667.33 1 1 1 1 1.183 1.84 2.516 2.5 4-.1 5.716.06 11.383.5 17-.62 9.839-5.96 14.339-16 13.5-2.54 2.546-5.54 4.212-9 5-2.34 4.003-5.84 5.836-10.5 5.5-7.14-.157-12.97-2.99-17.5-8.5-3.95-1.057-7.62-2.557-11-4.5.11-2.014-.56-3.68-2-5 .47-4.529.47-8.863 0-13 .29-3.254-.37-6.254-2-9-.1-3.192.57-6.192 2-9 1.5-1.679 3.33-3.012 5.5-4 1.1-7.627 5.27-10.293 12.5-8 1.81.894 3.64 1.894 5.5 3 .76-.07 1.26-.403 1.5-1 1.9-3.248 4.24-6.248 7-9 3.71-1.306 7.37-1.14 11 .5a183.49 183.49 0 0 0 16 9.5Z" style="fill:#e95037" transform="translate(160)"/><path d="M2667.5 833.5c2.25-.319 4.25.181 6 1.5a607.237 607.237 0 0 1-4 12.5 8.796 8.796 0 0 1 5 1.5c3.08 2.796 5.75 5.796 8 9-.95 2.882-2.95 4.048-6 3.5-3.4-.53-6.73-1.363-10-2.5 2.15-.479 3.15-1.812 3-4-.22-6.58-3.22-8.58-9-6-1.52 3.693-1.18 7.193 1 10.5 1.11-1.09 2.11-1.09 3 0-1.83 4.409-4.83 7.742-9 10-3.14-2.153-4.47-5.153-4-9 .33-3.927 1.17-7.594 2.5-11-2.12-2.619-4.62-4.619-7.5-6 2.44-1.494 5.11-2.494 8-3 2.27 1.044 4.6 1.211 7 .5 1.21-3.193 3.21-5.693 6-7.5Z" style="fill:#feeee7" transform="translate(160)"/><path d="M2929.5 904.5c-6.7 1.727-9.37 6.061-8 13-7.96-.804-13.96-4.637-18-11.5a32.643 32.643 0 0 1-7-3c-.34-2.73-.51-5.563-.5-8.5-2.64-2.529-5.81-3.529-9.5-3a63.33 63.33 0 0 1 1.5-18c15.22-.954 19.39-8.121 12.5-21.5.07-.765.4-1.265 1-1.5a90.266 90.266 0 0 1 22 0c-.63 6.03 2.03 9.363 8 10 2.89-.637 5.55-1.47 8-2.5 1.49 2.737 3.82 4.403 7 5 6.77 5.382 7.77 11.715 3 19 1.8 3.296 2.3 6.796 1.5 10.5a61.909 61.909 0 0 1-8 16c-3.73-3.596-8.23-4.929-13.5-4Z" style="fill:#e84e35" transform="translate(160)"/><path d="M2447.5 1269.5c15.6-1.83 21.1 4.83 16.5 20-1.9 2.03-4.06 3.7-6.5 5-.97 3.28-2.47 6.28-4.5 9-5.53 3.38-10.03 2.38-13.5-3-2.17-.7-4.17-1.7-6-3a91.809 91.809 0 0 1-4-10c1.18-2.36 1.18-4.7 0-7 .53-2.11 1.53-3.95 3-5.5 5.05-2 10.05-3.83 15-5.5Z" style="fill:#e94f35" transform="translate(160)"/><path d="M578.5 1364.5c4.991.76 9.824 2.1 14.5 4 3.379-2.42 6.879-2.59 10.5-.5 1.793 2.8 3.96 5.3 6.5 7.5.21 2.73 1.044 5.23 2.5 7.5 12.001-.52 19.334 4.98 22 16.5-.145 3.62-1.812 6.29-5 8a35.997 35.997 0 0 1-4 7c-1.268-.93-2.601-1.09-4-.5 1.46 4.43 2.794 8.93 4 13.5a309.127 309.127 0 0 0-3.5 14c-3.18 5.73-8.013 7.57-14.5 5.5-2.639-1.95-5.639-2.95-9-3-2.967-2.1-4.8-4.93-5.5-8.5a71.2 71.2 0 0 1-5.5 14c-6.966-.78-13.966-.95-21-.5-3.558-1.89-6.058-4.73-7.5-8.5a253.363 253.363 0 0 1-4-19c-2.333-3.33-4.667-6.67-7-10-1.172-4.96-.005-9.29 3.5-13-2.003-6.86.664-10.69 8-11.5 3.724-4.51 8.391-6.35 14-5.5-.985-1.6-1.151-3.26-.5-5a96.254 96.254 0 0 0 5.5-12Z" style="fill:#ea4f36" transform="translate(160)"/><path d="M586.5 1387.5c1.322-.17 2.489.16 3.5 1 1.034 5 1.534 10 1.5 15-7.173 1.66-9.673-1.01-7.5-8a61.655 61.655 0 0 0 2.5-8Z" style="fill:#fee7de" transform="translate(160)"/><path d="M2491.5 1395.5c2.56.48 5.06 1.15 7.5 2 4.53-1.66 8.7-1 12.5 2 6.93-.87 13.6.3 20 3.5 5.09 4.69 6.76 10.36 5 17 8 5.5 11.5 13 10.5 22.5-3.03 6.61-8.2 10.44-15.5 11.5-8.71 12.87-18.04 13.53-28 2-11.96 1.04-17.8-4.46-17.5-16.5-5.18-5.36-7.18-11.69-6-19 .91-3.08 2.74-5.41 5.5-7 1.88-3.06 3.05-6.4 3.5-10 .97-1.8 2.14-3.47 3.5-5-.63-.92-.96-1.92-1-3Z" style="fill:#ea5037" transform="translate(160)"/><path d="M606.5 1399.5h5a8.43 8.43 0 0 1-.5 4 46.655 46.655 0 0 0-5.5 6c-5.214 2.1-8.214.43-9-5h3v-4c2.559.3 4.893-.03 7-1Z" style="fill:#feece4" transform="translate(160)"/><path d="M572.5 1402.5c2.427.02 4.76.52 7 1.5 2.102 4.31.769 6.81-4 7.5-5.151-1.81-6.151-4.81-3-9Z" style="fill:#feeae2" transform="translate(160)"/><path d="M593.5 1410.5c2.939 2.49 5.439 5.49 7.5 9 2.219 6.43.053 9.26-6.5 8.5-2.771-5.11-4.104-10.61-4-16.5 1.291.24 2.291-.1 3-1Z" style="fill:#fef1ea" transform="translate(160)"/><path d="M2512.5 1427.5c-1.07-.93-2.4-1.27-4-1-1.15-3.81-1.31-7.81-.5-12 .41-1.15 1.1-2.18 2-3 .91 1.94 2.41 2.94 4.5 3 1.41 4.2 2.08 8.54 2 13h-4Zm-1933-13c3.571-.09 4.738 1.57 3.5 5-2.002 3.39-4.835 4.89-8.5 4.5-1.054-1.39-1.22-2.89-.5-4.5 2.328-1.16 4.162-2.83 5.5-5Z" style="fill:#feede6" transform="translate(160)"/><path d="M2520.5 1434.5c-2.83-4.19-2.5-8.19 1-12 1.92-1.14 3.92-1.31 6-.5 1.88 1.71 3.55 3.54 5 5.5-1.12 2.95-2.12 5.95-3 9-2.95-.92-5.95-1.59-9-2Z" style="fill:#fef1ea" transform="translate(160)"/><path d="M2507.5 1428.5c.89.61 1.89.94 3 1 2.74.57 3.58 2.24 2.5 5a32.202 32.202 0 0 1-5.5 4c-2.9-1.38-5.56-3.04-8-5 .48-.98 1.14-1.81 2-2.5 2.16-.58 4.16-1.42 6-2.5Z" style="fill:#feede6" transform="translate(160)"/><path d="M2520.5 1434.5c-.47 2.42.37 4.42 2.5 6 .5 2.65.66 5.31.5 8-5.13.85-8.46-1.15-10-6 1.94-2.49 2.61-5.16 2-8 1.7-1.31 3.37-1.31 5 0Z" style="fill:#feeae2" transform="translate(160)"/><path d="M759.5 1601.5c-1.977 4.02-3.143 8.35-3.5 13-3.82 2.91-7.653 5.91-11.5 9a60.734 60.734 0 0 1-3 5.5c-2.31.5-4.643.66-7 .5-2.714-.25-5.381-.42-8-.5a27.669 27.669 0 0 0 7 2.5 45.723 45.723 0 0 0 5.5 6 8.43 8.43 0 0 1 .5 4c.435 2.66 1.435 4.99 3 7 3.888 4.31 4.888 9.31 3 15-1.52 3.08-2.353 6.41-2.5 10-1.011.84-2.178 1.17-3.5 1 .117 1.98-.55 3.65-2 5-8.743 4.3-17.743 7.47-27 9.5-3.454-4.62-8.12-7.12-14-7.5-3.712-2.55-6.545-5.88-8.5-10-3.888 5.22-8.388 9.72-13.5 13.5-3.297 1.6-6.63 3.1-10 4.5a40.509 40.509 0 0 0-5-1c-5.563 2.37-11.229 2.53-17 .5-2.287-2.07-3.953-4.57-5-7.5-6.33-2.99-9.33-7.99-9-15 .734-1.21 1.067-2.54 1-4-2.092-4.55-2.425-9.21-1-14 1.343-1.99 2.676-3.99 4-6 .978-.31 1.645-.98 2-2a21.141 21.141 0 0 0-9-1 28.888 28.888 0 0 1-7-2c-.942.11-1.775.44-2.5 1-2.915-7.79-6.415-15.12-10.5-22-1.577-2.08-3.41-4.08-5.5-6 .436-4.67.268-9.37-.5-14 .077-1.8.577-3.47 1.5-5a47.972 47.972 0 0 0 13.5-9.5c2.829-1.51 5.662-1.68 8.5-.5a18.778 18.778 0 0 1 5.5-4.5c5.653.55 11.347.55 17 0 1.311-4.47 1.311-8.97 0-13.5a87.1 87.1 0 0 0 4.5-12c8.412-7.37 18.078-12.04 29-14 6.81 3.26 13.644 6.59 20.5 10 8.883 8.72 12.049 19.05 9.5 31 5.319-5.39 11.652-7.39 19-6a9.277 9.277 0 0 1 4.5-2c4.061 1.31 8.061 2.81 12 4.5 4.529 5.19 9.029 10.36 13.5 15.5 2.295 3.49 2.795 7.15 1.5 11Z" style="fill:#e94f36" transform="translate(160)"/><path d="M677.5 1566.5c2.415 1.32 4.609 3 6.5 5 .711 1.87.211 3.37-1.5 4.5 2.688 5.27 1.688 9.94-3 14-1.634.49-3.301.66-5 .5-1.653-6.02-1.82-12.02-.5-18 2.265-1.42 3.431-3.42 3.5-6Z" style="fill:#feefe7" transform="translate(160)"/><path d="M705.5 1605.5c1.668 1.98 2.334 4.31 2 7a22.23 22.23 0 0 1-5 8.5c2.642 4.88 2.642 9.71 0 14.5-3.563 1.5-7.23 2.5-11 3a24.629 24.629 0 0 1-5-5c-1.467-4.98-2.8-4.65-4 1-3.018.16-6.018 0-9-.5l-1.5-1.5c-.315-2.87-.815-5.7-1.5-8.5-1.393-2.36-3.226-2.86-5.5-1.5-.21-1.56-.71-2.89-1.5-4 .163-2.36-.003-4.69-.5-7-.383-.56-.883-.89-1.5-1a9.118 9.118 0 0 1 1-5c4.025-2.12 8.191-2.79 12.5-2 3.381-7.63 9.215-10.63 17.5-9a21.02 21.02 0 0 1 2 7c3.995.5 7.662 1.83 11 4Z" style="fill:#fef6ef" transform="translate(160)"/><path d="M641.5 1602.5c9.683-1.93 15.517 1.74 17.5 11-2.107 3.71-5.107 4.71-9 3-3.478-2.14-6.311-4.98-8.5-8.5-1-.33-2-.67-3-1 1.641-1.13 2.641-2.63 3-4.5Z" style="fill:#feefe8" transform="translate(160)"/><path d="M725.5 1608.5c.869 2.22 1.202 4.55 1 7a26.778 26.778 0 0 0-4 4.5c-3.652.5-7.318.67-11 .5-.35-4.05.317-7.88 2-11.5 1.399-.59 2.732-.43 4 .5 2.384-2.22 5.051-2.56 8-1Z" style="fill:#fef3ec" transform="translate(160)"/><path d="M2318.5 1629.5c6.69.33 13.36.33 20 0-.17 1.32.16 2.49 1 3.5a59.446 59.446 0 0 1 16.5 6.5 96.707 96.707 0 0 0 6.5 16.5c-.9 6.73-4.56 11.23-11 13.5-2.41 4.99-3.57 10.32-3.5 16-2.33 2.67-4.67 5.33-7 8-1.4-.62-2.9-.95-4.5-1-6.53 1.1-13.03 2.1-19.5 3-2.75-5.13-4.58-10.46-5.5-16-3.25-.56-6.25-.73-9-.5.46-.41.79-.91 1-1.5a95.805 95.805 0 0 1-6.5-12c-.01-2.31-.17-4.48-.5-6.5 2.54-4.98 4.71-10.15 6.5-15.5 2.71-2.44 5.87-3.94 9.5-4.5 3.01-2.54 5.01-5.71 6-9.5Z" style="fill:#e94f35" transform="translate(160)"/><path d="M686.5 1633.5c-1.462-.97-2.795-.64-4 1 1.2-5.65 2.533-5.98 4-1Z" style="fill:#f18773" transform="translate(160)"/><path d="M661.5 1634.5c2.706.08 5.373.41 8 1 .391 3.88-.276 7.55-2 11-3.703 3.75-8.036 6.08-13 7 .216-2.93-.451-5.6-2-8a73.865 73.865 0 0 1 9-11Z" style="fill:#fef2eb" transform="translate(160)"/><path d="M698.5 1639.5h3c2.198.67 4.531 1.33 7 2 1.925 2.62 3.758 5.28 5.5 8 .56 3.46-.94 5.63-4.5 6.5-5.221 1.77-8.055-.06-8.5-5.5-1.11-1.54-2.61-2.2-4.5-2 .176-3.23.843-6.23 2-9Z" style="fill:#fef0e9" transform="translate(160)"/><path d="M431.5 1657.5c-1.35 3.23-1.017 6.23 1 9a51.75 51.75 0 0 1-1 7h3c3.402 1.88 6.569 4.21 9.5 7 .667 2 .667 4 0 6-2.039 1.48-2.872 3.48-2.5 6-4.667.33-9.333.67-14 1 1.572 11.92-3.428 16.09-15 12.5a38.333 38.333 0 0 1-3.5-11.5 20.649 20.649 0 0 1-3.5 4c-1.679.39-3.346.89-5 1.5-2.624 6.24-7.29 8.24-14 6-10.242-9.45-10.242-19.11 0-29 5.008-.87 4.675-1.54-1-2a58.868 58.868 0 0 0-5.5-5.5c-.667-5-.667-10 0-15 3.6-1.66 7.267-3.33 11-5 2.631 1.46 4.798 3.46 6.5 6 3.205-3.87 7.205-6.54 12-8 .586.21 1.086.54 1.5 1 2.834-3.92 6.334-4.75 10.5-2.5 2.726 4.49 6.059 8.32 10 11.5Z" style="fill:#e84e35" transform="translate(160)"/><path d="M2218.5 1672.5c5.67 1.8 11.5 1.8 17.5 0 2.69 4.52 5.36 9.52 8 15 .16 2.33.16 4.67 0 7l7.5-7.5c5.96-2.53 10.96-1.2 15 4 2 .33 4 .67 6 1 3.96 2.87 8.13 5.37 12.5 7.5 1.67 3.51 2.84 7.17 3.5 11a53.809 53.809 0 0 0-3.5 15c-1.5 2.33-3 4.67-4.5 7 1.46 2.88 2.63 5.88 3.5 9 5.01 3.37 6.67 8.04 5 14-.84 1.85-1.67 3.68-2.5 5.5 2.09 3.59 2.92 7.42 2.5 11.5a56.664 56.664 0 0 1-9 18c-5.26 3.71-11.09 5.21-17.5 4.5-7.35-1.47-14.68-2.8-22-4-3.93-3.69-6.43-8.19-7.5-13.5l-3-3c3.3 9.43.13 15.59-9.5 18.5-4.27 4.92-9.77 7.08-16.5 6.5-4.2-.9-8.37-1.9-12.5-3 .16-1.37-.01-2.71-.5-4-1.81-1.64-3.19-3.7-4-6-.22-6.93-1.06-13.76-2.5-20.5.04-1.76.38-3.43 1-5-4.59.54-9.26.54-14 0-2.76-3.22-6.09-5.72-10-7.5-2-1.99-3.5-4.33-4.5-7-.79-5.26-1.96-10.43-3.5-15.5-.29-2.87.21-5.7 1.5-8.5 2.33-2 4.67-4 7-6 1.03-4.7 3.86-7.87 8.5-9.5 6.62-1.14 13.29-1.64 20-1.5-.88-3.26-1.05-6.67-.5-10 2.45-4.11 4.46-8.47 6-13 7.37-3.61 14.88-6.95 22.5-10Zm4 68c-1.68.21-2.68-.45-3-2 1.53-.89 2.53-.22 3 2Z" style="fill:#ea4f36" transform="translate(160)"/><path d="M543.5 1717.5c4.973.39 9.807 1.39 14.5 3 .75-.13 1.445-.48 2-1 3.719 2.29 5.385 5.62 5 10 5.863 2.63 7.363 6.79 4.5 12.5 2.611-.56 5.111-1.72 7.5-3.5 2.333-.67 4.667-1.33 7-2 12.047 2.83 21.047 9.49 27 20 .059 5.05.892 9.88 2.5 14.5.378 5.43-1.955 8.59-7 9.5-.244 2.76-1.577 4.93-4 6.5-3.969 1.5-7.969 3-12 4.5a25.052 25.052 0 0 0 6.5 8c1.336 3.4 1.836 6.74 1.5 10a59.419 59.419 0 0 1-3.5 10 45.044 45.044 0 0 0-8.5 7.5c-8.776 3.32-17.776 4.49-27 3.5a26.099 26.099 0 0 1-3-5c-4.467 1.89-8.134 4.72-11 8.5-9.038 3.34-18.371 4.34-28 3-6.89-2.56-11.39-7.39-13.5-14.5-1.835-3.44-2.335-6.94-1.5-10.5a22.713 22.713 0 0 1-2-5c1.534-2.9 3.201-5.73 5-8.5a148.44 148.44 0 0 1-10.5-10c-1.48-3.45-3.313-6.62-5.5-9.5.805-6.31 1.972-12.48 3.5-18.5a18.194 18.194 0 0 1 7.5-5c.54-1.25 1.207-2.41 2-3.5 4.281-1.73 8.448-3.56 12.5-5.5 5.935 4.11 7.101 2.61 3.5-4.5 1.455-2.25 2.288-4.75 2.5-7.5a92.579 92.579 0 0 0 15.5-13.5c2.687-.73 5.02-1.9 7-3.5Z" style="fill:#ea5037" transform="translate(160)"/><path d="M2235.5 1714.5c.34 3.51.34 6.84 0 10-.65.3-1.32.64-2 1-1.36-1.2-2.87-2.21-4.5-3-2.3 1.49-4.47 3.16-6.5 5-1.2.73-2.6 1.08-4 1-1.05 3.16-1.05 6.16 0 9 0 .67.33 1 1 1 .32 1.55 1.32 2.21 3 2 1.02 1.85 2.52 3.19 4.5 4 4.42-2.42 8.92-4.76 13.5-7 1.84-4 .84-7-3-9 .02-2.06.35-4.06 1-6 2.24-3.75 5.08-7.08 8.5-10 2.12.7 4.28.86 6.5.5 1.9 2.34 3.9 4.5 6 6.5-.45 4.05-1.12 8.05-2 12-1.71 1.14-2.38 2.8-2 5-3.37 1.66-7.03 2.5-11 2.5 2.85 1.29 5.85 1.79 9 1.5.65 2.33 1.32 4.66 2 7 .16 10.52-4.84 14.85-15 13a44.024 44.024 0 0 0-7-6c-1.43 1.72-2.27 3.72-2.5 6-9.24 9.3-16.24 7.96-21-4-.7-3.5-.2-6.83 1.5-10-3-.75-6-1.41-9-2-2.45-4.07-4.79-8.24-7-12.5l7-7c4.7-.65 9.37-.48 14 .5.29-2.24-.04-4.24-1-6-.05-2.4.28-4.74 1-7 .95-1.97 1.95-3.97 3-6 6.02 1.34 11.35 4 16 8Zm-13 26c-1.68.21-2.68-.45-3-2 1.53-.89 2.53-.22 3 2Z" style="fill:#fef5ee" transform="translate(160)"/><path d="M2235.5 1724.5c.67 1.33 1.33 2.67 2 4 3.84 2 4.84 5 3 9-4.58 2.24-9.08 4.58-13.5 7-1.98-.81-3.48-2.15-4.5-4-.47-2.22-1.47-2.89-3-2-.67 0-1-.33-1-1 .33-2.67.67-5.33 1-8 1.68.21 2.68-.45 3-2 1.99-1.82 4.16-3.48 6.5-5 1.63.79 3.13 1.79 4.5 3 .68-.36 1.35-.7 2-1Z" style="fill:#ea543a" transform="translate(160)"/><path d="M798.5 1732.5c3.276.03 6.609.03 10 0 6.238 1.9 10.571 5.9 13 12 1.175-1.35 2.175-1.19 3 .5-.333.33-.667.67-1 1a63.524 63.524 0 0 0 5 8.5c-.949 3.29-.949 6.63 0 10 3.511 1.09 7.011 1.09 10.5 0 3.911.94 7.745 2.1 11.5 3.5 2.8 4.14 6.364 7.7 10.5 10.5a81.607 81.607 0 0 1 2.5 8.5c-.155 6.17-.155 12.33 0 18.5-.699 4.4-2.699 8.07-6 11a228.273 228.273 0 0 0-11.5 5c.278 4.23 1.445 8.23 3.5 12-.928 5.94-2.595 11.61-5 17-.825.89-1.825 1.22-3 1a4.934 4.934 0 0 1-.5 3c-5.461 4.46-11.794 6.79-19 7a494.891 494.891 0 0 1-19.5-6.5 15.883 15.883 0 0 1-6-5.5c-4.014 1.5-7.348 4-10 7.5-4.338 1.5-8.672 3-13 4.5a124.083 124.083 0 0 1-21-5c-.886-.82-1.219-1.82-1-3-3.294.24-6.294-.59-9-2.5-7.01-7.51-9.843-16.35-8.5-26.5 2.346-2.21 2.846-4.71 1.5-7.5a70.43 70.43 0 0 0 12-7c-2.886-4.18-6.053-4.34-9.5-.5l-1-5a43.351 43.351 0 0 1-10-12c-.426-6.49 1.908-11.82 7-16 .505-14.07 7.505-19.4 21-16 6.378-3.24 12.045-2.24 17 3-.126-3.96 1.208-7.3 4-10a28.91 28.91 0 0 1 3-10c5.946-4.81 12.446-8.47 19.5-11Zm-7 64c-.333.67-.667 1.33-1 2-1.257-1.12-.924-1.79 1-2Z" style="fill:#ea5036" transform="translate(160)"/><path d="M255.5 1733.5h2c2.998 3.17 5.831 6.5 8.5 10 2.105 7.03 6.605 11.86 13.5 14.5 2.222 3.99 2.388 8.16.5 12.5-3.282 3.41-3.782 7.08-1.5 11 .714 2.25.548 4.58-.5 7a88.314 88.314 0 0 0-12.5 9.5c-8.544.3-17.06 1.14-25.5 2.5-2.458-3.59-3.792-7.59-4-12-2-.67-4-1.33-6-2-2.449 1.02-4.949 1.52-7.5 1.5.333-.33.667-.67 1-1a278.9 278.9 0 0 0-7-12.5c.729-3.04 1.896-6.04 3.5-9-.897-8.17 1.603-14.84 7.5-20 4.967-.81 9.967-1.48 15-2 6.068-1.07 10.401-4.4 13-10Z" style="fill:#e85037" transform="translate(160)"/><path d="M548.5 1743.5c1.322-.17 2.489.16 3.5 1a75.856 75.856 0 0 0 2.5 9.5c.373 2.62-.627 4.45-3 5.5-2.162-1.52-4.495-2.52-7-3-.655-5.03.679-9.36 4-13Z" style="fill:#feece4" transform="translate(160)"/><path d="M254.5 1750.5c.904 2.14 1.571 4.47 2 7-3 4.33-5.333 4-7-1 .747-2.86 2.413-4.86 5-6Z" style="fill:#feeee6" transform="translate(160)"/><path d="M241.5 1753.5c3.653 1.49 6.153 4.16 7.5 8 .165 4.48-2.002 5.98-6.5 4.5a44.024 44.024 0 0 0-7-6c2.568-1.73 4.568-3.9 6-6.5Z" style="fill:#fef1ea" transform="translate(160)"/><path d="M2506.5 1757.5c5.5.28 10.67 1.61 15.5 4 4.96-1.68 9.13-.51 12.5 3.5 5.02-.31 8.52 1.86 10.5 6.5.59 3.85 1.76 7.51 3.5 11-.75 2.54-.42 5.04 1 7.5-2.66 8.68-8.66 12.35-18 11-5.36 4.07-11.36 5.41-18 4a25.527 25.527 0 0 1-4-4.5c-5.94-1.18-9.11-4.85-9.5-11-1.67-.67-3.33-1.33-5-2-3.3-10.09-7.8-19.59-13.5-28.5 5.58-.81 11.08-.64 16.5.5 2.94-.63 5.77-1.29 8.5-2Z" style="fill:#e94f35" transform="translate(160)"/><path d="M260.5 1758.5c5.149.15 7.482 2.82 7 8-7.027 1.25-9.36-1.42-7-8Z" style="fill:#feede6" transform="translate(160)"/><path d="M548.5 1763.5c.891.61 1.891.94 3 1 .82 1.64 1.653 3.31 2.5 5 1.32-3.4 3.82-4.73 7.5-4 1.667.17 3.333.33 5 .5a17.79 17.79 0 0 0 5.5 4.5c.425 4.37.092 8.7-1 13a142.714 142.714 0 0 0-4 15 46.124 46.124 0 0 0-10 4c-2.887-.4-5.221-1.74-7-4-.982 4.12-3.648 6.12-8 6a33.82 33.82 0 0 0-7.5-4c-.95-2.57-.95-5.07 0-7.5a20.695 20.695 0 0 1-6.5-3.5 21.58 21.58 0 0 1-3.5-8c.802-1.45 1.302-3.12 1.5-5 .816-1.32 1.983-1.99 3.5-2 3.46-2.88 6.627-2.54 9.5 1 .395-1.68.228-3.35-.5-5 .219-1.44.719-2.77 1.5-4 2.804-1.37 5.638-2.37 8.5-3Z" style="fill:#fef4ee" transform="translate(160)"/><path d="M2103.5 1766.5c5.04-1.07 8.88.6 11.5 5 1.96 2.64 3.96 5.3 6 8 .67 2.33.67 4.67 0 7-4.11 7.24-8.44 14.24-13 21-5.39 3.81-11.23 4.64-17.5 2.5-1.91-1.41-3.25-3.25-4-5.5a18.169 18.169 0 0 1-7.5-5 49.518 49.518 0 0 1-1.5-13.5c2.83-4.63 4.83-9.63 6-15 4.03-3.12 8.19-3.29 12.5-.5 2.67-1.21 5.17-2.55 7.5-4Z" style="fill:#e94f35" transform="translate(160)"/><path d="M577.5 1767.5c5.86-1.43 7.86.57 6 6-2.421 2.1-4.923 4.1-7.5 6-.666-4.17-.166-8.17 1.5-12Z" style="fill:#fee8e0" transform="translate(160)"/><path d="M241.5 1769.5c4.263-.13 6.263 1.87 6 6-2.408.56-4.741 1.06-7 1.5a6.28 6.28 0 0 1-1-3c.574-1.61 1.24-3.11 2-4.5Z" style="fill:#feeae2" transform="translate(160)"/><path d="M257.5 1770.5c4.222.57 6.222 3.07 6 7.5-.41 3.23-2.076 5.4-5 6.5-1.529-.03-2.696-.7-3.5-2a99.011 99.011 0 0 0-3.5-6.5c.667-1.33 1.333-2.67 2-4 1.558-.21 2.891-.71 4-1.5Z" style="fill:#feefe8" transform="translate(160)"/><path d="M790.5 1798.5c.333-.67.667-1.33 1-2 1.127-.62 2.127-1.46 3-2.5-2.244-1.42-3.91-3.26-5-5.5.127-7.28 3.627-11.61 10.5-13 1.653.32 2.653 1.32 3 3 .767 4.06.6 8.06-.5 12l-4 3c.825.89 1.825 1.22 3 1 1.627 4.56 1.294 8.9-1 13 4.493-.11 7.493 1.89 9 6 2.639.61 5.169 1.62 7.5 3a89.737 89.737 0 0 0 3.5 11.5l-3 3c-6.294.28-10.96-2.39-14-8-1.243-.3-2.426-.81-3.5-1.5-.513-2.99-1.68-5.66-3.5-8 .565-1.9 1.565-3.57 3-5-4.614-2.28-9.447-2.61-14.5-1-.5-.17-1-.33-1.5-.5a22.796 22.796 0 0 0 5-4c-4.699-.68-9.199-.18-13.5 1.5-11.43-1.4-15.597-7.73-12.5-19a6.203 6.203 0 0 1 3.5-2c4.058 2.8 8.558 4.63 13.5 5.5 3.378 3.98 6.545 8.15 9.5 12.5.513-1.03 1.013-2.03 1.5-3Zm1-2c-.333.67-.667 1.33-1 2-1.257-1.12-.924-1.79 1-2Z" style="fill:#fef2eb" transform="translate(160)"/><path d="M507.5 1777.5c3.14-1.14 6.473-1.31 10-.5 1.729 1.79 2.396 3.96 2 6.5-2.091-.18-4.091.15-6 1a204.905 204.905 0 0 0-6-7Z" style="fill:#feece5" transform="translate(160 14)"/><path d="M548.5 1778.5c1.32 1.44 2.986 2.11 5 2 .336 3.67-.497 7-2.5 10-4.821-3.27-5.654-7.27-2.5-12Z" style="fill:#eb573e" transform="translate(160)"/><path d="M819.5 1787.5c1.652 1.31 3.318 1.31 5 0 1.687.26 3.187.93 4.5 2a31.31 31.31 0 0 1 1.5 10c-4.133-.12-7.466 1.38-10 4.5-2.215.17-4.215.84-6 2-1.612.72-3.112.55-4.5-.5-1.483-2.82-2.983-5.66-4.5-8.5 1.217-4.05 3.883-6.55 8-7.5 2.732 1.53 4.732.87 6-2Zm-251 12c4.087-.21 7.587 1.13 10.5 4 1.601 5.28-.233 7.94-5.5 8-3.652-.15-5.986-1.99-7-5.5a14.83 14.83 0 0 0 2-6.5Z" style="fill:#fef0e9" transform="translate(160)"/><path d="M529.5 1806.5c1.265 1.01 1.931 2.51 2 4.5.547 3.96-1.12 6.46-5 7.5-1.812-.45-2.812-1.62-3-3.5 1.518-3.32 3.518-6.16 6-8.5Z" style="fill:#feeae2" transform="translate(160)"/><path d="M775.5 1815.5c1.429-2.19 3.429-3.52 6-4 9.681-5.82 13.514-3.16 11.5 8-4.517 6.64-10.35 8.14-17.5 4.5-1.074-.74-1.741-1.74-2-3 .82-1.8 1.486-3.63 2-5.5Z" style="fill:#fef2eb" transform="translate(160)"/><path d="M435.5 1812.5c3.979.95 7.979 1.11 12 .5 1.786.78 3.286 1.95 4.5 3.5.333-.33.667-.67 1-1 5.143 1.82 8.143 5.48 9 11 4.579 3.96 6.245 8.96 5 15a113.189 113.189 0 0 1-8.5 21c-7.458.68-14.791.85-22 .5a89.571 89.571 0 0 0-15.5-18.5c-.514-5.9.319-11.57 2.5-17 .667 0 1-.33 1-1a31.472 31.472 0 0 0 2.5-9c2.059-2.96 4.892-4.63 8.5-5Z" style="fill:#e94e35" transform="translate(160)"/><path d="M180.5 1822.5c3.004 1.17 6.004 1.17 9 0 1.687.26 3.187.93 4.5 2l3.5 7c-2.028 2.62-2.362 5.45-1 8.5a11.337 11.337 0 0 1-2 4c3.154-2.07 6.654-3.91 10.5-5.5 3.048.69 5.382 2.36 7 5a25.916 25.916 0 0 0 2.5 7.5c-2.151 3.49-4.318 6.99-6.5 10.5-1.594 1.8-3.594 2.8-6 3-2.27-1.36-4.77-2.03-7.5-2 1.825 10.67-2.509 14.51-13 11.5-4.685-1.35-8.185-4.18-10.5-8.5-4.151 1.86-7.484.86-10-3a88.528 88.528 0 0 0-2.5-7c-3.392-2.12-4.559-5.12-3.5-9a32.892 32.892 0 0 0 4.5-9c1.735.56 3.402.89 5 1a23.246 23.246 0 0 1 7-3c1.859-5.18 4.859-9.51 9-13Zm8 26c-.538 1.62-.874 3.3-1 5h-4c.463-2.76 2.13-4.42 5-5Z" style="fill:#e94f35" transform="translate(160 1)"/></svg>